<?xml version="1.0" standalone="no"?><!DOCTYPE svg PUBLIC "-//W3C//DTD SVG 1.1//EN" "http://www.w3.org/Graphics/SVG/1.1/DTD/svg11.dtd" ><svg xmlns="http://www.w3.org/2000/svg"><metadata></metadata><defs><font id="fonteditor" horiz-adv-x="1000"><font-face font-family="ùe¹ ^8Ä" font-weight="400" font-stretch="normal" units-per-em="1000" panose-1="2 11 3 0 0 0 0 0 0 0" ascent="1060" descent="-340" x-height="0" bbox="-15 -212 968 837" underline-thickness="0" underline-position="0" unicode-range="U+0022-ff1b" /><missing-glyph horiz-adv-x="1000"  /><glyph glyph-name="quotedbl" unicode="&quot;" d="M292 728 Q353 728 353 646 Q353 527 253 472 L231 507 Q302 554 308 630 Q300 628 293 628 Q270 628 256 642 Q242 655 242 677 Q242 702 255 715 Q269 728 292 728 ZM121 728 Q182 728 182 646 Q182 527 82 472 L60 507 Q131 555 136 630 Q128 628 122 628 Q99 628 85 642 Q70 656 70 677 Q70 702 84 715 Q98 728 121 728 Z" /><glyph glyph-name="ampersand" unicode="&amp;" d="M301 678 Q250 678 221 652 Q191 627 191 581 Q191 548 225 502 Q242 479 280 438 Q298 450 315 458 Q410 514 410 582 Q410 624 383 649 Q354 678 301 678 ZM229 410 Q178 464 162 491 Q130 538 130 580 Q130 650 182 690 Q227 728 302 728 Q376 728 424 689 Q471 650 471 585 Q471 522 418 474 Q370 435 315 402 L515 191 Q560 284 569 418 L629 418 Q623 256 558 146 L696 0 L617 0 L525 97 Q435 -14 288 -14 Q182 -14 114 39 Q43 95 43 192 Q43 293 138 360 Q171 379 229 410 ZM286 42 Q409 42 484 140 L264 372 Q216 345 174 315 Q104 264 104 191 Q104 124 157 83 Q209 42 286 42 Z" /><glyph glyph-name="quotesingle" unicode="&#39;" d="M121 728 Q182 728 182 646 Q182 527 82 472 L60 507 Q131 555 136 630 Q128 628 122 628 Q99 628 85 642 Q70 656 70 677 Q70 702 84 715 Q98 728 121 728 Z" /><glyph glyph-name="parenleft" unicode="(" d="M265 827 Q204 727 170 619 Q127 489 127 360 Q127 231 170 101 Q204 -6 265 -107 L210 -107 Q147 -12 111 99 Q68 229 68 360 Q68 491 111 620 Q147 731 210 827 L265 827 Z" /><glyph glyph-name="parenright" unicode=")" d="M123 827 Q185 731 222 620 Q265 486 265 360 Q265 234 222 99 Q184 -12 123 -107 L68 -107 Q126 -11 163 101 Q206 236 206 360 Q206 484 163 619 Q126 732 68 827 L123 827 Z" /><glyph glyph-name="asterisk" unicode="*" d="M223 714 L277 714 L272 510 L458 579 L475 528 L285 468 L412 313 L370 280 L250 441 L130 280 L89 313 L215 468 L25 528 L42 579 L228 510 L223 714 Z" /><glyph glyph-name="comma" unicode="," d="M126 100 Q187 100 187 17 Q187 -101 87 -156 L65 -121 Q136 -74 142 1 L127 0 Q105 0 90 13 Q76 26 76 49 Q76 74 89 86 Q103 100 126 100 Z" /><glyph glyph-name="hyphen" unicode="-" d="M50 285 L555 285 L555 233 L50 233 L50 285 Z" /><glyph glyph-name="period" unicode="." d="M129 100 Q151 100 165 86 Q180 73 180 50 Q180 30 164 14 Q148 0 129 0 Q107 0 93 15 Q78 30 78 50 Q78 73 93 86 Q106 100 129 100 Z" /><glyph glyph-name="slash" unicode="/" d="M402 820 L457 820 L98 -100 L43 -100 L402 820 Z" /><glyph glyph-name="zero" unicode="0" d="M300 728 Q429 728 492 610 Q544 514 544 357 Q544 202 492 104 Q428 -14 300 -14 Q172 -14 108 104 Q56 199 56 357 Q56 516 108 610 Q171 728 300 728 ZM300 674 Q196 674 151 568 Q118 490 118 357 Q118 226 151 146 Q196 40 300 40 Q402 40 449 146 Q483 228 483 357 Q483 488 449 568 Q403 674 300 674 Z" /><glyph glyph-name="one" unicode="1" d="M350 714 L350 0 L289 0 L289 638 Q220 563 118 533 L118 595 Q169 610 217 640 Q264 671 301 714 L350 714 Z" /><glyph glyph-name="two" unicode="2" d="M309 728 Q406 728 468 672 Q531 617 531 524 Q531 432 460 356 Q425 319 312 242 Q160 139 143 56 L532 56 L532 0 L68 0 Q68 92 139 170 Q183 220 289 293 Q379 357 410 388 Q469 452 469 525 Q469 596 425 635 Q382 674 308 674 Q230 674 185 622 Q137 570 137 470 L75 470 Q75 590 141 659 Q204 728 309 728 Z" /><glyph glyph-name="three" unicode="3" d="M307 728 Q407 728 468 676 Q528 624 528 536 Q528 413 412 374 Q474 355 508 311 Q543 267 543 205 Q543 109 476 47 Q407 -14 302 -14 Q207 -14 143 36 Q66 95 57 217 L119 217 Q123 126 183 78 Q231 39 301 39 Q382 39 434 86 Q482 133 482 203 Q482 269 436 309 Q392 347 315 347 L252 347 L252 397 L309 397 Q384 397 427 432 Q467 469 467 533 Q467 596 426 635 Q383 674 307 674 Q231 674 188 631 Q143 589 134 512 L73 512 Q82 612 147 671 Q209 728 307 728 Z" /><glyph glyph-name="four" unicode="4" d="M394 714 L453 714 L453 218 L574 218 L574 167 L453 167 L453 0 L394 0 L394 167 L26 167 L26 226 L394 714 ZM391 631 L81 218 L394 218 L394 631 L391 631 Z" /><glyph glyph-name="five" unicode="5" d="M112 714 L516 714 L516 658 L163 658 L138 395 L141 395 Q173 433 220 452 Q262 471 313 471 Q415 471 478 408 Q543 341 543 227 Q543 122 470 52 Q400 -14 295 -14 Q203 -14 138 37 Q65 92 57 189 L118 189 Q126 116 178 76 Q226 39 295 39 Q376 39 429 92 Q482 147 482 227 Q482 318 432 370 Q384 419 301 419 Q247 419 203 395 Q158 370 134 324 L76 324 L112 714 Z" /><glyph glyph-name="six" unicode="6" d="M311 728 Q502 728 532 540 L471 540 Q446 675 310 675 Q218 675 167 584 Q117 499 117 363 L117 328 L121 328 Q145 391 199 427 Q250 463 319 463 Q421 463 482 398 Q544 333 544 229 Q544 124 478 55 Q412 -14 310 -14 Q180 -14 115 85 Q57 174 57 339 Q57 508 121 614 Q190 728 311 728 ZM309 411 Q233 411 183 358 Q131 307 131 228 Q131 149 177 96 Q227 39 308 39 Q387 39 435 93 Q483 147 483 229 Q483 311 436 361 Q389 411 309 411 Z" /><glyph glyph-name="seven" unicode="7" d="M70 714 L531 714 L531 663 L261 0 L194 0 L467 657 L70 657 L70 714 Z" /><glyph glyph-name="eight" unicode="8" d="M300 728 Q410 728 471 671 Q527 620 527 543 Q527 487 498 444 Q467 401 410 383 L410 379 Q468 367 510 316 Q552 265 552 195 Q552 103 488 45 Q421 -14 300 -14 Q179 -14 112 45 Q48 102 48 195 Q48 265 90 316 Q130 367 191 379 L191 383 Q133 401 102 444 Q73 485 73 543 Q73 621 129 671 Q189 728 300 728 ZM300 676 Q216 676 171 634 Q132 598 132 541 Q132 482 168 446 Q212 404 300 404 Q387 404 432 446 Q468 482 468 541 Q468 598 429 634 Q383 676 300 676 ZM300 354 Q206 354 156 307 Q108 265 108 195 Q108 124 155 83 Q206 37 300 37 Q394 37 446 83 Q492 126 492 195 Q492 265 444 307 Q394 354 300 354 Z" /><glyph glyph-name="nine" unicode="9" d="M291 728 Q421 728 485 630 Q544 539 544 375 Q544 210 480 100 Q411 -14 290 -14 Q99 -14 69 174 L130 174 Q154 39 291 39 Q381 39 434 130 Q484 218 484 351 L484 386 L480 386 Q455 325 402 287 Q350 251 282 251 Q180 251 118 317 Q57 381 57 485 Q57 590 123 659 Q189 728 291 728 ZM293 675 Q214 675 166 621 Q118 567 118 485 Q118 403 165 353 Q213 303 292 303 Q365 303 418 356 Q470 410 470 486 Q470 563 424 618 Q373 675 293 675 Z" /><glyph glyph-name="colon" unicode=":" d="M129 466 Q151 466 165 452 Q180 439 180 416 Q180 396 164 380 Q148 366 129 366 Q107 366 93 381 Q78 396 78 416 Q78 439 93 452 Q106 466 129 466 ZM129 100 Q151 100 165 86 Q180 73 180 50 Q180 30 164 14 Q148 0 129 0 Q107 0 93 15 Q78 30 78 50 Q78 73 93 86 Q106 100 129 100 Z" /><glyph glyph-name="semicolon" unicode=";" d="M129 466 Q151 466 165 452 Q180 439 180 416 Q180 396 164 380 Q148 366 129 366 Q107 366 93 381 Q78 396 78 416 Q78 439 93 452 Q106 466 129 466 ZM129 100 Q189 100 189 17 Q189 -101 89 -156 L68 -121 Q140 -73 144 1 L129 0 Q107 0 92 13 Q78 26 78 49 Q78 75 92 86 Q105 100 129 100 Z" /><glyph glyph-name="at" unicode="@" d="M437 728 Q591 728 682 636 Q768 550 768 417 Q768 311 701 224 Q636 144 562 144 Q501 144 496 213 Q440 142 364 142 Q302 142 266 183 Q229 224 229 287 Q229 405 299 485 Q365 564 454 564 Q528 564 552 485 L569 545 L619 545 L547 273 Q536 240 536 216 Q536 189 567 189 Q616 189 666 250 Q723 322 723 417 Q723 529 647 605 Q566 683 434 683 Q293 683 200 589 Q106 496 106 353 Q106 200 197 113 Q287 29 433 29 Q544 29 628 71 Q701 109 745 171 L800 171 Q747 84 652 36 Q554 -14 433 -14 Q263 -14 158 86 Q53 188 53 355 Q53 512 161 618 Q270 728 437 728 ZM461 515 Q391 515 339 451 Q283 385 283 286 Q283 241 305 216 Q328 188 367 188 Q410 188 452 224 Q491 257 503 299 L526 386 Q536 426 536 432 Q536 461 517 486 Q497 515 461 515 Z" /><glyph glyph-name="A" unicode="a" d="M286 714 L358 714 L644 0 L577 0 L494 213 L150 213 L67 0 L0 0 L286 714 ZM170 265 L474 265 L324 648 L321 648 L170 265 Z" /><glyph glyph-name="B" unicode="b" d="M73 714 L387 714 Q485 714 541 667 Q598 619 598 535 Q598 474 563 430 Q529 389 474 372 Q544 360 586 315 Q627 268 627 197 Q627 96 554 44 Q490 0 384 0 L73 0 L73 714 ZM134 661 L134 395 L374 395 Q450 395 493 429 Q537 464 537 529 Q537 595 494 629 Q452 661 375 661 L134 661 ZM134 343 L134 53 L382 53 Q461 53 510 85 Q566 124 566 198 Q566 271 514 308 Q466 343 381 343 L134 343 Z" /><glyph glyph-name="C" unicode="c" d="M381 728 Q495 728 575 666 Q658 603 672 498 L613 498 Q600 581 532 627 Q468 672 380 672 Q249 672 174 579 Q104 493 104 354 Q104 215 173 131 Q245 42 374 42 Q464 42 531 91 Q602 145 623 244 L682 244 Q659 120 570 50 Q486 -14 375 -14 Q215 -14 125 96 Q43 196 43 354 Q43 512 127 615 Q218 728 381 728 Z" /><glyph glyph-name="D" unicode="d" d="M73 714 L327 714 Q494 714 578 614 Q655 523 655 357 Q655 194 569 99 Q479 0 314 0 L73 0 L73 714 ZM134 660 L134 54 L305 54 Q448 54 523 135 Q595 213 595 357 Q595 507 532 580 Q464 660 318 660 L134 660 Z" /><glyph glyph-name="E" unicode="e" d="M73 714 L574 714 L574 660 L134 660 L134 397 L550 397 L550 342 L134 342 L134 54 L591 54 L591 0 L73 0 L73 714 Z" /><glyph glyph-name="F" unicode="f" d="M73 714 L546 714 L546 660 L134 660 L134 395 L525 395 L525 341 L134 341 L134 0 L73 0 L73 714 Z" /><glyph glyph-name="G" unicode="g" d="M375 728 Q507 728 586 661 Q659 598 679 483 L617 483 Q600 571 541 620 Q479 672 375 672 Q250 672 176 582 Q104 495 104 353 Q104 214 176 131 Q253 41 396 41 Q458 41 518 59 Q579 78 615 103 L615 306 L371 306 L371 360 L676 360 L676 74 Q624 33 553 10 Q475 -14 391 -14 Q223 -14 129 95 Q43 194 43 353 Q43 512 128 615 Q219 728 375 728 Z" /><glyph glyph-name="H" unicode="h" d="M73 714 L134 714 L134 397 L577 397 L577 714 L638 714 L638 0 L577 0 L577 342 L134 342 L134 0 L73 0 L73 714 Z" /><glyph glyph-name="I" unicode="i" d="M82 714 L143 714 L143 0 L82 0 L82 714 Z" /><glyph glyph-name="J" unicode="j" d="M371 714 L433 714 L433 227 Q433 114 387 53 Q334 -14 219 -14 Q122 -14 71 39 Q15 94 15 198 L15 225 L76 225 L76 199 Q76 42 220 42 Q301 42 337 89 Q371 135 371 228 L371 714 Z" /><glyph glyph-name="K" unicode="k" d="M550 714 L632 714 L304 409 L677 0 L593 0 L262 370 L134 251 L134 0 L73 0 L73 714 L134 714 L134 322 L550 714 Z" /><glyph glyph-name="L" unicode="l" d="M73 714 L134 714 L134 54 L563 54 L563 0 L73 0 L73 714 Z" /><glyph glyph-name="M" unicode="m" d="M73 714 L154 714 L434 77 L437 77 L715 714 L796 714 L796 0 L735 0 L735 613 L732 613 L464 0 L405 0 L138 613 L134 613 L134 0 L73 0 L73 714 Z" /><glyph glyph-name="N" unicode="n" d="M73 714 L142 714 L574 95 L577 95 L577 714 L639 714 L639 0 L571 0 L137 624 L134 624 L134 0 L73 0 L73 714 Z" /><glyph glyph-name="O" unicode="o" d="M382 728 Q539 728 632 620 Q719 518 719 357 Q719 195 632 93 Q539 -14 381 -14 Q222 -14 130 94 Q43 196 43 357 Q43 518 130 620 Q223 728 382 728 ZM382 672 Q251 672 176 582 Q104 495 104 357 Q104 216 175 132 Q250 42 381 42 Q511 42 586 131 Q658 217 658 357 Q658 499 586 583 Q512 672 382 672 Z" /><glyph glyph-name="P" unicode="p" d="M73 714 L363 714 Q601 714 601 509 Q601 303 362 303 L134 303 L134 0 L73 0 L73 714 ZM134 660 L134 357 L359 357 Q450 357 496 395 Q539 433 539 509 Q539 584 496 621 Q451 660 359 660 L134 660 Z" /><glyph glyph-name="R" unicode="r" d="M73 714 L375 714 Q482 714 541 664 Q602 612 602 518 Q602 457 568 409 Q532 361 467 346 L467 344 Q575 320 587 212 L597 105 Q603 38 632 0 L565 0 Q543 35 537 97 L528 195 Q522 261 479 290 Q440 317 370 317 L134 317 L134 0 L73 0 L73 714 ZM134 660 L134 371 L369 371 Q452 371 499 412 Q541 451 541 516 Q541 587 500 623 Q459 660 368 660 L134 660 Z" /><glyph glyph-name="S" unicode="s" d="M306 728 Q423 728 492 671 Q563 614 572 503 L511 503 Q499 586 448 630 Q398 673 304 673 Q218 673 168 643 Q112 611 112 542 Q112 483 179 447 Q215 430 316 401 Q455 361 500 333 Q589 280 589 183 Q589 91 512 37 Q439 -14 317 -14 Q194 -14 123 42 Q42 106 33 236 L93 236 Q104 135 163 86 Q218 42 316 42 Q409 42 469 79 Q527 117 527 180 Q527 253 454 294 Q414 317 297 349 Q169 385 133 406 Q51 452 51 540 Q51 633 128 682 Q196 728 306 728 Z" /><glyph glyph-name="T" unicode="t" d="M18 714 L603 714 L603 660 L341 660 L341 0 L280 0 L280 660 L18 660 L18 714 Z" /><glyph glyph-name="U" unicode="u" d="M73 714 L134 714 L134 276 Q134 160 184 103 Q238 41 351 41 Q464 41 518 103 Q568 162 568 276 L568 714 L629 714 L629 276 Q629 138 562 63 Q491 -14 351 -14 Q211 -14 141 62 Q73 136 73 276 L73 714 Z" /><glyph glyph-name="V" unicode="v" d="M5 714 L73 714 L312 65 L315 65 L554 714 L622 714 L353 0 L275 0 L5 714 Z" /><glyph glyph-name="W" unicode="w" d="M5 714 L74 714 L245 82 L248 82 L423 714 L494 714 L669 82 L672 82 L843 714 L912 714 L707 0 L635 0 L460 628 L457 628 L282 0 L210 0 L5 714 Z" /><glyph glyph-name="X" unicode="x" d="M26 714 L102 714 L310 421 L519 714 L595 714 L347 371 L616 0 L539 0 L310 323 L81 0 L5 0 L273 371 L26 714 Z" /><glyph glyph-name="Y" unicode="y" d="M5 714 L80 714 L323 351 L565 714 L640 714 L353 294 L353 0 L292 0 L292 294 L5 714 Z" /><glyph glyph-name="Z" unicode="z" d="M55 714 L566 714 L566 661 L104 54 L590 54 L590 0 L25 0 L25 53 L488 660 L55 660 L55 714 Z" /><glyph glyph-name="underscore" unicode="_" d="M0 -88 L500 -88 L500 -140 L0 -140 L0 -88 Z" /><glyph glyph-name="a" unicode="a" d="M282 531 Q391 531 443 472 Q489 421 489 333 L489 0 L432 0 L432 99 Q400 53 348 22 Q287 -14 213 -14 Q137 -14 90 25 Q43 65 43 132 Q43 231 124 276 Q189 313 297 313 L429 314 L429 333 Q429 480 279 480 Q210 480 171 451 Q127 422 118 361 L59 361 Q71 448 132 491 Q188 531 282 531 ZM429 265 L300 264 Q104 263 104 133 Q104 90 137 63 Q169 36 225 36 Q306 36 369 90 Q429 143 429 205 L429 265 Z" /><glyph glyph-name="b" unicode="b" d="M63 728 L123 728 L123 408 Q180 531 304 531 Q414 531 476 448 Q533 373 533 259 Q533 143 476 68 Q412 -14 302 -14 Q173 -14 120 102 L120 0 L63 0 L63 728 ZM293 480 Q213 480 167 418 Q121 359 121 263 L121 251 Q121 159 164 101 Q210 37 295 37 Q382 37 430 103 Q472 162 472 259 Q472 356 429 414 Q381 480 293 480 Z" /><glyph glyph-name="c" unicode="c" d="M281 531 Q374 531 432 486 Q491 441 503 348 L443 348 Q433 413 391 446 Q349 479 281 479 Q199 479 151 416 Q104 357 104 255 Q104 156 149 97 Q194 38 280 38 Q424 38 446 185 L505 185 Q490 87 431 36 Q373 -14 280 -14 Q165 -14 102 64 Q43 135 43 255 Q43 373 104 449 Q168 531 281 531 Z" /><glyph glyph-name="d" unicode="d" d="M453 728 L513 728 L513 0 L456 0 L456 102 Q402 -14 275 -14 Q164 -14 100 68 Q43 143 43 259 Q43 373 100 448 Q162 531 272 531 Q396 531 453 408 L453 728 ZM283 480 Q195 480 147 414 Q104 358 104 259 Q104 162 146 103 Q193 37 281 37 Q365 37 412 101 Q455 161 455 251 L455 263 Q455 357 409 418 Q362 480 283 480 Z" /><glyph glyph-name="e" unicode="e" d="M272 531 Q395 531 456 448 Q511 374 515 241 L95 241 Q100 146 146 92 Q194 38 274 38 Q343 38 388 75 Q424 106 443 166 L504 166 Q486 91 435 43 Q372 -14 274 -14 Q165 -14 100 60 Q33 134 33 259 Q33 373 97 450 Q163 531 272 531 ZM273 479 Q196 479 150 426 Q103 373 96 290 L452 290 Q437 479 273 479 Z" /><glyph glyph-name="f" unicode="f" d="M365 714 L365 661 L278 661 Q238 661 221 641 Q203 622 203 577 L203 517 L358 517 L358 465 L203 465 L203 0 L143 0 L143 465 L5 465 L5 517 L143 517 L143 578 Q143 644 175 677 Q208 714 273 714 L365 714 Z" /><glyph glyph-name="g" unicode="g" d="M276 531 Q404 531 461 413 L461 517 L521 517 L521 38 Q521 -212 289 -212 Q188 -212 132 -168 Q79 -126 66 -44 L126 -44 Q137 -102 174 -130 Q214 -162 289 -162 Q461 -162 461 31 L461 130 Q404 12 276 12 Q168 12 103 89 Q43 161 43 271 Q43 381 103 453 Q168 531 276 531 ZM283 480 Q197 480 150 418 Q104 362 104 271 Q104 183 147 127 Q194 64 282 64 Q368 64 416 124 Q461 181 461 271 Q461 361 416 418 Q369 480 283 480 Z" /><glyph glyph-name="h" unicode="h" d="M63 728 L124 728 L124 423 Q151 476 196 504 Q240 531 294 531 Q383 531 432 479 Q482 426 482 330 L482 0 L422 0 L422 322 Q422 396 384 439 Q345 479 277 479 Q213 479 168 427 Q124 377 124 299 L124 0 L63 0 L63 728 Z" /><glyph glyph-name="i" unicode="i" d="M123 703 Q144 703 159 688 Q174 676 174 653 Q174 633 158 617 Q142 603 123 603 Q101 603 87 617 Q72 632 72 653 Q72 676 87 688 Q101 703 123 703 ZM93 517 L153 517 L153 0 L93 0 L93 517 Z" /><glyph glyph-name="j" unicode="j" d="M138 703 Q160 703 175 688 Q189 676 189 653 Q189 633 175 617 Q159 603 138 603 Q118 603 102 617 Q87 632 87 653 Q87 676 102 688 Q117 703 138 703 ZM108 517 L168 517 L168 -67 Q168 -198 33 -198 L-15 -198 L-15 -146 L29 -146 Q108 -146 108 -65 L108 517 Z" /><glyph glyph-name="k" unicode="k" d="M63 728 L123 728 L123 256 L410 517 L492 517 L265 312 L515 0 L436 0 L222 273 L123 183 L123 0 L63 0 L63 728 Z" /><glyph glyph-name="l" unicode="l" d="M82 728 L142 728 L142 0 L82 0 L82 728 Z" /><glyph glyph-name="m" unicode="m" d="M273 531 Q396 531 435 425 Q462 477 504 504 Q543 531 598 531 Q680 531 728 480 Q775 428 775 338 L775 0 L715 0 L715 330 Q715 404 685 440 Q652 479 582 479 Q525 479 488 436 Q450 395 450 329 L450 0 L389 0 L389 330 Q389 479 260 479 Q201 479 163 432 Q123 386 123 318 L123 0 L63 0 L63 517 L123 517 L123 439 Q178 531 273 531 Z" /><glyph glyph-name="n" unicode="n" d="M291 531 Q483 531 483 318 L483 0 L423 0 L423 314 Q423 479 276 479 Q214 479 172 434 Q128 390 123 312 L123 0 L63 0 L63 517 L123 517 L123 432 Q150 478 193 505 Q235 531 291 531 Z" /><glyph glyph-name="o" unicode="o" d="M289 531 Q403 531 472 449 Q535 373 535 258 Q535 145 472 68 Q402 -14 289 -14 Q176 -14 106 68 Q43 145 43 258 Q43 373 107 449 Q174 531 289 531 ZM289 479 Q200 479 150 411 Q104 352 104 258 Q104 165 150 106 Q201 38 289 38 Q378 38 429 106 Q475 169 475 258 Q475 350 429 411 Q379 479 289 479 Z" /><glyph glyph-name="p" unicode="p" d="M302 531 Q412 531 476 448 Q533 373 533 257 Q533 144 477 68 Q413 -14 304 -14 Q180 -14 123 108 L123 -198 L63 -198 L63 517 L120 517 L120 415 Q177 531 302 531 ZM295 480 Q211 480 164 414 Q121 356 121 261 L121 250 Q121 156 167 97 Q214 37 293 37 Q380 37 429 101 Q471 160 471 257 Q471 354 430 413 Q382 480 295 480 Z" /><glyph glyph-name="q" unicode="q" d="M275 531 Q399 531 456 415 L456 517 L513 517 L513 -198 L453 -198 L453 108 Q396 -14 272 -14 Q161 -14 100 68 Q43 143 43 257 Q43 374 101 448 Q163 531 275 531 ZM281 480 Q192 480 146 413 Q105 356 105 257 Q105 159 148 101 Q194 37 283 37 Q363 37 409 97 Q455 158 455 250 L455 261 Q455 354 412 414 Q364 480 281 480 Z" /><glyph glyph-name="r" unicode="r" d="M280 531 Q328 531 355 520 L355 459 Q318 470 276 470 Q205 470 164 408 Q123 352 123 273 L123 0 L63 0 L63 517 L123 517 L123 418 Q144 467 180 495 Q222 531 280 531 Z" /><glyph glyph-name="s" unicode="s" d="M239 531 Q423 531 445 372 L386 372 Q376 426 343 451 Q308 479 238 479 Q180 479 145 456 Q109 432 109 394 Q109 355 155 331 Q186 316 264 295 Q359 271 398 247 Q460 209 460 143 Q460 -14 250 -14 Q51 -14 33 163 L92 163 Q101 95 140 65 Q176 38 248 38 Q398 38 398 140 Q398 187 347 212 Q319 226 232 248 Q141 272 106 294 Q47 329 47 393 Q47 456 103 494 Q156 531 239 531 Z" /><glyph glyph-name="t" unicode="t" d="M188 684 L188 517 L323 517 L323 465 L188 465 L188 115 Q188 81 200 66 Q212 52 245 52 L310 52 L310 0 L237 0 Q177 0 151 31 Q128 57 128 115 L128 465 L18 465 L18 517 L128 517 L128 659 L188 684 Z" /><glyph glyph-name="u" unicode="u" d="M63 517 L123 517 L123 201 Q123 120 157 80 Q193 38 268 38 Q327 38 373 84 Q418 129 424 203 L424 517 L484 517 L484 0 L424 0 L424 87 Q364 -14 252 -14 Q63 -14 63 198 L63 517 Z" /><glyph glyph-name="v" unicode="v" d="M5 517 L71 517 L234 76 L396 517 L463 517 L265 0 L203 0 L5 517 Z" /><glyph glyph-name="w" unicode="w" d="M5 517 L72 517 L212 77 L342 517 L400 517 L530 77 L671 517 L737 517 L560 0 L502 0 L372 439 L240 0 L183 0 L5 517 Z" /><glyph glyph-name="x" unicode="x" d="M27 517 L99 517 L247 318 L395 517 L466 517 L281 273 L488 0 L416 0 L247 228 L77 0 L5 0 L213 273 L27 517 Z" /><glyph glyph-name="y" unicode="y" d="M5 517 L71 517 L240 86 L407 517 L473 517 L188 -198 L123 -198 L210 13 L5 517 Z" /><glyph glyph-name="z" unicode="z" d="M35 517 L436 517 L436 471 L102 52 L452 52 L452 0 L25 0 L25 47 L358 465 L35 465 L35 517 Z" /><glyph glyph-name="quotedblleft" unicode="&#x201c;" d="M413 802 Q340 755 336 679 Q340 681 351 681 Q374 681 388 668 Q402 654 402 632 Q402 610 389 594 Q373 581 352 581 Q291 581 291 663 Q291 783 391 837 L413 802 ZM242 802 Q169 755 165 679 Q169 681 180 681 Q203 681 217 668 Q231 654 231 632 Q231 610 218 594 Q202 581 181 581 Q120 581 120 663 Q120 783 220 837 L242 802 Z" /><glyph glyph-name="quotedblright" unicode="&#x201d;" d="M312 837 Q373 837 373 755 Q373 636 273 581 L251 616 Q322 663 328 739 Q320 737 313 737 Q290 737 276 751 Q262 764 262 786 Q262 811 275 823 Q288 837 312 837 ZM141 837 Q202 837 202 755 Q202 636 102 581 L80 616 Q151 664 156 739 Q148 737 142 737 Q119 737 105 751 Q90 765 90 786 Q90 812 104 823 Q117 837 141 837 Z" /><glyph glyph-name="trademark" unicode="&#x2122;" d="M402 728 L467 728 L617 390 L619 390 L769 728 L834 728 L834 328 L784 328 L784 648 L781 648 L641 328 L595 328 L455 648 L451 648 L451 328 L402 328 L402 728 ZM23 728 L360 728 L360 682 L216 682 L216 328 L166 328 L166 682 L23 682 L23 728 Z" /><glyph glyph-name="uni3001" unicode="&#x3001;" d="M172 133 Q222 99 283 36 Q335 -18 367 -64 L328 -97 Q295 -51 245 2 Q186 64 137 100 L172 133 Z" /><glyph glyph-name="uni3002" unicode="&#x3002;" d="M250 136 Q301 136 338 102 Q374 68 374 16 Q374 -34 338 -70 Q299 -104 250 -104 Q199 -104 162 -70 Q126 -35 126 16 Q126 69 162 102 Q197 136 250 136 ZM250 94 Q215 94 193 71 Q169 50 169 16 Q169 -16 193 -39 Q216 -62 250 -62 Q282 -62 307 -39 Q331 -16 331 16 Q331 49 307 71 Q284 94 250 94 Z" /><glyph glyph-name="uniFF08" unicode="&#xff08;" d="M920 827 Q859 727 825 619 Q782 489 782 360 Q782 231 825 101 Q859 -6 920 -107 L865 -107 Q802 -12 766 99 Q723 229 723 360 Q723 491 766 620 Q802 731 865 827 L920 827 Z" /><glyph glyph-name="uniFF09" unicode="&#xff09;" d="M135 827 Q197 731 234 620 Q277 486 277 360 Q277 234 234 99 Q196 -12 135 -107 L80 -107 Q138 -11 175 101 Q218 236 218 360 Q218 484 175 619 Q138 732 80 827 L135 827 Z" /><glyph glyph-name="uniFF0C" unicode="&#xff0c;" d="M179 100 Q239 100 239 17 Q239 -101 139 -156 L118 -121 Q190 -73 194 1 L179 0 Q157 0 142 13 Q128 26 128 49 Q128 75 142 86 Q155 100 179 100 Z" /><glyph glyph-name="uniFF1A" unicode="&#xff1a;" d="M250 597 Q273 597 287 583 Q301 569 301 547 Q301 526 287 512 Q272 497 250 497 Q229 497 214 512 Q199 527 199 547 Q199 570 214 583 Q228 597 250 597 ZM250 231 Q273 231 287 217 Q301 203 301 181 Q301 160 287 146 Q272 131 250 131 Q229 131 214 146 Q199 161 199 181 Q199 204 214 217 Q228 231 250 231 Z" /><glyph glyph-name="uniFF1B" unicode="&#xff1b;" d="M250 597 Q273 597 287 583 Q301 569 301 547 Q301 526 287 512 Q272 497 250 497 Q229 497 214 512 Q199 527 199 547 Q199 570 214 583 Q228 597 250 597 ZM250 231 Q311 231 311 149 Q311 30 211 -25 L189 10 Q260 58 265 133 Q257 131 251 131 Q229 131 214 144 Q199 159 199 180 Q199 205 213 218 Q227 231 250 231 Z" /><glyph glyph-name="uni2F00" unicode="&#x2f00;&#x4e00;" d="M52 394 L947 394 L947 340 L52 340 L52 394 Z" /><glyph glyph-name="uni4E09" unicode="&#x4e09;" d="M115 733 L887 733 L887 680 L115 680 L115 733 ZM189 386 L812 386 L812 332 L189 332 L189 386 ZM53 13 L947 13 L947 -41 L53 -41 L53 13 Z" /><glyph glyph-name="uni4E0A" unicode="&#x4e0a;" d="M425 815 L481 815 L481 499 L851 499 L851 447 L481 447 L481 -1 L944 -1 L944 -54 L59 -54 L59 -1 L425 -1 L425 815 Z" /><glyph glyph-name="uni4E0B" unicode="&#x4e0b;" d="M58 756 L941 756 L941 703 L500 703 L500 536 Q689 439 884 311 L852 263 Q645 403 500 480 L500 -100 L447 -100 L447 703 L58 703 L58 756 Z" /><glyph glyph-name="uni4E0E" unicode="&#x4e0e;" d="M306 628 L288 452 L846 452 Q846 41 803 -25 Q758 -88 617 -88 Q551 -88 479 -85 L464 -36 L605 -40 Q739 -40 764 23 Q792 91 792 401 L226 401 L272 819 L326 815 L312 680 L884 680 L884 628 L306 628 ZM61 219 L679 219 L679 167 L61 167 L61 219 Z" /><glyph glyph-name="uni4E13" unicode="&#x4e13;" d="M53 502 L342 502 Q355 549 379 643 L122 643 L122 694 L391 694 Q409 778 417 820 L471 815 Q460 755 447 694 L887 694 L887 643 L435 643 Q410 537 400 502 L947 502 L947 450 L385 450 Q364 377 335 302 L823 302 L823 254 Q747 133 587 17 Q685 -20 773 -64 L743 -110 Q514 4 273 70 L302 113 Q415 82 530 39 Q677 140 760 251 L259 251 Q298 356 327 450 L53 450 L53 502 Z" /><glyph glyph-name="uni4E14" unicode="&#x4e14;" d="M272 467 L272 258 L731 258 L731 467 L272 467 ZM731 518 L731 719 L272 719 L272 518 L731 518 ZM272 206 L272 -10 L731 -10 L731 206 L272 206 ZM59 -10 L216 -10 L216 771 L785 771 L785 -10 L942 -10 L942 -63 L59 -63 L59 -10 Z" /><glyph glyph-name="uni4E1A" unicode="&#x4e1a;" d="M365 803 L418 803 L418 2 L580 2 L580 803 L633 803 L633 2 L940 2 L940 -51 L60 -51 L60 2 L365 2 L365 803 ZM909 611 Q849 347 755 150 L706 168 Q795 350 861 624 L909 611 ZM134 627 Q212 425 276 156 L226 144 Q173 380 87 611 L134 627 Z" /><glyph glyph-name="uni4E1C" unicode="&#x4e1c;" d="M82 688 L331 688 Q367 767 389 826 L444 814 Q419 748 390 688 L909 688 L909 634 L364 634 Q287 481 195 370 L494 370 L494 526 L547 526 L547 370 L869 370 L869 321 L547 321 L547 -10 Q547 -95 462 -95 L358 -95 L347 -43 Q413 -47 443 -47 Q494 -47 494 3 L494 321 L138 321 L125 367 Q223 472 305 634 L82 634 L82 688 ZM333 196 Q232 57 84 -46 L51 -2 Q196 97 295 230 L333 196 ZM713 230 Q853 107 945 -12 L906 -51 Q824 63 677 195 L713 230 Z" /><glyph glyph-name="uni4E2A" unicode="&#x4e2a;" d="M473 521 L527 521 L527 -97 L473 -97 L473 521 ZM525 814 Q651 603 961 442 L929 394 Q641 542 500 762 Q330 521 71 388 L39 437 Q322 582 475 814 L525 814 Z" /><glyph glyph-name="uni4E2D" unicode="&#x4e2d;" d="M472 819 L528 819 L528 634 L890 634 L890 174 L835 174 L835 241 L528 241 L528 -105 L472 -105 L472 241 L166 241 L166 174 L111 174 L111 634 L472 634 L472 819 ZM166 294 L472 294 L472 580 L166 580 L166 294 ZM528 294 L835 294 L835 580 L528 580 L528 294 Z" /><glyph glyph-name="uni4E3A" unicode="&#x4e3a;" d="M177 788 Q268 693 313 626 L269 597 Q215 675 135 758 L177 788 ZM522 366 Q637 241 694 153 L647 121 Q585 220 478 338 L522 366 ZM420 815 L473 815 L473 712 Q471 626 466 563 L881 563 Q881 142 843 26 Q804 -89 705 -89 Q634 -89 586 -86 L571 -33 Q643 -39 702 -39 Q797 -32 812 138 Q826 315 826 509 L461 509 Q437 320 377 191 Q289 10 84 -94 L54 -46 Q255 56 339 236 Q388 353 407 509 L88 509 L88 563 L413 563 Q418 628 420 712 L420 815 Z" /><glyph glyph-name="uni4E3B" unicode="&#x4e3b;" d="M473 585 L94 585 L94 638 L907 638 L907 585 L528 585 L528 328 L858 328 L858 276 L528 276 L528 -10 L941 -10 L941 -63 L60 -63 L60 -10 L473 -10 L473 276 L142 276 L142 328 L473 328 L473 585 ZM472 816 Q513 722 530 664 L481 646 Q455 727 418 801 L472 816 Z" /><glyph glyph-name="uni4E3E" unicode="&#x4e3e;" d="M221 804 Q274 722 319 625 L273 601 Q226 705 177 783 L221 804 ZM455 817 Q505 732 547 640 L501 616 Q456 721 410 795 L455 817 ZM76 522 L76 575 L647 575 Q721 688 774 822 L825 803 Q767 667 702 575 L924 575 L924 522 L693 522 Q773 382 960 301 L936 251 Q726 353 640 522 L353 522 Q283 368 72 255 L41 303 Q238 399 302 522 L76 522 ZM237 342 L473 342 L473 459 L527 459 L527 342 L764 342 L764 288 L527 288 L527 148 L895 148 L895 95 L527 95 L527 -97 L473 -97 L473 95 L105 95 L105 148 L473 148 L473 288 L237 288 L237 342 Z" /><glyph glyph-name="uni4E4B" unicode="&#x4e4b;" d="M446 818 Q494 741 540 635 L855 635 L855 593 Q678 261 333 82 Q341 74 345 69 Q409 -12 521 -21 Q590 -24 720 -24 Q799 -24 940 -21 L927 -75 L729 -75 Q617 -75 541 -73 Q382 -70 297 48 Q270 81 249 81 Q202 81 115 -94 L70 -64 Q166 136 251 136 Q271 136 284 126 L293 120 Q620 286 788 581 L128 581 L128 635 L482 635 Q441 727 385 808 L446 818 Z" /><glyph glyph-name="uni4E66" unicode="&#x4e66;" d="M417 819 L471 819 L471 638 L765 638 L765 612 L743 369 L887 369 Q887 89 842 41 Q821 19 783 10 Q753 5 724 4 L658 4 L643 55 L733 55 Q784 56 805 81 Q829 112 834 316 L471 316 L471 -99 L417 -99 L417 316 L54 316 L54 369 L417 369 L417 585 L112 585 L112 638 L417 638 L417 819 ZM471 369 L691 369 L711 585 L471 585 L471 369 ZM727 813 Q841 754 933 669 L903 625 Q804 718 699 772 L727 813 Z" /><glyph glyph-name="uni4E88" unicode="&#x4e88;" d="M338 646 Q440 581 515 522 Q633 607 722 716 L180 716 L180 768 L792 768 L792 724 Q687 588 555 488 L592 456 L906 456 L906 409 Q830 289 728 199 L685 236 Q770 306 845 405 L536 405 L536 -10 Q536 -93 454 -93 L311 -93 L299 -41 Q395 -45 435 -45 Q482 -45 482 4 L482 405 L85 405 L85 456 L517 456 Q432 529 301 610 L338 646 Z" /><glyph glyph-name="uni4E89" unicode="&#x4e89;" d="M807 143 L511 143 L511 -6 Q511 -90 426 -90 L277 -90 L265 -38 Q363 -42 407 -42 Q458 -42 458 8 L458 143 L184 143 L184 194 L458 194 L458 325 L62 325 L62 377 L458 377 L458 504 L201 504 L201 556 L488 556 Q565 605 643 673 L300 673 Q221 581 113 507 L79 547 Q242 655 338 818 L392 805 Q371 769 339 723 L718 723 L718 681 Q644 607 570 556 L807 556 L807 377 L941 377 L941 325 L807 325 L807 143 ZM511 504 L511 377 L753 377 L753 504 L511 504 ZM511 325 L511 194 L753 194 L753 325 L511 325 Z" /><glyph glyph-name="uni4E8B" unicode="&#x4e8b;" d="M177 632 L473 632 L473 704 L74 704 L74 752 L473 752 L473 817 L527 817 L527 752 L926 752 L926 704 L527 704 L527 632 L823 632 L823 447 L527 447 L527 374 L837 374 L837 237 L954 237 L954 192 L837 192 L837 60 L527 60 L527 -17 Q527 -93 447 -93 L324 -93 L313 -42 Q393 -46 428 -46 Q473 -46 473 -4 L473 60 L136 60 L136 105 L473 105 L473 192 L46 192 L46 237 L473 237 L473 330 L137 330 L137 374 L473 374 L473 447 L177 447 L177 632 ZM769 489 L769 589 L527 589 L527 489 L769 489 ZM473 489 L473 589 L231 589 L231 489 L473 489 ZM527 330 L527 237 L786 237 L786 330 L527 330 ZM786 192 L527 192 L527 105 L786 105 L786 192 Z" /><glyph glyph-name="uni2F06" unicode="&#x2f06;&#x4e8c;" d="M148 696 L852 696 L852 643 L148 643 L148 696 ZM56 67 L943 67 L943 14 L56 14 L56 67 Z" /><glyph glyph-name="uni4E8E" unicode="&#x4e8e;" d="M123 771 L870 771 L870 718 L536 718 L536 425 L939 425 L939 371 L536 371 L536 4 Q536 -88 442 -88 L289 -88 L277 -35 Q379 -39 424 -39 Q482 -39 482 18 L482 371 L61 371 L61 425 L482 425 L482 718 L123 718 L123 771 Z" /><glyph glyph-name="uni4E91" unicode="&#x4e91;" d="M152 752 L858 752 L858 699 L152 699 L152 752 ZM55 470 L948 470 L948 416 L463 416 Q315 112 209 3 Q497 20 785 54 Q729 156 654 269 L698 296 Q838 86 913 -71 L866 -105 Q843 -54 812 4 Q487 -34 139 -54 L125 -1 Q131 1 139 5 Q240 81 404 416 L55 416 L55 470 Z" /><glyph glyph-name="uni4E92" unicode="&#x4e92;" d="M76 767 L922 767 L922 713 L389 713 L344 531 L780 531 L697 -8 L949 -8 L949 -61 L60 -61 L60 -8 L645 -8 L676 188 L207 188 L334 713 L76 713 L76 767 ZM684 239 L723 480 L332 480 L273 239 L684 239 Z" /><glyph glyph-name="uni4EA4" unicode="&#x4ea4;" d="M61 689 L485 689 Q458 756 423 811 L482 821 Q514 767 543 689 L940 689 L940 638 L61 638 L61 689 ZM653 594 Q821 459 932 326 L892 287 Q793 411 615 558 L653 594 ZM727 387 Q652 244 544 143 Q708 19 949 -44 L917 -94 Q669 -25 503 106 Q335 -35 89 -98 L56 -50 Q301 13 461 141 Q345 243 274 374 L321 401 Q388 275 502 177 Q611 277 677 409 L727 387 ZM381 558 Q268 411 99 299 L64 344 Q229 450 341 594 L381 558 Z" /><glyph glyph-name="uni4EA7" unicode="&#x4ea7;" d="M495 828 Q521 777 544 707 L899 707 L899 655 L722 655 Q703 564 667 486 L920 486 L920 433 L196 433 L196 276 Q190 44 85 -97 L45 -60 Q137 62 141 276 L141 486 L347 486 L301 655 L114 655 L114 707 L490 707 Q467 768 439 819 L495 828 ZM402 486 L615 486 Q654 567 669 655 L355 655 L402 486 Z" /><glyph glyph-name="uni4EAB" unicode="&#x4eab;" d="M208 600 L793 600 L793 410 L208 410 L208 600 ZM740 457 L740 552 L261 552 L261 457 L740 457 ZM479 817 Q503 779 528 724 L932 724 L932 672 L69 672 L69 724 L469 724 Q443 772 418 806 L479 817 ZM47 141 L490 141 L490 189 Q602 232 729 286 L143 286 L143 335 L837 335 L837 296 Q704 231 543 171 L543 141 L953 141 L953 91 L543 91 L543 -16 Q543 -97 465 -97 L323 -97 L308 -48 Q394 -51 443 -51 Q490 -51 490 -1 L490 91 L47 91 L47 141 Z" /><glyph glyph-name="uni4EAC" unicode="&#x4eac;" d="M191 537 L810 537 L810 273 L531 273 L531 -6 Q531 -89 448 -89 L341 -89 L329 -37 Q399 -41 429 -41 Q477 -41 477 8 L477 273 L191 273 L191 537 ZM756 326 L756 484 L245 484 L245 326 L756 326 ZM477 820 Q500 773 526 701 L941 701 L941 650 L59 650 L59 701 L471 701 Q451 757 422 811 L477 820 ZM708 196 Q846 84 943 -34 L903 -74 Q815 40 672 161 L708 196 ZM331 161 Q234 27 89 -76 L55 -31 Q195 64 292 196 L331 161 Z" /><glyph glyph-name="uni2F08" unicode="&#x2f08;&#x4eba;" d="M528 813 Q528 701 521 594 Q605 178 960 -42 L924 -88 Q601 121 502 475 Q419 134 72 -89 L39 -41 Q457 220 472 651 L473 813 L528 813 Z" /><glyph glyph-name="uni4ECE" unicode="&#x4ece;" d="M319 808 Q319 572 295 398 Q414 273 496 144 L455 103 Q386 219 285 336 Q284 335 284 332 Q236 75 72 -88 L34 -43 Q179 104 227 328 Q262 516 264 808 L319 808 ZM709 809 Q709 660 698 525 Q773 168 961 -40 L922 -85 Q760 106 682 392 L671 329 Q622 70 450 -94 L413 -49 Q565 99 616 326 Q654 521 654 809 L709 809 Z" /><glyph glyph-name="uni4ED3" unicode="&#x4ed3;" d="M519 812 Q707 580 955 446 L928 398 Q676 538 500 762 Q337 550 68 395 L42 443 Q305 591 481 812 L519 812 ZM684 400 L312 400 L312 32 Q312 -30 381 -30 L693 -30 Q776 -30 798 1 Q821 37 831 139 L881 122 Q867 -20 830 -53 Q796 -81 704 -81 L363 -81 Q257 -81 257 16 L257 450 L738 450 L738 224 Q738 136 659 133 Q607 133 513 137 L498 188 Q598 184 641 184 Q684 184 684 238 L684 400 Z" /><glyph glyph-name="uni4ED9" unicode="&#x4ed9;" d="M331 801 Q288 676 228 573 L228 -100 L174 -100 L174 489 Q123 417 52 343 L34 400 Q207 589 281 824 L331 801 ZM621 811 L674 811 L674 21 L855 21 L855 629 L910 629 L910 -93 L855 -93 L855 -32 L433 -32 L433 -93 L379 -93 L379 628 L433 628 L433 21 L621 21 L621 811 Z" /><glyph glyph-name="uni4EE5" unicode="&#x4ee5;" d="M367 703 Q502 552 581 429 L536 397 Q457 525 321 674 L367 703 ZM721 232 Q625 40 402 -91 L365 -46 Q617 98 701 324 Q764 516 764 805 L820 805 Q820 524 760 329 Q750 299 744 285 Q867 127 956 -39 L915 -80 Q838 73 721 232 ZM117 68 Q141 83 141 112 L141 771 L197 771 L197 97 Q322 146 440 218 L456 164 Q308 79 134 17 L117 68 Z" /><glyph glyph-name="uni4EF6" unicode="&#x4ef6;" d="M322 796 Q280 671 222 569 L222 -99 L169 -99 L169 484 Q115 407 51 339 L33 396 Q199 585 272 820 L322 796 ZM492 751 Q478 673 456 599 L624 599 L624 813 L678 813 L678 599 L915 599 L915 545 L678 545 L678 286 L952 286 L952 233 L678 233 L678 -94 L624 -94 L624 233 L321 233 L321 286 L624 286 L624 545 L438 545 Q398 443 344 366 L310 410 Q404 552 439 757 L492 751 Z" /><glyph glyph-name="uni4EF7" unicode="&#x4ef7;" d="M177 498 Q120 413 58 345 L41 402 Q195 584 262 812 L312 789 Q279 683 231 592 L231 -97 L177 -97 L177 498 ZM720 466 L773 466 L773 -88 L720 -88 L720 466 ZM458 463 L511 463 L511 311 Q508 32 362 -99 L321 -63 Q455 53 458 311 L458 463 ZM634 811 Q729 607 962 450 L932 404 Q717 546 610 757 Q488 522 301 392 L271 438 Q475 582 587 811 L634 811 Z" /><glyph glyph-name="uni4EFB" unicode="&#x4efb;" d="M904 732 Q796 696 654 678 L654 382 L952 382 L952 328 L654 328 L654 5 L902 5 L902 -49 L354 -49 L354 5 L600 5 L600 328 L304 328 L304 382 L600 382 L600 672 Q497 663 379 663 L361 713 Q674 714 877 778 L904 732 ZM330 788 Q287 668 228 568 L228 -100 L174 -100 L174 486 Q118 412 56 348 L38 404 Q204 582 280 811 L330 788 Z" /><glyph glyph-name="uni4F01" unicode="&#x4f01;" d="M520 811 Q711 598 961 475 L932 423 Q679 554 500 762 Q333 565 64 422 L36 474 Q301 608 480 811 L520 811 ZM502 550 L555 550 L555 317 L836 317 L836 264 L555 264 L555 -2 L908 -2 L908 -55 L80 -55 L80 -2 L237 -2 L237 406 L290 406 L290 -2 L502 -2 L502 550 Z" /><glyph glyph-name="uni4F1A" unicode="&#x4f1a;" d="M520 814 Q711 596 961 470 L932 418 Q677 554 500 765 Q335 564 64 417 L36 469 Q303 607 480 814 L520 814 ZM259 502 L744 502 L744 450 L259 450 L259 502 ZM102 301 L900 301 L900 247 L425 247 Q349 96 237 -22 Q511 -7 743 27 Q679 113 621 178 L663 204 Q801 48 872 -66 L828 -98 Q801 -53 771 -12 Q549 -49 173 -74 L158 -26 Q177 -20 186 -11 Q297 113 365 247 L102 247 L102 301 Z" /><glyph glyph-name="uni4F20" unicode="&#x4f20;" d="M176 484 Q125 410 57 339 L39 396 Q206 583 279 815 L329 792 Q290 674 230 570 L230 -100 L176 -100 L176 484 ZM353 680 L551 680 Q562 725 582 815 L635 810 Q622 750 605 680 L917 680 L917 628 L591 628 Q571 553 552 494 L958 494 L958 443 L535 443 Q512 376 479 300 L899 300 L899 252 Q832 142 687 30 Q773 -17 833 -59 L803 -106 Q621 21 426 95 L455 139 Q550 101 639 55 Q768 147 842 249 L409 249 Q452 351 482 443 L309 443 L309 494 L498 494 Q524 577 538 628 L353 628 L353 680 Z" /><glyph glyph-name="uni4F3D" unicode="&#x4f3d;" d="M164 496 Q117 420 57 349 L40 407 Q183 589 246 817 L295 794 Q261 681 215 589 L215 -95 L164 -95 L164 496 ZM601 637 Q601 172 587 57 Q573 -88 463 -88 Q446 -88 404 -85 L391 -38 Q443 -40 458 -40 Q526 -40 538 74 Q547 163 550 585 L434 585 L434 545 Q431 106 294 -99 L253 -63 Q380 127 383 545 L383 585 L284 585 L284 637 L383 637 L383 816 L434 816 L434 637 L601 637 ZM913 665 L913 -71 L863 -71 L863 -9 L726 -9 L726 -71 L676 -71 L676 665 L913 665 ZM726 40 L863 40 L863 616 L726 616 L726 40 Z" /><glyph glyph-name="uni4F4D" unicode="&#x4f4d;" d="M328 796 Q289 680 230 575 L230 -100 L176 -100 L176 489 Q121 410 57 344 L39 401 Q207 588 278 820 L328 796 ZM333 647 L612 647 Q587 736 560 804 L617 813 Q642 743 665 647 L931 647 L931 596 L333 596 L333 647 ZM317 8 L663 8 Q742 215 800 521 L852 508 Q797 218 718 8 L957 8 L957 -45 L317 -45 L317 8 ZM445 510 Q504 315 551 58 L501 45 Q459 281 395 494 L445 510 Z" /><glyph glyph-name="uni4F53" unicode="&#x4f53;" d="M170 466 Q122 393 58 319 L41 372 Q202 569 274 818 L323 795 Q282 664 223 555 L223 -99 L170 -99 L170 466 ZM310 635 L585 635 L585 816 L638 816 L638 635 L918 635 L918 583 L698 583 Q770 324 957 122 L922 79 Q729 304 657 583 L638 583 L638 166 L804 166 L804 114 L638 114 L638 -98 L585 -98 L585 114 L422 114 L422 166 L585 166 L585 583 L567 583 Q489 270 298 70 L270 116 Q451 297 527 583 L310 583 L310 635 Z" /><glyph glyph-name="uni4F5C" unicode="&#x4f5c;" d="M475 614 Q407 469 313 357 L275 402 Q415 566 497 820 L551 807 Q532 748 499 667 L947 667 L947 614 L598 614 L598 432 L901 432 L901 378 L598 378 L598 193 L909 193 L909 140 L598 140 L598 -98 L544 -98 L544 614 L475 614 ZM174 488 Q118 414 56 350 L39 407 Q205 587 281 815 L331 792 Q290 671 228 569 L228 -98 L174 -98 L174 488 Z" /><glyph glyph-name="uni4F60" unicode="&#x4f60;" d="M175 481 Q126 408 54 329 L36 386 Q203 578 276 818 L326 795 Q288 677 229 569 L229 -98 L175 -98 L175 481 ZM796 417 Q876 239 937 32 L888 10 Q825 231 747 401 L796 417 ZM460 634 Q411 516 344 415 L298 444 Q413 610 467 820 L519 809 Q501 745 480 686 L912 686 L912 650 Q888 557 847 466 L795 481 Q832 546 857 634 L460 634 ZM460 -90 L448 -39 Q536 -43 574 -43 Q613 -43 613 -4 L613 540 L665 540 L665 -17 Q665 -90 592 -90 L460 -90 ZM499 397 Q442 186 355 27 L303 46 Q387 189 450 410 L499 397 Z" /><glyph glyph-name="uni4F73" unicode="&#x4f73;" d="M380 686 L602 686 L602 815 L656 815 L656 686 L882 686 L882 633 L656 633 L656 467 L936 467 L936 413 L326 413 L326 467 L602 467 L602 633 L380 633 L380 686 ZM367 233 L602 233 L602 375 L656 375 L656 233 L894 233 L894 180 L656 180 L656 -10 L952 -10 L952 -63 L308 -63 L308 -10 L602 -10 L602 180 L367 180 L367 233 ZM174 483 Q123 411 57 344 L39 401 Q205 582 281 817 L331 793 Q290 669 228 566 L228 -97 L174 -97 L174 483 Z" /><glyph glyph-name="uni4F9B" unicode="&#x4f9b;" d="M344 596 L481 596 L481 810 L535 810 L535 596 L734 596 L734 810 L788 810 L788 596 L928 596 L928 542 L788 542 L788 292 L956 292 L956 239 L317 239 L317 292 L481 292 L481 542 L344 542 L344 596 ZM535 292 L734 292 L734 542 L535 542 L535 292 ZM746 189 Q873 48 942 -60 L894 -94 Q825 22 702 161 L746 189 ZM558 159 Q480 14 372 -93 L325 -60 Q430 41 509 183 L558 159 ZM174 489 Q117 408 50 339 L33 397 Q204 585 279 823 L329 799 Q288 679 228 573 L228 -98 L174 -98 L174 489 Z" /><glyph glyph-name="uni4FC3" unicode="&#x4fc3;" d="M165 479 Q117 406 58 339 L41 397 Q193 582 259 813 L309 791 Q274 677 218 569 L218 -100 L165 -100 L165 479 ZM385 771 L883 771 L883 462 L674 462 L674 288 L915 288 L915 237 L674 237 L674 -17 Q733 -27 815 -29 L958 -28 L947 -79 L841 -79 Q640 -79 568 -37 Q471 16 419 141 Q372 -5 301 -101 L266 -58 Q381 106 421 380 L473 371 Q460 286 440 212 Q462 140 502 86 Q550 25 613 -1 L621 -4 L621 462 L385 462 L385 771 ZM830 513 L830 720 L438 720 L438 513 L830 513 Z" /><glyph glyph-name="uni4FDD" unicode="&#x4fdd;" d="M319 795 Q282 683 227 582 L227 -100 L172 -100 L172 491 Q122 415 50 339 L33 396 Q197 585 268 819 L319 795 ZM389 767 L853 767 L853 464 L648 464 L648 340 L941 340 L941 286 L707 286 Q800 122 958 6 L924 -40 Q767 87 664 286 L648 286 L648 -98 L594 -98 L594 286 L577 286 Q473 76 312 -42 L282 6 Q437 112 533 286 L309 286 L309 340 L594 340 L594 464 L389 464 L389 767 ZM799 517 L799 715 L443 715 L443 517 L799 517 Z" /><glyph glyph-name="uni4FE1" unicode="&#x4fe1;" d="M163 489 Q108 405 51 341 L33 398 Q187 588 254 823 L305 799 Q271 687 216 581 L216 -100 L163 -100 L163 489 ZM311 674 L957 674 L957 622 L311 622 L311 674 ZM404 526 L870 526 L870 477 L404 477 L404 526 ZM404 385 L870 385 L870 335 L404 335 L404 385 ZM887 238 L887 -97 L834 -97 L834 -42 L441 -42 L441 -97 L387 -97 L387 238 L887 238 ZM441 10 L834 10 L834 187 L441 187 L441 10 ZM625 817 Q658 754 676 700 L628 681 Q604 748 573 803 L625 817 Z" /><glyph glyph-name="uni4FEE" unicode="&#x4fee;" d="M640 812 Q627 772 603 728 L899 728 L899 680 Q844 577 734 501 Q823 456 952 425 L930 374 Q782 411 683 469 Q579 411 430 371 L409 419 Q538 452 635 500 Q562 552 522 622 Q489 590 447 558 L415 599 Q542 689 587 818 L640 812 ZM556 660 Q598 583 685 529 Q785 593 839 678 L571 678 Q562 669 556 660 ZM309 791 Q274 679 220 578 L220 -99 L167 -99 L167 488 Q121 419 55 343 L38 397 Q192 582 259 814 L309 791 ZM324 640 L375 640 L375 76 L324 76 L324 640 ZM764 368 Q709 320 649 287 Q586 253 486 220 L459 263 Q548 288 613 320 Q674 352 723 392 L764 368 ZM855 291 Q736 137 506 70 L485 117 Q706 180 817 319 L855 291 ZM443 -54 Q612 -7 721 57 Q829 121 905 224 L944 195 Q876 90 744 11 Q607 -63 465 -102 L443 -54 Z" /><glyph glyph-name="uni503C" unicode="&#x503c;" d="M604 813 L658 813 L658 715 L922 715 L922 665 L658 665 L658 570 L853 570 L853 -16 L954 -16 L954 -67 L296 -67 L296 -16 L402 -16 L402 570 L604 570 L604 665 L339 665 L339 715 L604 715 L604 813 ZM454 -16 L801 -16 L801 83 L454 83 L454 -16 ZM454 128 L801 128 L801 226 L454 226 L454 128 ZM454 272 L801 272 L801 370 L454 370 L454 272 ZM454 416 L801 416 L801 520 L454 520 L454 416 ZM187 509 Q131 416 64 340 L46 397 Q198 584 264 817 L313 794 Q283 698 241 610 L241 -100 L187 -100 L187 509 Z" /><glyph glyph-name="uni505A" unicode="&#x505a;" d="M666 485 Q637 424 604 376 L572 415 Q668 560 701 807 L752 798 Q740 723 723 653 L945 653 L945 602 L895 602 Q892 328 808 146 Q867 30 961 -59 L924 -95 Q839 -13 781 94 Q714 -23 607 -95 L575 -54 Q687 19 753 148 Q684 298 666 485 ZM779 207 Q843 369 845 602 L709 602 L701 575 Q712 366 779 207 ZM295 789 Q262 678 214 579 L214 -99 L162 -99 L162 485 Q118 416 56 340 L38 397 Q183 581 247 811 L295 789 ZM577 359 L577 22 L358 22 L358 -46 L306 -46 L306 359 L416 359 L416 570 L280 570 L280 620 L416 620 L416 802 L468 802 L468 620 L601 620 L601 570 L468 570 L468 359 L577 359 ZM358 71 L526 71 L526 310 L358 310 L358 71 Z" /><glyph glyph-name="uni5065" unicode="&#x5065;" d="M886 404 L721 404 L721 313 L911 313 L911 269 L721 269 L721 181 L942 181 L942 135 L721 135 L721 23 L669 23 L669 135 L492 135 L492 181 L669 181 L669 269 L524 269 L524 313 L669 313 L669 404 L534 404 L534 449 L669 449 L669 543 L492 543 L492 588 L669 588 L669 682 L534 682 L534 727 L669 727 L669 808 L721 808 L721 727 L886 727 L886 588 L956 588 L956 543 L886 543 L886 404 ZM721 682 L721 588 L837 588 L837 682 L721 682 ZM721 543 L721 449 L837 449 L837 543 L721 543 ZM277 714 L467 714 L467 668 Q405 533 342 438 L472 438 L472 408 Q468 223 410 94 Q462 34 523 8 Q604 -28 779 -31 Q891 -31 959 -29 L948 -81 L814 -81 Q561 -79 472 -24 Q424 2 385 46 Q335 -38 257 -93 L230 -46 Q306 7 351 88 Q288 178 252 311 L297 328 Q324 216 375 139 Q419 248 425 392 L279 392 L279 431 Q353 538 410 662 L277 662 L277 714 ZM143 484 Q104 415 56 352 L38 409 Q163 590 217 814 L266 791 Q234 676 195 587 L195 -98 L143 -98 L143 484 Z" /><glyph glyph-name="uni50A8" unicode="&#x50a8;" d="M143 488 Q104 419 56 356 L39 412 Q161 592 215 815 L264 792 Q235 684 195 592 L195 -98 L143 -98 L143 488 ZM330 770 Q419 695 480 623 L439 582 Q382 658 293 734 L330 770 ZM243 500 L416 500 L416 58 Q457 100 508 161 L522 107 Q450 17 366 -56 L345 -7 Q363 11 363 29 L363 448 L243 448 L243 500 ZM539 692 L664 692 L664 813 L715 813 L715 692 L833 692 L833 645 L715 645 L715 500 L753 500 Q836 609 895 760 L940 735 Q887 604 815 500 L946 500 L946 450 L778 450 Q733 393 677 344 L893 344 L893 -95 L841 -95 L841 -51 L636 -51 L636 -95 L584 -95 L584 275 Q547 251 499 228 L471 271 Q610 334 712 450 L513 450 L513 500 L664 500 L664 645 L539 645 L539 692 ZM636 123 L636 -3 L841 -3 L841 123 L636 123 ZM841 171 L841 295 L636 295 L636 171 L841 171 Z" /><glyph glyph-name="uni50CF" unicode="&#x50cf;" d="M355 592 L305 560 L271 600 Q425 687 516 820 L571 808 Q546 771 526 746 L787 746 L787 709 Q746 655 698 612 L894 612 L894 405 L593 405 Q591 403 589 399 Q658 329 694 247 Q805 296 877 366 L912 327 Q861 282 801 246 Q845 101 961 -9 L925 -52 Q808 73 760 224 L711 201 Q727 149 730 86 Q730 -14 699 -54 Q672 -85 602 -96 L541 -97 L524 -48 L595 -48 Q631 -45 654 -19 Q676 9 676 86 Q675 107 671 140 Q540 17 319 -61 L291 -15 Q531 65 660 189 Q648 230 629 265 Q517 162 320 95 L294 141 Q496 204 607 303 Q578 343 557 364 Q469 278 316 243 L295 289 Q447 323 527 405 L355 405 L355 592 ZM628 612 Q676 651 722 702 L487 702 Q440 654 383 612 L628 612 ZM841 451 L841 566 L664 566 Q651 504 623 451 L841 451 ZM564 451 Q599 504 612 566 L408 566 L408 451 L564 451 ZM165 493 Q116 414 58 345 L40 402 Q182 584 247 817 L296 794 Q265 686 218 590 L218 -97 L165 -97 L165 493 Z" /><glyph glyph-name="uni2F0A" unicode="&#x2f0a;&#x5165;" d="M464 589 Q395 716 296 785 L341 815 Q480 716 570 477 Q711 115 952 -38 L919 -81 Q672 71 520 465 Q511 491 495 526 Q398 128 76 -84 L42 -38 Q370 177 464 589 Z" /><glyph glyph-name="uni5168" unicode="&#x5168;" d="M519 809 Q710 607 957 492 L930 445 Q680 566 500 759 Q334 572 66 438 L40 486 Q303 615 481 809 L519 809 ZM222 490 L780 490 L780 437 L527 437 L527 246 L824 246 L824 193 L527 193 L527 -13 L915 -13 L915 -66 L86 -66 L86 -13 L473 -13 L473 193 L175 193 L175 246 L473 246 L473 437 L222 437 L222 490 Z" /><glyph glyph-name="uni516C" unicode="&#x516c;" d="M393 784 Q277 468 91 303 L49 340 Q243 511 342 804 L393 784 ZM659 276 Q773 107 852 -73 L801 -95 Q776 -36 750 16 Q482 -28 172 -48 L162 3 Q294 84 469 472 L522 454 Q385 156 251 7 Q503 25 726 63 Q674 167 610 259 L659 276 ZM643 811 Q732 524 953 345 L916 301 Q686 490 597 785 L643 811 Z" /><glyph glyph-name="uni516D" unicode="&#x516d;" d="M657 380 Q835 131 930 -57 L883 -90 Q782 114 611 351 L657 380 ZM388 354 Q280 67 104 -83 L59 -44 Q242 110 336 374 L388 354 ZM59 540 L941 540 L941 488 L59 488 L59 540 ZM398 807 Q522 719 604 630 L565 591 Q491 675 361 772 L398 807 Z" /><glyph glyph-name="uni5173" unicode="&#x5173;" d="M300 811 Q368 724 418 636 L370 612 Q312 713 251 787 L300 811 ZM748 806 Q708 688 651 601 L869 601 L869 547 L527 547 L527 488 Q525 408 514 345 L927 345 L927 291 L551 291 Q626 74 950 -46 L919 -96 Q581 42 500 283 Q473 185 419 113 Q317 -17 86 -91 L56 -44 Q285 28 381 153 Q422 213 445 291 L73 291 L73 345 L458 345 Q471 412 473 488 L473 547 L130 547 L130 601 L590 601 Q650 691 695 820 L748 806 Z" /><glyph glyph-name="uni517B" unicode="&#x517b;" d="M90 702 L341 702 Q308 755 275 794 L323 818 Q367 761 401 702 L601 702 Q642 760 669 820 L722 801 Q695 747 662 702 L913 702 L913 654 L526 654 Q516 616 497 560 L860 560 L860 513 L479 513 Q460 469 429 418 L932 418 L932 369 L670 369 Q760 252 955 186 L932 138 Q707 225 614 369 L397 369 Q277 207 79 138 L51 186 Q226 243 331 369 L68 369 L68 418 L368 418 Q399 464 421 513 L142 513 L142 560 L440 560 Q458 607 470 654 L90 654 L90 702 ZM636 266 L690 266 L690 -96 L636 -96 L636 266 ZM339 265 L393 265 L393 194 Q390 78 333 9 Q274 -56 148 -91 L118 -45 Q240 -13 291 44 Q336 101 339 194 L339 265 Z" /><glyph glyph-name="uni5185" unicode="&#x5185;" d="M494 425 Q433 243 250 126 L214 169 Q387 281 444 452 Q464 517 474 593 L166 593 L166 -97 L112 -97 L112 646 L480 646 Q488 732 488 817 L543 817 Q543 737 536 646 L889 646 L889 5 Q889 -88 798 -88 L642 -88 L627 -34 L780 -36 Q835 -36 835 16 L835 593 L530 593 Q521 532 509 480 Q671 327 779 179 L738 138 Q643 278 494 425 Z" /><glyph glyph-name="uni5199" unicode="&#x5199;" d="M337 502 Q320 437 295 353 L836 353 Q833 -8 786 -53 Q753 -90 634 -92 L546 -92 L530 -41 L636 -42 Q723 -41 747 -13 Q776 22 782 302 L227 302 Q289 507 320 666 L373 660 L349 554 L768 554 L768 502 L337 502 ZM75 164 L674 164 L674 112 L75 112 L75 164 ZM891 768 L891 560 L837 560 L837 716 L163 716 L163 561 L109 561 L109 768 L891 768 Z" /><glyph glyph-name="uni51B2" unicode="&#x51b2;" d="M97 775 Q206 641 258 551 L213 520 Q158 616 52 747 L97 775 ZM268 343 Q199 130 105 -75 L54 -53 Q151 153 219 363 L268 343 ZM602 811 L656 811 L656 632 L916 632 L916 187 L863 187 L863 242 L656 242 L656 -101 L602 -101 L602 242 L397 242 L397 187 L344 187 L344 632 L602 632 L602 811 ZM397 292 L602 292 L602 580 L397 580 L397 292 ZM656 292 L863 292 L863 580 L656 580 L656 292 Z" /><glyph glyph-name="uni51B3" unicode="&#x51b3;" d="M361 659 L568 659 L568 814 L621 814 L621 659 L852 659 L852 364 L945 364 L945 312 L637 312 Q736 84 959 -53 L924 -93 Q692 60 595 297 Q526 26 279 -98 L246 -55 Q481 56 544 312 L319 312 L319 364 L555 364 Q566 433 568 515 L568 608 L361 608 L361 659 ZM621 608 L621 527 Q621 441 609 364 L799 364 L799 608 L621 608 ZM104 776 Q207 649 264 551 L219 519 Q163 620 59 749 L104 776 ZM275 345 Q199 126 104 -70 L53 -48 Q151 150 227 364 L275 345 Z" /><glyph glyph-name="uni51C6" unicode="&#x51c6;" d="M100 776 Q206 649 263 553 L218 522 Q157 626 54 748 L100 776 ZM269 326 Q200 113 106 -89 L55 -67 Q148 128 221 345 L269 326 ZM435 381 L435 226 L658 226 L658 381 L435 381 ZM435 176 L435 8 L658 8 L658 176 L435 176 ZM435 -43 L435 -98 L382 -98 L382 521 Q332 436 275 364 L257 420 Q391 602 446 817 L498 807 Q473 714 440 637 L929 637 L929 585 L711 585 L711 432 L909 432 L909 381 L711 381 L711 226 L911 226 L911 176 L711 176 L711 8 L951 8 L951 -43 L435 -43 ZM658 585 L435 585 L435 432 L658 432 L658 585 ZM667 823 Q702 732 721 660 L675 643 Q647 734 614 809 L667 823 Z" /><glyph glyph-name="uni5206" unicode="&#x5206;" d="M421 767 Q350 637 279 557 Q196 465 77 384 L46 432 Q154 494 238 592 Q317 682 375 795 L421 767 ZM189 360 L189 411 L786 411 Q782 228 768 114 Q753 2 720 -43 Q687 -87 613 -90 L426 -90 L412 -38 Q536 -40 587 -40 Q670 -40 697 33 Q723 108 732 360 L447 360 Q411 188 347 90 Q274 -13 127 -97 L93 -54 Q227 20 297 112 Q363 205 393 360 L189 360 ZM640 806 Q728 574 953 439 L916 397 Q685 544 594 780 L640 806 Z" /><glyph glyph-name="uni5207" unicode="&#x5207;" d="M607 693 L408 693 L408 746 L918 746 Q918 214 903 88 Q889 -75 769 -75 Q731 -75 635 -72 L622 -22 Q703 -25 763 -25 Q838 -25 850 105 Q861 198 864 693 L661 693 L661 588 Q655 118 349 -100 L305 -61 Q601 141 607 588 L607 693 ZM452 583 L460 531 L222 483 L222 143 Q319 182 412 237 L426 187 Q313 117 152 62 L136 113 Q168 127 168 154 L168 472 L41 447 L33 500 L168 526 L168 800 L222 800 L222 537 L452 583 Z" /><glyph glyph-name="uni5212" unicode="&#x5212;" d="M651 727 L704 727 L704 100 L651 100 L651 727 ZM677 -88 L665 -37 Q737 -40 802 -40 Q852 -40 852 11 L852 811 L906 811 L906 -3 Q906 -88 821 -88 L677 -88 ZM542 585 L551 533 L254 487 Q263 399 280 322 Q295 253 313 200 Q408 304 474 451 L522 426 Q446 257 334 142 Q351 96 374 56 Q433 -35 479 -36 Q510 -30 543 133 L588 102 Q569 27 546 -28 Q519 -91 482 -91 Q416 -91 348 4 Q319 45 294 104 Q196 16 73 -36 L42 13 Q172 64 272 159 Q255 207 234 285 Q212 370 202 479 L64 457 L57 509 L197 531 Q185 656 185 812 L239 812 Q239 655 249 539 L542 585 ZM372 818 Q428 753 481 666 L434 642 Q382 731 327 796 L372 818 Z" /><glyph glyph-name="uni5219" unicode="&#x5219;" d="M517 768 L517 163 L463 163 L463 716 L159 716 L159 154 L106 154 L106 768 L517 768 ZM380 133 Q490 40 563 -53 L523 -93 Q455 -2 342 96 L380 133 ZM285 644 L337 644 L337 328 Q334 152 272 49 Q210 -45 69 -103 L38 -54 Q174 -3 231 87 Q282 180 285 328 L285 644 ZM645 727 L698 727 L698 100 L645 100 L645 727 ZM683 -87 L671 -35 Q759 -39 796 -39 Q852 -39 852 17 L852 811 L906 811 L906 3 Q906 -87 815 -87 L683 -87 Z" /><glyph glyph-name="uni521B" unicode="&#x521b;" d="M439 442 L205 442 L205 3 Q205 -30 242 -30 L446 -30 Q503 -30 516 -3 Q532 33 538 117 L589 99 Q580 -23 552 -56 Q527 -81 458 -81 L224 -81 Q151 -81 151 -12 L151 491 L492 491 L492 233 Q492 154 414 151 Q374 151 304 155 L290 205 Q366 201 397 201 Q439 201 439 246 L439 442 ZM351 803 Q480 665 603 509 L567 472 Q436 643 335 752 Q218 580 71 443 L39 486 Q187 622 309 803 L351 803 ZM672 726 L725 726 L725 99 L672 99 L672 726 ZM677 -88 L665 -37 Q748 -40 822 -40 Q855 -40 855 -1 L855 811 L909 811 L909 -15 Q909 -88 841 -88 L677 -88 Z" /><glyph glyph-name="uni521D" unicode="&#x521d;" d="M577 679 L424 679 L424 732 L911 732 Q911 218 896 96 Q879 -80 737 -80 Q704 -80 626 -77 L613 -27 Q682 -30 730 -30 Q828 -30 843 114 Q854 203 857 679 L630 679 L630 598 Q624 123 373 -95 L332 -59 Q573 147 577 598 L577 679 ZM193 320 Q133 251 58 182 L41 236 Q243 424 306 602 L63 602 L63 652 L360 652 L360 607 Q324 496 246 388 L246 377 Q280 353 303 334 Q358 369 410 447 L444 413 Q397 345 338 305 Q383 264 424 219 L395 173 Q322 265 246 326 L246 -99 L193 -99 L193 320 ZM196 816 Q231 746 254 677 L206 659 Q178 734 143 802 L196 816 Z" /><glyph glyph-name="uni5229" unicode="&#x5229;" d="M61 539 L269 539 L269 695 Q181 678 79 670 L61 720 Q303 738 475 807 L502 762 Q413 727 324 707 L324 539 L513 539 L513 486 L324 486 L324 430 Q415 349 517 236 L486 188 Q392 307 324 374 L324 -98 L269 -98 L269 388 Q196 225 65 94 L40 155 Q201 301 267 486 L61 486 L61 539 ZM607 721 L661 721 L661 99 L607 99 L607 721 ZM667 -88 L655 -36 Q751 -40 794 -40 Q845 -40 845 14 L845 811 L900 811 L900 0 Q900 -88 813 -88 L667 -88 Z" /><glyph glyph-name="uni5230" unicode="&#x5230;" d="M563 -2 Q327 -51 67 -82 L54 -30 Q156 -20 292 1 L292 210 L90 210 L90 262 L292 262 L292 387 L346 387 L346 262 L536 262 L536 210 L346 210 L346 10 Q460 29 563 52 L563 -2 ZM66 765 L559 765 L559 713 L297 713 Q219 547 147 467 Q309 483 466 508 Q434 561 383 632 L425 658 Q522 527 580 417 L536 386 Q515 427 491 467 Q300 434 70 413 L58 462 Q77 466 79 467 Q153 532 241 713 L66 713 L66 765 ZM680 -88 L668 -36 Q764 -40 807 -40 Q855 -40 855 9 L855 811 L910 811 L910 -5 Q910 -88 826 -88 L680 -88 ZM649 721 L702 721 L702 99 L649 99 L649 721 Z" /><glyph glyph-name="uni5236" unicode="&#x5236;" d="M150 632 Q123 572 83 528 L39 559 Q117 642 138 788 L190 780 Q181 724 168 683 L305 683 L305 812 L359 812 L359 683 L553 683 L553 632 L359 632 L359 486 L581 486 L581 435 L359 435 L359 314 L555 314 L555 53 Q555 -28 475 -28 L420 -28 L406 24 L458 21 Q503 21 503 64 L503 264 L359 264 L359 -100 L305 -100 L305 264 L158 264 L158 -36 L105 -36 L105 314 L305 314 L305 435 L57 435 L57 486 L305 486 L305 632 L150 632 ZM649 721 L702 721 L702 99 L649 99 L649 721 ZM680 -88 L668 -37 Q740 -40 807 -40 Q858 -40 858 12 L858 811 L912 811 L912 -2 Q912 -88 826 -88 L680 -88 Z" /><glyph glyph-name="uni524D" unicode="&#x524d;" d="M734 803 Q703 737 663 684 L945 684 L945 630 L54 630 L54 684 L339 684 Q308 756 270 808 L326 817 Q361 764 396 684 L604 684 Q646 746 681 822 L734 803 ZM320 -91 L305 -38 L381 -40 Q426 -40 426 11 L426 124 L182 124 L182 -99 L129 -99 L129 535 L479 535 L479 0 Q479 -91 399 -91 L320 -91 ZM182 174 L426 174 L426 303 L182 303 L182 174 ZM182 352 L426 352 L426 484 L182 484 L182 352 ZM656 -88 L644 -37 Q710 -40 768 -40 Q815 -40 815 10 L815 567 L869 567 L869 -4 Q869 -88 787 -88 L656 -88 ZM605 492 L659 492 L659 59 L605 59 L605 492 Z" /><glyph glyph-name="uni2F12" unicode="&#x2f12;&#x529b;" d="M426 812 L482 812 L482 727 Q480 655 478 617 L864 617 Q860 364 844 197 Q829 37 795 -25 Q761 -85 684 -91 L553 -91 L539 -39 Q623 -41 658 -41 Q744 -41 771 71 Q799 184 808 564 L474 564 Q455 344 388 194 Q301 8 102 -96 L71 -49 Q267 56 349 239 Q402 374 418 564 L119 564 L119 617 L422 617 Q424 653 426 727 L426 812 Z" /><glyph glyph-name="uni52A1" unicode="&#x52a1;" d="M409 810 Q392 770 366 727 L809 727 L809 683 Q709 567 563 487 Q737 409 955 385 L931 334 Q692 362 504 457 Q319 372 70 333 L45 383 Q275 415 447 488 Q352 545 273 615 Q212 558 138 515 L105 558 Q289 663 354 818 L409 810 ZM505 515 Q637 582 732 676 L329 676 Q315 660 309 652 Q396 573 505 515 ZM504 377 Q504 315 493 255 L849 255 Q846 7 803 -40 Q759 -89 651 -89 Q606 -89 541 -86 L527 -36 Q617 -40 639 -40 Q739 -38 764 0 Q789 40 795 206 L481 206 Q465 158 446 124 Q366 -11 94 -98 L58 -55 Q304 18 388 133 Q407 164 423 206 L114 206 L114 255 L438 255 Q451 317 451 377 L504 377 Z" /><glyph glyph-name="uni52A8" unicode="&#x52a8;" d="M93 738 L449 738 L449 687 L93 687 L93 738 ZM53 469 L488 469 L488 415 L253 415 Q186 168 136 70 Q266 93 401 144 Q354 241 318 303 L364 325 Q437 196 503 44 L455 20 L421 99 Q263 43 73 8 L60 59 Q70 63 71 64 Q119 127 200 415 L53 415 L53 469 ZM649 812 L703 812 L703 626 L923 626 Q923 145 909 27 Q897 -87 784 -87 Q757 -87 689 -84 L676 -37 Q756 -39 779 -39 Q845 -39 857 43 Q867 130 870 574 L703 574 L703 560 Q699 110 490 -100 L447 -62 Q646 132 649 560 L649 574 L517 574 L517 626 L649 626 L649 812 Z" /><glyph glyph-name="uni52A9" unicode="&#x52a9;" d="M446 755 L446 133 L516 156 L516 104 Q325 37 64 -22 L50 30 L119 45 L119 755 L446 755 ZM173 57 Q281 82 392 116 L392 264 L173 264 L173 57 ZM173 314 L392 314 L392 486 L173 486 L173 314 ZM173 535 L392 535 L392 704 L173 704 L173 535 ZM637 810 L691 810 L691 620 L917 620 Q917 156 903 41 Q886 -87 742 -87 Q722 -87 671 -84 L658 -37 Q718 -39 737 -39 Q835 -39 850 58 Q861 137 864 568 L691 568 L691 566 Q687 110 478 -100 L435 -63 Q634 133 637 566 L637 568 L509 568 L509 620 L637 620 L637 810 Z" /><glyph glyph-name="uni52AA" unicode="&#x52aa;" d="M303 811 Q287 759 270 716 L462 716 L462 669 Q429 555 349 472 Q420 435 478 399 L448 356 Q394 393 311 436 Q222 361 91 316 L65 361 Q182 400 262 461 Q198 493 129 523 Q164 591 196 666 L76 666 L76 716 L216 716 Q236 768 250 817 L303 811 ZM301 495 Q378 570 412 666 L251 666 Q224 602 191 543 Q242 523 301 495 ZM518 685 L518 734 L882 734 L882 688 Q840 564 750 477 Q828 423 943 385 L918 339 Q793 382 711 443 Q639 387 541 349 L517 395 Q606 428 671 476 Q575 565 546 685 L518 685 ZM709 507 Q791 581 829 685 L594 685 Q616 583 709 507 ZM518 331 Q518 289 511 240 L860 240 Q857 5 814 -39 Q768 -85 660 -85 Q616 -85 553 -82 L539 -33 L648 -37 Q748 -36 775 1 Q799 37 805 192 L500 192 Q485 143 461 103 Q382 -19 113 -97 L76 -53 Q321 13 402 114 Q426 149 442 192 L122 192 L122 240 L455 240 Q464 284 464 331 L518 331 Z" /><glyph glyph-name="uni52B1" unicode="&#x52b1;" d="M270 534 L158 534 L158 393 Q154 89 78 -97 L40 -63 Q103 101 106 393 L106 768 L542 768 L542 718 L158 718 L158 584 L517 584 L517 534 L320 534 L320 372 L506 372 Q505 99 489 9 Q471 -82 386 -85 Q360 -85 325 -82 L310 -36 Q366 -38 381 -38 Q434 -35 446 38 Q454 107 456 323 L318 323 Q303 43 198 -93 L160 -61 Q269 81 270 389 L270 534 ZM678 810 L730 810 L730 595 L912 595 Q912 135 895 25 Q877 -85 757 -85 Q737 -85 689 -82 L677 -36 Q733 -38 749 -38 Q829 -38 844 34 Q860 121 862 543 L729 543 Q720 110 554 -97 L516 -63 Q668 128 677 543 L558 543 L558 595 L678 595 L678 810 Z" /><glyph glyph-name="uni5305" unicode="&#x5305;" d="M627 505 L627 216 L262 216 L262 13 Q262 -33 312 -34 L802 -34 Q840 -32 856 0 Q867 27 875 127 L926 110 Q918 15 904 -24 Q880 -83 816 -84 L294 -84 Q208 -84 208 -4 L208 505 L627 505 ZM262 266 L573 266 L573 455 L262 455 L262 266 ZM355 812 Q331 755 304 701 L870 701 Q870 332 855 245 Q843 148 743 148 Q726 148 681 151 L668 199 Q709 196 738 196 Q793 196 802 262 Q813 324 816 650 L276 650 Q200 523 103 430 L65 475 Q212 612 300 825 L355 812 Z" /><glyph glyph-name="uni533A" unicode="&#x533a;" d="M319 609 Q453 509 584 392 Q676 507 741 657 L790 631 Q720 472 625 355 Q751 240 849 130 L808 89 Q715 198 590 314 Q455 165 277 89 L246 138 Q420 210 549 351 Q415 469 280 572 L319 609 ZM126 772 L913 772 L913 720 L179 720 L179 -3 L941 -3 L941 -55 L126 -55 L126 772 Z" /><glyph glyph-name="uni2F17" unicode="&#x2f17;&#x5341;" d="M476 813 L530 813 L530 480 L943 480 L943 426 L530 426 L530 -97 L476 -97 L476 426 L60 426 L60 480 L476 480 L476 813 Z" /><glyph glyph-name="uni5356" unicode="&#x5356;" d="M163 370 Q281 326 378 265 L350 223 Q248 290 137 330 L163 370 ZM253 469 Q366 432 460 376 L433 335 Q331 396 227 430 L253 469 ZM545 471 L598 471 L598 315 Q596 249 579 197 L919 197 L919 146 L558 146 Q549 129 533 105 Q732 40 902 -53 L872 -100 Q695 2 501 67 L482 48 Q373 -43 122 -97 L92 -51 Q342 -1 446 85 Q474 113 496 146 L89 146 L89 197 L522 197 Q542 250 545 315 L545 471 ZM100 569 L477 569 L477 680 L174 680 L174 730 L477 730 L477 814 L531 814 L531 730 L828 730 L828 680 L531 680 L531 569 L884 569 L884 534 Q859 427 819 333 L767 347 Q804 420 829 518 L100 518 L100 569 Z" /><glyph glyph-name="uni5357" unicode="&#x5357;" d="M58 712 L476 712 L488 819 L543 811 L532 712 L942 712 L942 660 L524 660 Q513 596 503 547 L886 547 L886 -7 Q886 -90 805 -90 L705 -90 L690 -37 L787 -39 Q832 -39 832 5 L832 495 L169 495 L169 -97 L116 -97 L116 547 L448 547 Q461 607 469 660 L58 660 L58 712 ZM379 453 Q413 398 441 322 L555 322 Q592 383 622 459 L671 441 Q641 372 607 322 L735 322 L735 273 L527 273 L527 153 L766 153 L766 105 L527 105 L527 -82 L473 -82 L473 105 L235 105 L235 153 L473 153 L473 273 L268 273 L268 322 L388 322 Q364 385 330 435 L379 453 Z" /><glyph glyph-name="uni535A" unicode="&#x535a;" d="M443 440 L443 365 L620 365 L620 440 L443 440 ZM671 440 L671 365 L849 365 L849 440 L671 440 ZM849 481 L849 558 L671 558 L671 481 L849 481 ZM620 481 L620 558 L443 558 L443 481 L620 481 ZM443 324 L443 227 L392 227 L392 601 L620 601 L620 681 L356 681 L356 728 L620 728 L620 814 L671 814 L671 728 L809 728 Q786 779 765 813 L813 821 Q834 781 855 728 L938 728 L938 681 L671 681 L671 601 L900 601 L900 227 L849 227 L849 324 L671 324 L671 236 L620 236 L620 324 L443 324 ZM331 173 L768 173 L768 236 L820 236 L820 173 L942 173 L942 125 L820 125 L820 -29 Q820 -96 750 -96 L644 -96 L633 -46 Q701 -50 732 -50 Q768 -50 768 -16 L768 125 L331 125 L331 173 ZM59 563 L170 563 L170 813 L223 813 L223 563 L333 563 L333 509 L223 509 L223 -97 L170 -97 L170 509 L59 509 L59 563 ZM454 108 Q546 44 606 -18 L571 -52 Q511 11 420 76 L454 108 Z" /><glyph glyph-name="uni5370" unicode="&#x5370;" d="M172 396 L172 83 Q295 107 463 153 L477 104 Q305 56 116 19 L93 64 Q118 78 118 102 L118 729 Q304 762 456 813 L489 770 Q350 722 172 689 L172 449 L469 449 L469 396 L172 396 ZM723 37 L708 90 L804 88 Q852 88 852 134 L852 701 L601 701 L601 -99 L547 -99 L547 753 L907 753 L907 122 Q907 37 822 37 L723 37 Z" /><glyph glyph-name="uni5373" unicode="&#x5373;" d="M159 524 L159 368 L419 368 L419 524 L159 524 ZM419 573 L419 721 L159 721 L159 573 L419 573 ZM79 -15 Q106 -6 106 17 L106 771 L470 771 L470 317 L159 317 L159 5 Q313 49 418 93 Q387 148 346 211 L388 237 Q484 90 535 -21 L492 -51 Q476 -14 443 48 Q290 -18 97 -65 L79 -15 ZM737 42 L723 95 L817 92 Q858 92 858 134 L858 719 L653 719 L653 -95 L599 -95 L599 770 L911 770 L911 122 Q911 42 835 42 L737 42 Z" /><glyph glyph-name="uni5386" unicode="&#x5386;" d="M928 762 L928 708 L190 708 L190 402 Q184 88 83 -96 L41 -59 Q132 108 135 402 L135 762 L928 762 ZM879 465 Q876 70 842 -7 Q806 -85 716 -85 Q667 -85 598 -82 L583 -32 Q655 -33 703 -35 Q782 -32 801 40 Q822 112 825 416 L576 416 Q558 247 501 133 Q425 -12 249 -96 L219 -48 Q388 32 461 175 Q507 280 522 416 L279 416 L279 465 L526 465 Q528 493 530 553 L530 650 L583 650 L583 553 Q583 507 580 465 L879 465 Z" /><glyph glyph-name="uni539F" unicode="&#x539f;" d="M306 608 L519 608 Q538 661 545 715 L181 715 L181 375 Q177 84 86 -96 L45 -59 Q122 96 127 375 L127 768 L931 768 L931 715 L599 715 Q590 660 572 608 L855 608 L855 237 L617 237 L617 -26 Q617 -94 547 -94 L446 -94 L434 -42 Q500 -46 528 -46 Q562 -46 562 -13 L562 237 L306 237 L306 608 ZM802 287 L802 400 L359 400 L359 287 L802 287 ZM359 447 L802 447 L802 559 L359 559 L359 447 ZM431 156 Q360 27 268 -64 L224 -32 Q318 59 383 180 L431 156 ZM770 180 Q878 55 934 -36 L889 -68 Q828 36 726 152 L770 180 Z" /><glyph glyph-name="uni53BB" unicode="&#x53bb;" d="M667 276 Q823 72 902 -72 L856 -104 Q835 -63 803 -11 Q475 -47 138 -70 L129 -24 Q260 47 400 334 L58 334 L58 388 L473 388 L473 594 L120 594 L120 647 L473 647 L473 813 L527 813 L527 647 L878 647 L878 594 L527 594 L527 388 L941 388 L941 334 L460 334 Q346 93 227 -17 Q631 15 774 34 Q710 134 624 248 L667 276 Z" /><glyph glyph-name="uni53C2" unicode="&#x53c2;" d="M65 509 L402 509 Q435 554 453 602 Q354 598 171 592 L162 640 Q271 674 410 816 L463 798 Q367 698 270 640 Q513 648 699 662 Q628 724 592 754 L634 781 Q784 661 862 573 L817 543 Q788 576 745 619 Q606 610 509 605 Q492 556 462 509 L927 509 L927 459 L664 459 Q757 356 957 297 L933 247 Q700 329 607 459 L425 459 Q308 324 70 241 L46 289 Q254 352 359 459 L65 459 L65 509 ZM553 385 Q451 260 242 187 L217 231 Q416 298 509 411 L553 385 ZM815 236 Q678 -11 220 -108 L188 -65 Q644 34 768 258 L815 236 ZM680 301 Q507 102 236 53 L205 96 Q482 141 637 329 L680 301 Z" /><glyph glyph-name="uni53CA" unicode="&#x53ca;" d="M307 711 L127 711 L127 765 L710 765 L710 730 Q685 603 655 494 L858 494 L858 461 Q816 255 662 111 Q781 19 942 -52 L906 -99 Q742 -25 620 74 Q488 -33 289 -102 L258 -52 Q450 14 577 111 Q419 254 351 444 Q308 87 89 -94 L47 -58 Q302 151 307 610 L307 711 ZM619 146 Q756 271 801 443 L587 443 Q616 531 651 711 L361 711 L361 592 L360 573 Q413 322 619 146 Z" /><glyph glyph-name="uni53CC" unicode="&#x53cc;" d="M120 595 Q220 478 304 360 Q360 515 372 696 L74 696 L74 749 L425 749 L425 707 Q413 482 342 305 Q410 208 472 99 L430 58 Q382 145 316 246 Q231 68 81 -64 L45 -21 Q200 116 280 299 Q187 432 82 558 L120 595 ZM496 749 L899 749 L899 700 Q864 449 731 233 Q820 85 954 -47 L916 -92 Q782 45 699 183 Q602 41 458 -90 L421 -46 Q573 88 669 234 Q545 459 532 696 L496 696 L496 749 ZM582 696 Q594 485 701 286 Q814 481 846 696 L582 696 Z" /><glyph glyph-name="uni53D1" unicode="&#x53d1;" d="M126 519 L205 785 L259 777 L196 570 L392 570 Q424 691 443 824 L498 818 Q475 675 448 570 L923 570 L923 519 L434 519 Q411 442 390 388 L805 388 L805 341 Q763 208 631 98 Q758 18 942 -46 L915 -96 Q713 -22 587 64 Q463 -25 272 -99 L244 -49 Q422 16 541 97 Q410 197 359 314 Q247 65 72 -79 L44 -29 Q274 171 378 519 L126 519 ZM402 338 Q453 223 585 129 Q706 225 750 338 L402 338 ZM666 810 Q777 724 848 641 L809 602 Q742 686 629 775 L666 810 Z" /><glyph glyph-name="uni53D6" unicode="&#x53d6;" d="M58 770 L532 770 L532 719 L447 719 L447 138 L547 164 L547 110 Q528 106 497 98 Q461 88 447 85 L447 -102 L393 -102 L393 72 Q237 38 64 12 L51 65 L140 77 L140 719 L58 719 L58 770 ZM194 86 Q293 104 393 125 L393 278 L194 278 L194 86 ZM194 327 L393 327 L393 496 L194 496 L194 327 ZM194 546 L393 546 L393 719 L194 719 L194 546 ZM626 665 Q646 431 742 238 Q833 419 863 665 L626 665 ZM714 186 Q598 406 577 665 L541 665 L541 717 L913 717 L913 667 Q880 384 773 182 Q849 51 958 -55 L922 -97 Q818 8 744 132 Q660 -5 541 -98 L506 -56 Q631 43 714 186 Z" /><glyph glyph-name="uni53D7" unicode="&#x53d7;" d="M888 759 Q591 710 116 710 L100 759 Q568 761 862 805 L888 759 ZM911 502 L911 284 L857 284 L857 450 L143 450 L143 284 L89 284 L89 502 L655 502 Q720 595 762 695 L816 675 Q767 575 712 502 L911 502 ZM216 674 Q272 605 314 537 L266 514 Q220 590 168 651 L216 674 ZM452 688 Q502 624 546 546 L498 522 Q453 603 404 664 L452 688 ZM204 336 L786 336 L786 289 Q715 162 563 71 Q712 -2 941 -51 L910 -99 Q667 -44 509 41 Q342 -45 91 -98 L63 -48 Q296 -4 457 71 Q309 164 250 286 L204 286 L204 336 ZM304 286 Q368 179 510 99 Q656 180 726 286 L304 286 Z" /><glyph glyph-name="uni2F1D" unicode="&#x2f1d;&#x53e3;" d="M856 690 L856 -81 L801 -81 L801 -13 L200 -13 L200 -81 L145 -81 L145 690 L856 690 ZM200 40 L801 40 L801 637 L200 637 L200 40 Z" /><glyph glyph-name="uni53EA" unicode="&#x53ea;" d="M186 752 L814 752 L814 314 L186 314 L186 752 ZM760 365 L760 700 L240 700 L240 365 L760 365 ZM673 250 Q845 64 933 -69 L887 -101 Q794 46 629 223 L673 250 ZM373 227 Q264 36 120 -102 L73 -67 Q220 65 326 250 L373 227 Z" /><glyph glyph-name="uni53EF" unicode="&#x53ef;" d="M58 750 L945 750 L945 697 L809 697 L809 3 Q809 -90 717 -90 L552 -90 L540 -38 Q650 -42 698 -42 Q754 -42 754 17 L754 697 L58 697 L58 750 ZM553 527 L553 173 L231 173 L231 82 L179 82 L179 527 L553 527 ZM231 223 L501 223 L501 478 L231 478 L231 223 Z" /><glyph glyph-name="uni53F0" unicode="&#x53f0;" d="M828 311 L828 -99 L774 -99 L774 -42 L226 -42 L226 -99 L172 -99 L172 311 L828 311 ZM226 11 L774 11 L774 259 L226 259 L226 11 ZM86 474 Q232 534 421 816 L476 797 Q330 585 187 476 Q512 490 774 516 Q708 606 642 681 L692 705 Q830 545 939 373 L887 347 Q858 395 808 468 Q490 438 96 423 L86 474 Z" /><glyph glyph-name="uni53F2" unicode="&#x53f2;" d="M150 682 L482 682 L482 813 L536 813 L536 682 L859 682 L859 351 L532 351 Q517 194 442 98 Q658 -25 952 -40 L938 -94 Q631 -78 405 58 Q294 -45 89 -98 L58 -49 Q250 -1 356 90 Q254 161 170 255 L214 286 Q296 193 394 128 Q463 209 478 351 L150 351 L150 682 ZM805 403 L805 629 L536 629 L536 416 L535 403 L805 403 ZM481 403 L482 418 L482 629 L204 629 L204 403 L481 403 Z" /><glyph glyph-name="uni53F8" unicode="&#x53f8;" d="M155 384 L583 384 L583 88 L155 88 L155 384 ZM531 138 L531 334 L207 334 L207 138 L531 138 ZM625 -91 L611 -39 L750 -41 Q803 -41 803 24 L803 714 L116 714 L116 766 L857 766 L857 10 Q857 -91 761 -91 L625 -91 ZM85 571 L686 571 L686 520 L85 520 L85 571 Z" /><glyph glyph-name="uni5404" unicode="&#x5404;" d="M776 270 L776 -100 L722 -100 L722 -47 L282 -47 L282 -100 L228 -100 L228 270 L776 270 ZM282 5 L722 5 L722 219 L282 219 L282 5 ZM430 810 Q406 767 379 726 L769 726 L769 682 Q678 552 547 462 Q714 367 952 329 L928 280 Q676 323 500 432 Q319 324 72 276 L48 324 Q285 365 453 463 Q359 530 290 615 Q225 544 143 485 L107 526 Q277 643 377 823 L430 810 ZM323 652 Q395 559 499 491 Q614 568 700 675 L342 675 L323 652 Z" /><glyph glyph-name="uni5408" unicode="&#x5408;" d="M520 814 Q713 588 964 458 L935 408 Q680 545 500 765 Q335 558 61 406 L33 457 Q302 601 480 814 L520 814 ZM809 297 L809 -96 L756 -96 L756 -31 L244 -31 L244 -96 L191 -96 L191 297 L809 297 ZM244 21 L756 21 L756 245 L244 245 L244 21 ZM242 492 L758 492 L758 439 L242 439 L242 492 Z" /><glyph glyph-name="uni5409" unicode="&#x5409;" d="M473 814 L528 814 L528 683 L935 683 L935 629 L528 629 L528 458 L884 458 L884 405 L117 405 L117 458 L473 458 L473 629 L66 629 L66 683 L473 683 L473 814 ZM824 293 L824 -97 L770 -97 L770 -49 L231 -49 L231 -97 L176 -97 L176 293 L824 293 ZM231 4 L770 4 L770 240 L231 240 L231 4 Z" /><glyph glyph-name="uni540D" unicode="&#x540d;" d="M345 -32 L345 -94 L291 -94 L291 266 Q184 230 80 205 L53 256 Q322 315 494 407 Q427 465 304 536 L351 565 Q471 493 539 433 Q703 531 779 665 L389 665 Q288 569 127 494 L92 541 Q349 653 441 816 L499 809 Q474 762 438 717 L841 717 L841 668 Q724 450 423 317 L867 317 L867 -94 L812 -94 L812 -32 L345 -32 ZM812 21 L812 266 L345 266 L345 21 L812 21 Z" /><glyph glyph-name="uni5411" unicode="&#x5411;" d="M322 455 L681 455 L681 118 L322 118 L322 455 ZM628 169 L628 404 L375 404 L375 169 L628 169 ZM501 812 Q482 733 444 663 L895 663 L895 -6 Q895 -92 812 -92 L659 -92 L644 -37 L794 -39 Q840 -39 840 6 L840 610 L168 610 L168 -96 L113 -96 L113 663 L387 663 Q427 741 445 820 L501 812 Z" /><glyph glyph-name="uni5426" unicode="&#x5426;" d="M100 762 L905 762 L905 708 L583 708 Q556 670 527 638 L527 315 L473 315 L473 585 Q329 459 87 365 L54 409 Q388 533 522 708 L100 708 L100 762 ZM824 264 L824 -94 L769 -94 L769 -38 L236 -38 L236 -94 L181 -94 L181 264 L824 264 ZM236 14 L769 14 L769 212 L236 212 L236 14 ZM638 605 Q821 498 938 396 L898 357 Q789 456 601 570 L638 605 Z" /><glyph glyph-name="uni544A" unicode="&#x544a;" d="M820 260 L820 -97 L765 -97 L765 -39 L241 -39 L241 -97 L186 -97 L186 260 L820 260 ZM241 12 L765 12 L765 208 L241 208 L241 12 ZM225 615 Q172 542 107 487 L72 532 Q213 649 261 817 L317 811 Q297 739 259 669 L481 669 L481 814 L535 814 L535 669 L880 669 L880 615 L535 615 L535 434 L950 434 L950 380 L50 380 L50 434 L481 434 L481 615 L225 615 Z" /><glyph glyph-name="uni5458" unicode="&#x5458;" d="M817 449 L817 94 L762 94 L762 399 L246 399 L246 79 L192 79 L192 449 L817 449 ZM244 774 L755 774 L755 541 L244 541 L244 774 ZM701 592 L701 723 L297 723 L297 592 L701 592 ZM537 318 Q516 100 443 23 Q361 -72 94 -96 L72 -47 Q319 -30 398 55 Q470 136 482 324 L537 318 ZM567 87 Q760 25 915 -61 L885 -107 Q716 -10 538 45 L567 87 Z" /><glyph glyph-name="uni548C" unicode="&#x548c;" d="M902 741 L902 -58 L848 -58 L848 25 L586 25 L586 -67 L533 -67 L533 741 L902 741 ZM586 76 L848 76 L848 690 L586 690 L586 76 ZM74 534 L255 534 L255 695 Q171 681 91 675 L73 725 Q290 740 447 802 L473 756 Q388 724 307 706 L307 534 L484 534 L484 483 L307 483 L307 426 Q400 341 486 242 L454 196 Q369 310 307 376 L307 -93 L255 -93 L255 387 Q190 230 71 102 L48 159 Q195 303 255 483 L74 483 L74 534 Z" /><glyph glyph-name="uni54C1" unicode="&#x54c1;" d="M229 767 L769 767 L769 456 L229 456 L229 767 ZM714 508 L714 715 L284 715 L284 508 L714 508 ZM436 338 L436 -82 L383 -82 L383 -29 L152 -29 L152 -82 L99 -82 L99 338 L436 338 ZM152 22 L383 22 L383 287 L152 287 L152 22 ZM901 338 L901 -82 L847 -82 L847 -29 L606 -29 L606 -82 L553 -82 L553 338 L901 338 ZM606 22 L847 22 L847 287 L606 287 L606 22 Z" /><glyph glyph-name="uni552E" unicode="&#x552e;" d="M844 181 L844 -102 L791 -102 L791 -47 L243 -47 L243 -102 L189 -102 L189 181 L844 181 ZM243 1 L791 1 L791 133 L243 133 L243 1 ZM188 579 Q130 510 60 449 L43 502 Q204 645 269 818 L323 808 Q304 760 279 713 L548 713 Q526 766 497 810 L552 820 Q579 773 601 713 L900 713 L900 665 L586 665 L586 579 L856 579 L856 535 L586 535 L586 454 L858 454 L858 409 L586 409 L586 319 L914 319 L914 272 L188 272 L188 579 ZM533 319 L533 409 L239 409 L239 319 L533 319 ZM533 454 L533 535 L239 535 L239 454 L533 454 ZM533 579 L533 665 L251 665 L239 647 L239 579 L533 579 Z" /><glyph glyph-name="uni5546" unicode="&#x5546;" d="M321 261 L678 261 L678 28 L321 28 L321 261 ZM625 77 L625 212 L374 212 L374 77 L625 77 ZM589 460 Q718 368 800 280 L760 241 Q684 328 553 424 L589 460 ZM492 824 Q515 781 534 725 L940 725 L940 673 L721 673 Q689 592 656 538 L883 538 L883 4 Q883 -93 802 -93 L701 -93 L687 -43 L785 -45 Q830 -45 830 15 L830 489 L168 489 L168 -90 L115 -90 L115 538 L331 538 Q307 612 271 673 L60 673 L60 725 L476 725 Q455 775 434 815 L492 824 ZM598 538 Q633 601 661 673 L331 673 Q364 607 386 538 L598 538 ZM443 423 Q355 320 226 242 L192 286 Q317 359 404 458 L443 423 Z" /><glyph glyph-name="uni5584" unicode="&#x5584;" d="M100 721 L333 721 Q311 768 282 809 L341 819 Q364 778 389 721 L613 721 Q651 772 668 821 L725 813 Q705 764 671 721 L900 721 L900 673 L527 673 L527 591 L855 591 L855 547 L527 547 L527 466 L921 466 L921 418 L766 418 Q747 364 711 309 L936 309 L936 260 L64 260 L64 309 L287 309 Q264 368 232 418 L79 418 L79 466 L473 466 L473 547 L145 547 L145 591 L473 591 L473 673 L100 673 L100 721 ZM658 309 Q692 360 713 418 L527 418 L527 309 L658 309 ZM290 418 Q316 372 338 309 L473 309 L473 418 L290 418 ZM825 174 L825 -98 L771 -98 L771 -55 L229 -55 L229 -98 L174 -98 L174 174 L825 174 ZM229 -4 L771 -4 L771 124 L229 124 L229 -4 Z" /><glyph glyph-name="uni56CA" unicode="&#x56ca;" d="M538 445 L795 445 L795 333 L677 333 L677 287 L889 287 L889 253 L677 253 L677 204 L851 204 L851 172 L677 172 L677 120 L927 120 L927 84 L557 84 Q611 34 699 1 Q750 36 784 77 L824 58 Q785 16 739 -13 Q829 -39 934 -51 L913 -93 Q626 -53 509 84 L426 84 Q388 50 334 25 L334 -57 Q436 -44 571 -22 L576 -62 Q431 -84 279 -101 L268 -66 Q288 -60 288 -51 L288 5 Q208 -27 92 -55 L68 -16 Q298 29 379 84 L74 84 L74 120 L323 120 L323 172 L148 172 L148 204 L323 204 L323 253 L107 253 L107 287 L323 287 L323 333 L205 333 L205 445 L461 445 L461 333 L376 333 L376 287 L624 287 L624 333 L538 333 L538 445 ZM749 361 L749 417 L585 417 L585 361 L749 361 ZM624 120 L624 172 L376 172 L376 120 L624 120 ZM624 204 L624 253 L376 253 L376 204 L624 204 ZM414 361 L414 418 L250 418 L250 361 L414 361 ZM83 770 L473 770 L473 818 L528 818 L528 770 L918 770 L918 730 L528 730 L528 683 L826 683 L826 564 L528 564 L528 518 L912 518 L912 389 L861 389 L861 483 L139 483 L139 389 L88 389 L88 518 L473 518 L473 564 L174 564 L174 683 L473 683 L473 730 L83 730 L83 770 ZM776 596 L776 651 L528 651 L528 596 L776 596 ZM473 596 L473 651 L224 651 L224 596 L473 596 Z" /><glyph glyph-name="uni56DB" unicode="&#x56db;" d="M902 745 L902 -82 L847 -82 L847 -19 L153 -19 L153 -82 L98 -82 L98 745 L902 745 ZM153 30 L847 30 L847 218 L670 218 Q583 218 583 304 L583 695 L419 695 L419 475 Q416 264 242 168 L198 206 Q363 290 366 475 L366 695 L153 695 L153 30 ZM636 695 L636 315 Q636 268 683 268 L847 268 L847 695 L636 695 Z" /><glyph glyph-name="uni56DE" unicode="&#x56de;" d="M318 533 L683 533 L683 184 L318 184 L318 533 ZM630 233 L630 484 L371 484 L371 233 L630 233 ZM896 752 L896 -78 L841 -78 L841 -38 L159 -38 L159 -78 L104 -78 L104 752 L896 752 ZM159 12 L841 12 L841 702 L159 702 L159 12 Z" /><glyph glyph-name="uni56E2" unicode="&#x56e2;" d="M244 526 L586 526 L586 655 L637 655 L637 526 L768 526 L768 477 L637 477 L637 161 Q637 79 560 79 L447 79 L436 129 Q508 125 542 125 Q586 125 586 174 L585 477 Q467 267 256 147 L227 194 Q427 299 539 477 L244 477 L244 526 ZM897 765 L897 -98 L845 -98 L845 -48 L155 -48 L155 -98 L103 -98 L103 765 L897 765 ZM155 2 L845 2 L845 715 L155 715 L155 2 Z" /><glyph glyph-name="uni56FD" unicode="&#x56fd;" d="M252 605 L747 605 L747 555 L527 555 L527 395 L716 395 L716 345 L527 345 L527 171 L776 171 L776 121 L225 121 L225 171 L473 171 L473 345 L284 345 L284 395 L473 395 L473 555 L252 555 L252 605 ZM904 762 L904 -96 L849 -96 L849 -48 L150 -48 L150 -96 L95 -96 L95 762 L904 762 ZM150 3 L849 3 L849 710 L150 710 L150 3 ZM646 317 Q686 262 715 202 L672 183 Q638 254 602 303 L646 317 Z" /><glyph glyph-name="uni5708" unicode="&#x5708;" d="M236 576 L334 576 Q315 619 282 664 L325 679 Q356 635 380 576 L456 576 Q471 629 481 695 L531 689 Q522 628 507 576 L605 576 Q639 629 654 682 L698 670 Q684 619 655 576 L764 576 L764 533 L493 533 Q479 495 460 456 L794 456 L794 412 L638 412 Q693 320 824 246 L794 208 Q651 300 594 412 L435 412 Q412 375 382 340 L640 340 L640 238 Q640 181 566 178 Q523 178 482 181 L471 221 Q527 217 551 217 Q593 217 593 247 L593 301 L388 301 L388 124 Q388 99 420 99 L590 99 Q649 99 665 115 Q681 137 687 191 L733 177 Q724 94 695 73 Q670 56 600 56 L405 56 Q340 56 340 112 L340 296 Q281 241 207 203 L181 243 Q307 305 379 412 L206 412 L206 456 L406 456 Q426 492 442 533 L236 533 L236 576 ZM150 -50 L150 -98 L98 -98 L98 774 L902 774 L902 -98 L850 -98 L850 -50 L150 -50 ZM850 -3 L850 728 L150 728 L150 -3 L850 -3 Z" /><glyph glyph-name="uni5728" unicode="&#x5728;" d="M361 343 L599 343 L599 536 L654 536 L654 343 L897 343 L897 289 L654 289 L654 -10 L944 -10 L944 -63 L317 -63 L317 -10 L599 -10 L599 289 L361 289 L361 343 ZM207 327 Q142 257 72 199 L37 243 Q235 406 344 619 L72 619 L72 672 L369 672 Q398 741 423 820 L478 814 Q459 746 428 672 L941 672 L941 619 L404 619 Q342 493 261 391 L261 -100 L207 -100 L207 327 Z" /><glyph glyph-name="uni5730" unicode="&#x5730;" d="M911 636 Q911 324 899 258 Q885 193 796 193 L771 193 L755 248 Q795 246 807 246 Q842 246 851 284 Q859 322 859 564 L702 517 L702 118 L650 118 L650 501 L504 457 L504 22 Q504 -29 553 -29 L819 -29 Q856 -29 871 -8 Q890 21 897 154 L948 138 Q939 -15 909 -51 Q883 -80 829 -80 L537 -80 Q452 -80 452 11 L452 442 L372 418 L372 471 L452 495 L452 713 L504 713 L504 511 L650 556 L650 814 L702 814 L702 572 L911 636 ZM375 135 Q224 67 56 26 L42 80 Q108 94 180 115 L180 484 L55 484 L55 537 L180 537 L180 811 L234 811 L234 537 L352 537 L352 484 L234 484 L234 133 Q300 156 375 189 L375 135 Z" /><glyph glyph-name="uni573A" unicode="&#x573a;" d="M420 411 L420 461 Q618 577 772 702 L431 702 L431 753 L850 753 L850 704 Q693 570 514 459 L915 459 Q907 118 885 19 Q861 -82 753 -84 Q718 -84 658 -82 L643 -29 Q711 -33 745 -33 Q809 -30 831 28 Q851 81 860 411 L773 411 Q737 225 666 118 Q589 6 432 -84 L398 -42 Q546 41 617 139 Q687 239 721 411 L628 411 Q572 221 435 115 L400 157 Q526 255 576 411 L420 411 ZM53 532 L181 532 L181 794 L235 794 L235 532 L368 532 L368 479 L235 479 L235 108 Q313 131 372 154 L372 99 Q224 43 55 7 L41 63 Q110 75 181 93 L181 479 L53 479 L53 532 Z" /><glyph glyph-name="uni5757" unicode="&#x5757;" d="M393 656 L582 656 L582 814 L635 814 L635 656 L853 656 L853 366 L946 366 L946 313 L651 313 Q744 86 954 -51 L918 -93 Q705 56 611 289 Q551 23 343 -97 L310 -53 Q513 58 564 313 L352 313 L352 366 L573 366 Q582 432 582 504 L582 605 L393 605 L393 656 ZM635 605 L635 515 Q635 444 625 366 L799 366 L799 605 L635 605 ZM51 543 L174 543 L174 808 L228 808 L228 543 L345 543 L345 489 L228 489 L228 136 Q310 167 369 195 L369 141 Q221 70 50 25 L36 80 Q113 98 174 117 L174 489 L51 489 L51 543 Z" /><glyph glyph-name="uni578B" unicode="&#x578b;" d="M96 765 L560 765 L560 715 L453 715 L453 551 L581 551 L581 499 L453 499 L453 274 L401 274 L401 499 L254 499 Q237 338 136 261 L96 297 Q188 365 201 499 L70 499 L70 551 L204 551 L204 715 L96 715 L96 765 ZM257 715 L257 551 L401 551 L401 715 L257 715 ZM653 746 L704 746 L704 403 L653 403 L653 746 ZM120 166 L477 166 L477 263 L531 263 L531 166 L881 166 L881 115 L531 115 L531 -19 L937 -19 L937 -70 L63 -70 L63 -19 L477 -19 L477 115 L120 115 L120 166 ZM680 267 L668 318 Q756 314 795 314 Q833 314 833 355 L833 802 L886 802 L886 342 Q886 267 813 267 L680 267 Z" /><glyph glyph-name="uni57CE" unicode="&#x57ce;" d="M47 551 L142 551 L142 810 L196 810 L196 551 L290 551 L290 499 L196 499 L196 173 Q248 199 288 223 L288 170 Q179 105 48 61 L35 113 Q91 128 142 149 L142 499 L47 499 L47 551 ZM407 401 L407 392 Q401 94 271 -87 L231 -52 Q349 108 355 392 L355 657 L644 657 Q642 707 642 813 L694 813 Q694 705 696 657 L926 657 L926 606 L698 606 Q705 418 727 299 Q731 273 743 225 Q804 341 841 506 L887 487 Q840 293 761 159 Q781 96 799 61 Q838 -13 863 -13 Q890 -12 909 144 L954 119 Q927 -80 874 -80 Q826 -80 771 11 Q746 55 727 107 Q639 -17 517 -83 L485 -41 Q619 29 708 166 Q689 234 680 282 Q654 410 646 606 L407 606 L407 448 L584 448 Q584 184 564 126 Q543 70 491 67 L422 67 L409 112 L478 112 Q513 116 524 166 Q532 211 535 401 L407 401 ZM813 823 Q855 763 885 694 L844 676 Q811 750 771 806 L813 823 Z" /><glyph glyph-name="uni57FA" unicode="&#x57fa;" d="M82 735 L265 735 L265 816 L319 816 L319 735 L680 735 L680 816 L734 816 L734 735 L917 735 L917 688 L734 688 L734 342 L933 342 L933 294 L711 294 Q787 191 947 134 L925 87 Q735 167 659 294 L339 294 Q263 167 83 83 L56 128 Q216 194 287 294 L66 294 L66 342 L265 342 L265 688 L82 688 L82 735 ZM319 342 L680 342 L680 429 L319 429 L319 342 ZM319 474 L680 474 L680 557 L319 557 L319 474 ZM319 601 L680 601 L680 688 L319 688 L319 601 ZM473 251 L527 251 L527 164 L735 164 L735 115 L527 115 L527 -12 L875 -12 L875 -63 L118 -63 L118 -12 L473 -12 L473 115 L263 115 L263 164 L473 164 L473 251 Z" /><glyph glyph-name="uni5883" unicode="&#x5883;" d="M376 734 L614 734 Q599 778 584 815 L640 824 Q651 796 669 734 L913 734 L913 687 L805 687 Q790 626 763 568 L942 568 L942 521 L346 521 L346 568 L511 568 Q492 639 473 687 L376 687 L376 734 ZM709 568 Q740 625 754 687 L528 687 Q548 629 564 568 L709 568 ZM413 447 L868 447 L868 142 L738 142 L738 0 Q738 -35 771 -35 L864 -35 Q886 -35 895 -21 Q908 -1 911 83 L960 67 Q952 -38 932 -63 Q913 -82 874 -82 L757 -82 Q685 -82 685 -11 L685 142 L578 142 Q560 48 502 -7 Q440 -65 296 -98 L275 -49 Q405 -22 462 26 Q511 67 529 142 L413 142 L413 447 ZM817 188 L817 275 L463 275 L463 188 L817 188 ZM463 316 L817 316 L817 402 L463 402 L463 316 ZM349 149 Q211 80 52 35 L38 93 Q98 108 158 126 L158 511 L46 511 L46 564 L158 564 L158 808 L211 808 L211 564 L308 564 L308 511 L211 511 L211 144 Q291 175 349 203 L349 149 Z" /><glyph glyph-name="uni2F20" unicode="&#x2f20;&#x58eb;" d="M57 486 L474 486 L474 815 L528 815 L528 486 L942 486 L942 433 L528 433 L528 12 L905 12 L905 -42 L97 -42 L97 12 L474 12 L474 433 L57 433 L57 486 Z" /><glyph glyph-name="uni5916" unicode="&#x5916;" d="M646 813 L700 813 L700 507 Q828 412 959 292 L925 243 Q793 375 700 447 L700 -97 L646 -97 L646 813 ZM225 413 Q313 364 386 299 Q463 438 487 614 L273 614 Q199 441 79 330 L42 376 Q217 539 278 814 L332 804 Q315 731 293 667 L539 667 L539 619 Q488 165 98 -69 L62 -23 Q253 89 360 255 Q277 329 196 370 L225 413 Z" /><glyph glyph-name="uni591A" unicode="&#x591a;" d="M552 790 Q516 749 482 722 L783 722 L783 678 Q621 390 182 355 L159 405 Q303 414 414 450 Q365 513 309 561 L356 584 Q416 529 465 468 Q632 537 720 672 L411 672 Q294 601 134 567 L102 615 Q372 669 504 815 L552 790 ZM449 192 Q513 127 565 57 Q744 133 843 282 L534 282 Q400 218 215 188 L183 236 Q508 269 668 438 L714 413 Q671 367 620 332 L912 332 L912 289 Q701 -68 121 -80 L99 -27 Q341 -24 514 37 Q459 111 401 168 L449 192 Z" /><glyph glyph-name="uni2F24" unicode="&#x2f24;&#x5927;" d="M64 546 L458 546 Q471 637 473 737 L473 813 L527 813 L527 749 Q527 641 512 546 L936 546 L936 492 L535 492 Q640 139 954 -49 L921 -93 Q606 99 496 460 Q411 73 78 -99 L44 -54 Q373 108 449 492 L64 492 L64 546 Z" /><glyph glyph-name="uni5929" unicode="&#x5929;" d="M81 455 L449 455 Q471 570 478 703 L108 703 L108 755 L892 755 L892 703 L533 703 Q524 558 505 455 L922 455 L922 402 L544 402 Q648 104 951 -55 L918 -99 Q598 71 493 399 Q467 283 422 203 Q321 27 82 -99 L47 -55 Q275 63 370 222 Q410 291 438 402 L81 402 L81 455 Z" /><glyph glyph-name="uni2F25" unicode="&#x2f25;&#x5973;" d="M61 583 L332 583 Q379 690 427 819 L482 803 Q442 695 393 583 L939 583 L939 530 L766 530 Q722 319 598 177 Q630 160 651 147 Q795 62 929 -54 L887 -95 Q749 24 596 115 Q574 128 559 136 Q390 -28 95 -94 L72 -43 Q348 17 509 163 Q371 234 194 297 Q252 408 308 530 L61 530 L61 583 ZM549 203 Q672 338 711 530 L370 530 Q326 431 270 322 Q427 265 549 203 Z" /><glyph glyph-name="uni597D" unicode="&#x597d;" d="M274 822 Q261 743 237 618 L415 618 L415 585 Q398 342 312 168 Q411 90 461 40 L424 -2 Q367 55 286 121 Q208 -9 88 -101 L52 -55 Q171 32 244 155 Q179 207 88 273 Q136 409 172 565 L58 565 L58 618 L183 618 Q206 729 221 828 L274 822 ZM269 201 Q345 357 362 565 L225 565 Q187 399 147 290 Q213 244 269 201 ZM456 389 L691 389 L691 523 Q775 597 850 703 L487 703 L487 757 L913 757 L913 703 Q840 598 745 505 L745 389 L957 389 L957 335 L745 335 L745 -2 Q745 -87 671 -87 L531 -87 L517 -35 Q597 -37 649 -37 Q691 -37 691 15 L691 335 L456 335 L456 389 Z" /><glyph glyph-name="uni5982" unicode="&#x5982;" d="M895 719 L895 -53 L842 -53 L842 7 L614 7 L614 -53 L560 -53 L560 719 L895 719 ZM614 60 L842 60 L842 665 L614 665 L614 60 ZM283 811 Q258 674 248 626 L460 626 L460 592 Q442 342 341 165 Q439 90 498 34 L461 -10 Q403 46 312 119 Q227 -6 99 -93 L63 -49 Q191 35 270 152 Q184 218 96 280 Q146 421 182 573 L56 573 L56 626 L193 626 Q215 730 228 817 L283 811 ZM298 197 Q391 360 408 573 L237 573 Q200 408 157 297 Q246 235 298 197 Z" /><glyph glyph-name="uni59CB" unicode="&#x59cb;" d="M225 812 L197 617 L349 617 L349 585 Q337 339 262 162 Q333 90 383 25 L347 -17 Q302 42 238 110 Q178 -10 83 -99 L49 -57 Q142 29 201 149 Q142 209 70 277 Q107 413 135 566 L47 566 L47 617 L144 617 Q163 741 172 818 L225 812 ZM224 201 Q287 358 299 566 L188 566 Q157 397 127 294 Q175 250 224 201 ZM880 318 L880 -98 L828 -98 L828 -35 L497 -35 L497 -98 L445 -98 L445 318 L880 318 ZM497 17 L828 17 L828 268 L497 268 L497 17 ZM392 469 Q490 529 616 815 L667 798 Q570 585 475 473 Q666 486 830 512 Q778 607 735 675 L782 698 Q865 569 942 408 L893 383 L854 465 Q652 435 402 420 L392 469 Z" /><glyph glyph-name="uni5A92" unicode="&#x5a92;" d="M224 812 Q209 694 196 617 L358 617 L358 585 Q345 346 269 171 Q339 105 379 60 L343 18 Q303 66 246 121 Q180 -8 78 -98 L43 -56 Q145 33 208 157 Q130 229 72 278 Q108 416 134 566 L49 566 L49 617 L143 617 Q162 741 171 818 L224 812 ZM230 206 Q295 363 307 566 L188 566 Q160 401 128 293 Q185 247 230 206 ZM789 408 L789 513 L534 513 L534 408 L789 408 ZM534 561 L789 561 L789 667 L534 667 L534 561 ZM534 717 L789 717 L789 812 L840 812 L840 717 L930 717 L930 667 L840 667 L840 361 L688 361 L688 260 L951 260 L951 210 L746 210 Q809 89 963 -8 L926 -53 Q769 64 707 210 L688 210 L688 -93 L634 -93 L634 210 L620 210 Q550 48 386 -54 L356 -6 Q510 79 579 210 L372 210 L372 260 L634 260 L634 361 L481 361 L481 667 L388 667 L388 717 L481 717 L481 812 L534 812 L534 717 Z" /><glyph glyph-name="uni2F26" unicode="&#x2f26;&#x5b50;" d="M66 377 L494 377 L494 529 Q628 603 752 714 L170 714 L170 766 L827 766 L827 714 Q708 602 547 499 L547 377 L934 377 L934 324 L547 324 L547 -2 Q547 -91 462 -91 L294 -91 L279 -39 L440 -40 Q494 -40 494 16 L494 324 L66 324 L66 377 Z" /><glyph glyph-name="uni5B58" unicode="&#x5b58;" d="M76 705 L356 705 Q381 770 393 817 L448 811 Q437 770 414 705 L934 705 L934 652 L393 652 Q341 527 257 414 L257 -100 L203 -100 L203 347 Q141 276 76 219 L43 263 Q236 432 334 652 L76 652 L76 705 ZM342 244 L639 244 L639 345 Q734 399 811 466 L420 466 L420 517 L881 517 L881 466 Q800 391 693 322 L693 244 L950 244 L950 191 L693 191 L693 -17 Q693 -95 614 -95 L489 -95 L475 -44 Q547 -46 593 -46 Q639 -46 639 0 L639 191 L342 191 L342 244 Z" /><glyph glyph-name="uni5B66" unicode="&#x5b66;" d="M915 607 L915 397 L861 397 L861 555 L139 555 L139 397 L85 397 L85 607 L656 607 Q725 704 776 821 L830 801 Q773 682 715 607 L915 607 ZM232 453 L770 453 L770 404 Q665 336 539 276 L539 214 L927 214 L927 162 L539 162 L539 -18 Q539 -94 461 -94 L337 -94 L323 -43 Q395 -45 442 -45 Q486 -45 486 0 L486 162 L73 162 L73 214 L486 214 L486 303 Q621 363 691 404 L232 404 L232 453 ZM209 806 Q262 739 315 646 L267 623 Q215 715 160 783 L209 806 ZM454 824 Q504 749 548 658 L500 633 Q454 729 404 800 L454 824 Z" /><glyph glyph-name="uni5B8C" unicode="&#x5b8c;" d="M918 701 L918 486 L864 486 L864 649 L134 649 L134 486 L80 486 L80 701 L474 701 Q453 761 432 804 L492 814 Q516 758 532 701 L918 701 ZM220 516 L776 516 L776 464 L220 464 L220 516 ZM68 328 L933 328 L933 275 L643 275 L643 16 Q643 -29 689 -29 L828 -29 Q860 -29 874 -10 Q891 15 897 134 L948 118 Q939 -22 912 -55 Q889 -81 839 -81 L673 -81 Q589 -81 589 5 L589 275 L408 275 L408 264 Q405 117 328 28 Q253 -54 83 -102 L52 -54 Q220 -10 288 64 Q351 142 354 264 L354 275 L68 275 L68 328 Z" /><glyph glyph-name="uni5B98" unicode="&#x5b98;" d="M906 717 L906 522 L852 522 L852 663 L148 663 L148 523 L94 523 L94 717 L477 717 Q450 775 418 818 L475 828 Q505 779 532 717 L906 717 ZM765 548 L765 313 L285 313 L285 195 L811 195 L811 -98 L757 -98 L757 -55 L285 -55 L285 -99 L231 -99 L231 548 L765 548 ZM285 -7 L757 -7 L757 148 L285 148 L285 -7 ZM285 360 L712 360 L712 500 L285 500 L285 360 Z" /><glyph glyph-name="uni5B9A" unicode="&#x5b9a;" d="M210 512 L792 512 L792 460 L532 460 L532 265 L838 265 L838 213 L532 213 L532 -11 Q637 -27 790 -29 Q839 -29 949 -25 L938 -78 L814 -78 Q519 -78 393 -24 Q290 26 228 132 Q170 -4 81 -97 L46 -54 Q193 103 244 371 L296 361 Q277 270 249 187 Q320 48 433 12 L478 0 L478 460 L210 460 L210 512 ZM902 708 L902 504 L848 504 L848 656 L152 656 L152 500 L98 500 L98 708 L485 708 Q464 761 433 814 L490 824 Q519 767 540 708 L902 708 Z" /><glyph glyph-name="uni5B9D" unicode="&#x5b9d;" d="M475 455 L181 455 L181 507 L827 507 L827 455 L530 455 L530 266 L794 266 L794 214 L530 214 L530 -14 L916 -14 L916 -65 L89 -65 L89 -14 L475 -14 L475 214 L204 214 L204 266 L475 266 L475 455 ZM703 177 Q779 92 818 29 L777 -1 Q740 61 662 151 L703 177 ZM894 706 L894 522 L839 522 L839 653 L156 653 L156 514 L101 514 L101 706 L481 706 Q463 751 435 800 L492 810 Q514 770 538 706 L894 706 Z" /><glyph glyph-name="uni5B9E" unicode="&#x5b9e;" d="M901 705 L901 515 L846 515 L846 654 L154 654 L154 511 L99 511 L99 705 L483 705 Q461 767 438 815 L495 825 Q518 768 536 705 L901 705 ZM208 448 Q318 405 418 339 L389 295 Q290 365 181 408 L208 448 ZM271 601 Q378 559 474 494 L445 451 Q348 523 244 562 L271 601 ZM587 592 L641 592 L641 491 Q638 351 596 246 L932 246 L932 195 L572 195 Q556 165 533 136 Q748 55 927 -56 L896 -103 Q707 20 501 97 Q379 -25 120 -97 L90 -51 Q365 23 478 151 Q489 165 509 195 L65 195 L65 246 L536 246 Q584 351 587 491 L587 592 Z" /><glyph glyph-name="uni5BA2" unicode="&#x5ba2;" d="M788 204 L788 -100 L735 -100 L735 -55 L284 -55 L284 -100 L231 -100 L231 204 L788 204 ZM284 -5 L735 -5 L735 155 L284 155 L284 -5 ZM436 643 Q414 608 384 569 L761 569 L761 524 Q693 433 570 364 Q739 291 956 273 L943 223 Q700 244 515 336 Q335 251 65 202 L44 252 Q300 295 461 365 Q377 413 300 479 Q238 423 169 380 L135 421 Q291 514 383 656 L436 643 ZM515 390 Q629 447 697 521 L342 521 Q336 515 333 511 Q417 439 515 390 ZM900 733 L900 554 L845 554 L845 684 L155 684 L155 554 L100 554 L100 733 L474 733 Q458 773 433 812 L492 822 Q509 790 530 733 L900 733 Z" /><glyph glyph-name="uni5BA3" unicode="&#x5ba3;" d="M215 431 L786 431 L786 79 L215 79 L215 431 ZM732 128 L732 232 L269 232 L269 128 L732 128 ZM269 279 L732 279 L732 382 L269 382 L269 279 ZM910 720 L910 551 L856 551 L856 667 L143 667 L143 552 L89 552 L89 720 L477 720 Q457 772 439 804 L500 815 Q520 771 536 720 L910 720 ZM169 569 L831 569 L831 520 L169 520 L169 569 ZM85 -20 L916 -20 L916 -70 L85 -70 L85 -20 Z" /><glyph glyph-name="uni5BB6" unicode="&#x5bb6;" d="M662 299 Q617 283 585 276 Q610 203 613 115 Q613 0 582 -47 Q548 -96 424 -96 L389 -96 L371 -49 L417 -49 Q509 -47 533 -21 Q561 15 561 115 Q560 150 555 182 Q390 47 103 -41 L76 6 Q381 96 543 235 Q532 278 509 323 Q365 207 115 135 L89 182 Q348 253 485 363 Q460 400 436 425 L404 409 Q293 358 134 314 L105 359 Q251 393 366 442 Q432 471 492 507 L199 507 L199 558 L802 558 L802 507 L570 507 Q522 474 477 447 Q534 389 567 319 Q713 358 843 444 L880 408 Q799 353 706 315 Q778 117 940 0 L902 -45 Q732 90 662 299 ZM504 821 Q524 774 540 720 L917 720 L917 556 L863 556 L863 669 L136 669 L136 556 L82 556 L82 720 L487 720 Q472 762 449 812 L504 821 Z" /><glyph glyph-name="uni5BB9" unicode="&#x5bb9;" d="M502 819 Q520 780 539 725 L901 725 L901 558 L847 558 L847 674 L153 674 L153 552 L99 552 L99 725 L484 725 Q467 770 445 810 L502 819 ZM523 499 Q647 345 943 227 L914 183 Q637 291 502 452 Q338 279 84 182 L54 226 Q330 331 480 499 L523 499 ZM790 224 L790 -98 L737 -98 L737 -52 L274 -52 L274 -98 L220 -98 L220 224 L790 224 ZM274 -3 L737 -3 L737 174 L274 174 L274 -3 ZM611 620 Q789 529 914 433 L877 396 Q769 484 575 586 L611 620 ZM423 589 Q297 479 109 396 L77 438 Q258 515 386 622 L423 589 Z" /><glyph glyph-name="uni5BF9" unicode="&#x5bf9;" d="M479 616 L774 616 L774 816 L829 816 L829 616 L947 616 L947 563 L829 563 L829 -5 Q829 -94 739 -94 L578 -94 L566 -42 Q674 -46 720 -46 Q774 -46 774 9 L774 563 L479 563 L479 616 ZM112 556 Q211 448 295 340 Q356 486 369 656 L89 656 L89 709 L419 709 L419 669 Q407 460 331 293 Q403 195 453 115 L413 75 Q370 148 304 240 Q220 87 76 -30 L45 17 Q189 131 270 286 Q190 392 74 521 L112 556 ZM522 432 Q626 306 681 210 L638 180 Q574 290 480 403 L522 432 Z" /><glyph glyph-name="uni5BFB" unicode="&#x5bfb;" d="M205 614 L748 614 L748 721 L178 721 L178 771 L801 771 L801 407 L166 407 L166 457 L748 457 L748 565 L205 565 L205 614 ZM61 294 L667 294 L667 373 L721 373 L721 294 L940 294 L940 241 L721 241 L721 -14 Q721 -92 642 -92 L512 -92 L500 -40 Q586 -44 623 -44 Q667 -44 667 0 L667 241 L61 241 L61 294 ZM275 185 Q380 109 449 34 L411 -4 Q344 71 237 150 L275 185 Z" /><glyph glyph-name="uni5C01" unicode="&#x5c01;" d="M81 672 L257 672 L257 803 L311 803 L311 672 L485 672 L485 621 L311 621 L311 475 L504 475 L504 423 L58 423 L58 475 L257 475 L257 621 L81 621 L81 672 ZM74 252 L257 252 L257 378 L311 378 L311 252 L490 252 L490 201 L311 201 L311 15 Q421 32 515 51 L515 -4 Q322 -45 64 -71 L57 -14 Q133 -7 257 8 L257 201 L74 201 L74 252 ZM519 607 L798 607 L798 816 L852 816 L852 607 L946 607 L946 554 L852 554 L852 1 Q852 -88 758 -88 L631 -88 L619 -36 Q703 -40 739 -40 Q798 -40 798 14 L798 554 L519 554 L519 607 ZM598 433 Q668 323 720 196 L675 173 Q620 308 552 413 L598 433 Z" /><glyph glyph-name="uni5C06" unicode="&#x5c06;" d="M387 324 L774 324 L774 430 L828 430 L828 324 L956 324 L956 271 L828 271 L828 -12 Q828 -94 741 -94 L608 -94 L597 -42 Q683 -46 722 -46 Q774 -46 774 1 L774 271 L387 271 L387 324 ZM261 815 L316 815 L316 -97 L261 -97 L261 252 Q156 153 66 96 L42 148 Q132 202 261 316 L261 815 ZM504 219 Q591 122 636 53 L593 23 Q544 101 464 193 L504 219 ZM577 685 Q507 602 401 547 L366 589 Q535 673 593 815 L649 805 Q635 769 613 735 L914 735 L914 689 Q821 466 442 375 L414 423 Q540 453 634 495 Q579 547 528 582 L567 611 Q626 569 678 518 Q801 587 853 685 L577 685 ZM90 695 Q163 597 218 481 L170 460 Q111 585 43 676 L90 695 Z" /><glyph glyph-name="uni2F29" unicode="&#x2f29;&#x5c0f;" d="M297 -86 L284 -31 Q382 -35 423 -35 Q488 -35 488 33 L488 799 L544 799 L544 19 Q544 -86 443 -86 L297 -86 ZM278 546 Q204 249 85 95 L38 135 Q162 296 225 567 L278 546 ZM766 590 Q894 316 961 115 L912 81 Q839 299 717 560 L766 590 Z" /><glyph glyph-name="uni5C11" unicode="&#x5c11;" d="M318 673 Q238 437 108 314 L63 354 Q197 479 266 694 L318 673 ZM803 359 Q628 5 107 -97 L77 -46 Q589 52 755 387 L803 359 ZM472 812 L528 812 L528 229 L472 229 L472 812 ZM695 711 Q848 546 961 355 L911 329 Q792 530 645 689 L695 711 Z" /><glyph glyph-name="uni5C14" unicode="&#x5c14;" d="M720 383 Q836 203 921 -1 L871 -24 Q781 197 670 366 L720 383 ZM286 640 Q223 504 134 417 L95 453 Q232 597 298 823 L350 810 Q334 757 309 692 L867 692 L867 656 Q843 548 807 443 L753 458 Q789 539 810 640 L286 640 ZM326 -93 L314 -41 Q398 -45 434 -45 Q480 -45 480 5 L480 537 L534 537 L534 -9 Q534 -93 453 -93 L326 -93 ZM338 359 Q243 144 120 -5 L76 27 Q200 174 291 382 L338 359 Z" /><glyph glyph-name="uni5C31" unicode="&#x5c31;" d="M57 708 L269 708 Q247 763 219 810 L276 819 Q302 768 323 708 L510 708 L510 656 L57 656 L57 708 ZM111 560 L451 560 L451 325 L311 325 L311 -15 Q311 -89 239 -89 L165 -89 L154 -39 Q200 -43 221 -43 Q257 -43 257 -2 L257 325 L111 325 L111 560 ZM400 372 L400 513 L162 513 L162 372 L400 372 ZM176 247 Q144 117 91 12 L44 29 Q93 120 130 259 L176 247 ZM415 262 Q461 159 487 71 L442 54 Q412 153 370 250 L415 262 ZM785 798 Q861 713 900 652 L859 624 Q817 690 744 772 L785 798 ZM615 813 L668 813 L668 575 L925 575 L925 522 L788 522 L788 4 Q788 -32 821 -32 L853 -32 Q875 -32 884 -9 Q897 22 901 168 L948 153 Q942 -10 920 -51 Q901 -82 862 -82 L806 -82 Q738 -82 738 -7 L738 522 L667 522 Q658 99 498 -100 L457 -64 Q608 123 615 522 L512 522 L512 575 L615 575 L615 813 Z" /><glyph glyph-name="uni5C45" unicode="&#x5c45;" d="M207 359 Q192 98 88 -98 L46 -60 Q156 138 157 449 L157 769 L878 769 L878 536 L595 536 L595 410 L922 410 L922 359 L595 359 L595 224 L853 224 L853 -100 L801 -100 L801 -47 L350 -47 L350 -100 L298 -100 L298 224 L542 224 L542 359 L207 359 ZM542 536 L210 536 L210 430 L209 410 L542 410 L542 536 ZM350 3 L801 3 L801 174 L350 174 L350 3 ZM824 718 L210 718 L210 585 L824 585 L824 718 Z" /><glyph glyph-name="uni5C55" unicode="&#x5c55;" d="M258 430 L409 430 L409 545 L462 545 L462 430 L680 430 L680 547 L204 547 L204 433 Q204 346 193 261 L409 261 L409 380 L258 380 L258 430 ZM186 211 Q156 39 81 -98 L38 -60 Q148 131 149 433 L149 772 L873 772 L873 547 L734 547 L734 430 L896 430 L896 380 L734 380 L734 261 L928 261 L928 211 L593 211 Q634 135 699 76 Q776 114 843 194 L880 157 Q818 83 741 43 Q832 -23 959 -50 L934 -100 Q653 -31 539 211 L393 211 L393 -31 Q498 -4 572 29 L582 -21 Q471 -64 327 -95 L312 -47 Q340 -35 340 -7 L340 211 L186 211 ZM462 261 L680 261 L680 380 L462 380 L462 261 ZM819 721 L204 721 L204 596 L819 596 L819 721 Z" /><glyph glyph-name="uni5C5E" unicode="&#x5c5e;" d="M314 427 L550 427 L550 490 Q410 485 279 485 L264 526 Q619 527 854 555 L877 514 Q767 500 602 492 L602 427 L842 427 L842 260 L602 260 L602 193 L912 193 L912 -18 Q912 -96 840 -96 L735 -96 L722 -49 L824 -51 Q862 -51 862 -8 L862 148 L722 148 Q764 65 792 -14 L752 -32 Q752 -30 733 22 Q584 0 398 -15 L388 30 Q492 37 550 43 L550 148 L315 148 L315 -97 L264 -97 L264 193 L550 193 L550 260 L314 260 L314 427 ZM600 148 L600 48 L717 61 Q699 103 681 139 L710 148 L600 148 ZM793 302 L793 384 L602 384 L602 302 L793 302 ZM550 302 L550 384 L364 384 L364 302 L550 302 ZM838 728 L206 728 L206 640 L838 640 L838 728 ZM206 597 L206 486 Q205 155 90 -86 L49 -50 Q152 158 154 486 L154 773 L890 773 L890 597 L206 597 Z" /><glyph glyph-name="uni5C81" unicode="&#x5c81;" d="M807 616 L807 768 L860 768 L860 565 L142 565 L142 768 L195 768 L195 616 L473 616 L473 824 L527 824 L527 616 L807 616 ZM369 259 Q490 172 567 95 Q716 197 773 364 L395 364 Q296 253 135 169 L100 214 Q354 342 444 527 L498 521 Q473 464 435 413 L829 413 L829 370 Q709 -36 149 -100 L122 -51 Q366 -24 522 66 Q445 143 331 224 L369 259 Z" /><glyph glyph-name="uni5C97" unicode="&#x5c97;" d="M473 815 L527 815 L527 645 L809 645 L809 771 L863 771 L863 593 L137 593 L137 771 L191 771 L191 645 L473 645 L473 815 ZM304 374 Q423 301 523 227 Q604 308 666 404 L711 376 Q639 273 565 196 Q663 121 735 54 L697 15 Q625 84 527 159 Q424 65 270 -18 L239 29 Q380 95 485 191 Q370 275 267 339 L304 374 ZM666 -91 L652 -39 L770 -42 Q820 -42 820 11 L820 452 L180 452 L180 -92 L128 -92 L128 503 L872 503 L872 0 Q872 -91 788 -91 L666 -91 Z" /><glyph glyph-name="uni5CF0" unicode="&#x5cf0;" d="M76 691 L121 691 L121 72 L201 82 L201 809 L246 809 L246 89 L327 104 L327 691 L372 691 L372 4 L327 4 L327 55 Q223 35 81 21 L60 65 Q76 70 76 79 L76 691 ZM443 352 L651 352 L651 431 L705 431 L705 352 L908 352 L908 304 L705 304 L705 206 L886 206 L886 158 L705 158 L705 63 L942 63 L942 15 L705 15 L705 -97 L651 -97 L651 15 L419 15 L419 63 L651 63 L651 158 L462 158 L462 206 L651 206 L651 304 L443 304 L443 352 ZM645 805 Q627 768 604 734 L870 734 L870 691 Q826 597 722 527 Q825 480 955 457 L936 409 Q773 440 671 495 Q563 437 408 399 L382 446 Q523 476 622 524 Q554 570 516 626 Q488 598 451 569 L417 609 Q530 691 596 817 L645 805 ZM673 552 Q765 609 812 687 L570 687 Q556 669 549 661 Q596 596 673 552 Z" /><glyph glyph-name="uni5DDE" unicode="&#x5dde;" d="M196 562 Q175 407 120 268 L70 285 Q127 420 148 574 L196 562 ZM559 777 L611 777 L611 -64 L559 -64 L559 777 ZM835 809 L886 809 L886 -98 L835 -98 L835 809 ZM396 551 Q461 433 508 300 L464 277 Q411 426 351 531 L396 551 ZM278 802 L329 802 L329 499 Q326 90 137 -99 L97 -63 Q275 112 278 499 L278 802 ZM674 559 Q737 447 785 311 L741 288 Q690 429 630 540 L674 559 Z" /><glyph glyph-name="uni2F2F" unicode="&#x2f2f;&#x5de5;" d="M477 688 L121 688 L121 740 L888 740 L888 688 L531 688 L531 7 L931 7 L931 -47 L69 -47 L69 7 L477 7 L477 688 Z" /><glyph glyph-name="uni2F30" unicode="&#x2f30;&#x5df1;" d="M940 190 Q928 27 902 -18 Q875 -65 800 -65 L251 -65 Q148 -65 148 30 L148 424 L771 424 L771 704 L89 704 L89 756 L826 756 L826 371 L203 371 L203 47 Q203 -12 271 -13 L790 -13 Q847 -13 865 32 Q881 77 887 207 L940 190 Z" /><glyph glyph-name="uni5DF4" unicode="&#x5df4;" d="M469 704 L183 704 L183 403 L469 403 L469 704 ZM524 403 L810 403 L810 704 L524 704 L524 403 ZM864 757 L864 351 L183 351 L183 44 Q183 -11 240 -13 L801 -13 Q850 -12 871 31 Q886 68 895 201 L947 184 Q938 60 921 13 Q892 -64 815 -65 L222 -65 Q128 -65 128 27 L128 757 L864 757 Z" /><glyph glyph-name="uni5E02" unicode="&#x5e02;" d="M60 694 L478 694 Q453 760 422 816 L479 826 Q508 769 533 694 L940 694 L940 641 L527 641 L527 493 L853 493 L853 137 Q853 50 770 50 L671 50 L656 102 L752 100 Q799 100 799 149 L799 442 L527 442 L527 -95 L473 -95 L473 442 L213 442 L213 44 L160 44 L160 493 L473 493 L473 641 L60 641 L60 694 Z" /><glyph glyph-name="uni5E03" unicode="&#x5e03;" d="M536 553 L589 553 L589 426 L874 426 L874 94 Q874 7 788 7 L692 7 L679 59 L771 56 Q822 56 822 105 L822 375 L589 375 L589 -97 L536 -97 L536 375 L302 375 L302 1 L250 1 L250 394 Q172 310 74 236 L39 281 Q241 432 353 624 L72 624 L72 678 L382 678 Q416 749 439 818 L494 812 Q470 738 442 678 L937 678 L937 624 L415 624 Q360 522 279 426 L536 426 L536 553 Z" /><glyph glyph-name="uni5E08" unicode="&#x5e08;" d="M397 767 L953 767 L953 715 L702 715 L702 575 L909 575 L909 90 Q909 14 840 14 L771 14 L757 67 L822 65 Q856 65 856 102 L856 524 L702 524 L702 -92 L648 -92 L648 524 L494 524 L494 5 L441 5 L441 575 L648 575 L648 715 L397 715 L397 767 ZM95 678 L149 678 L149 158 L95 158 L95 678 ZM271 807 L325 807 L325 336 Q321 40 119 -98 L77 -62 Q268 61 271 336 L271 807 Z" /><glyph glyph-name="uni5E0C" unicode="&#x5e0c;" d="M70 464 L398 464 Q431 518 455 572 L508 566 Q488 516 458 464 L940 464 L940 413 L426 413 Q373 338 303 271 L524 271 L524 369 L579 369 L579 271 L846 271 L846 37 Q846 -54 765 -54 L685 -54 L670 -2 L747 -5 Q793 -5 793 48 L793 221 L579 221 L579 -103 L524 -103 L524 221 L328 221 L328 -64 L274 -64 L274 245 Q192 174 83 109 L51 151 Q249 265 362 413 L70 413 L70 464 ZM813 787 Q717 726 607 674 Q734 628 859 570 L829 526 Q684 594 540 645 Q393 585 174 534 L144 580 Q326 616 469 670 Q343 714 193 753 L222 795 Q390 751 538 698 Q663 750 765 816 L813 787 Z" /><glyph glyph-name="uni5E26" unicode="&#x5e26;" d="M58 697 L212 697 L212 805 L263 805 L263 697 L469 697 L469 809 L523 809 L523 697 L732 697 L732 805 L784 805 L784 697 L942 697 L942 646 L784 646 L784 532 L732 532 L732 646 L523 646 L523 528 L469 528 L469 646 L263 646 L263 532 L212 532 L212 646 L58 646 L58 697 ZM903 462 L903 275 L849 275 L849 410 L525 410 L525 285 L786 285 L786 50 Q786 -30 708 -30 L620 -30 L605 23 L690 21 Q733 21 733 61 L733 234 L525 234 L525 -101 L471 -101 L471 234 L273 234 L273 -31 L219 -31 L219 285 L471 285 L471 410 L150 410 L150 273 L96 273 L96 462 L903 462 Z" /><glyph glyph-name="uni5E2E" unicode="&#x5e2e;" d="M111 613 L295 613 L295 700 L92 700 L92 748 L295 748 L295 813 L349 813 L349 748 L533 748 L533 700 L349 700 L349 613 L505 613 L505 566 L348 566 Q345 518 336 479 L531 479 L531 430 L321 430 Q307 397 290 373 Q235 298 109 255 L80 300 Q198 339 249 407 L262 430 L63 430 L63 479 L280 479 Q291 516 294 566 L111 566 L111 613 ZM482 327 L536 327 L536 228 L853 228 L853 33 Q853 -42 774 -42 L690 -42 L676 8 L757 6 Q800 6 800 44 L800 178 L536 178 L536 -105 L482 -105 L482 178 L222 178 L222 -43 L169 -43 L169 228 L482 228 L482 327 ZM596 768 L907 768 L907 731 Q870 649 820 575 Q910 503 910 446 Q908 369 831 351 Q792 340 730 340 L711 390 Q735 387 752 387 Q855 389 855 446 Q855 488 760 575 Q814 646 848 719 L649 719 L649 302 L596 302 L596 768 Z" /><glyph glyph-name="uni5E38" unicode="&#x5e38;" d="M473 311 L250 311 L250 520 L752 520 L752 311 L527 311 L527 217 L848 217 L848 36 Q848 -44 763 -44 L684 -44 L669 8 L745 5 Q794 5 794 48 L794 167 L527 167 L527 -101 L473 -101 L473 167 L212 167 L212 -51 L159 -51 L159 217 L473 217 L473 311 ZM473 820 L527 820 L527 662 L668 662 Q718 729 753 804 L804 787 Q766 713 725 662 L906 662 L906 470 L852 470 L852 610 L148 610 L148 469 L94 469 L94 662 L258 662 Q230 725 186 779 L238 798 Q279 738 312 662 L473 662 L473 820 ZM699 357 L699 474 L303 474 L303 357 L699 357 Z" /><glyph glyph-name="uni5E73" unicode="&#x5e73;" d="M100 765 L903 765 L903 711 L523 711 L523 316 L940 316 L940 263 L523 263 L523 -97 L469 -97 L469 263 L60 263 L60 316 L469 316 L469 711 L100 711 L100 765 ZM208 634 Q268 526 318 403 L267 378 Q219 501 158 610 L208 634 ZM846 618 Q799 499 722 381 L673 406 Q751 525 796 641 L846 618 Z" /><glyph glyph-name="uni5E74" unicode="&#x5e74;" d="M246 644 Q185 536 89 463 L52 509 Q206 626 260 823 L315 813 Q298 753 273 697 L905 697 L905 644 L584 644 L584 465 L870 465 L870 414 L584 414 L584 181 L937 181 L937 127 L584 127 L584 -101 L531 -101 L531 127 L62 127 L62 181 L231 181 L231 465 L531 465 L531 644 L246 644 ZM286 181 L531 181 L531 414 L286 414 L286 181 Z" /><glyph glyph-name="uni5E76" unicode="&#x5e76;" d="M292 825 Q350 741 392 656 L343 632 Q295 727 243 801 L292 825 ZM647 567 L371 567 L371 466 Q370 385 362 316 L647 316 L647 567 ZM647 263 L354 263 Q335 167 304 100 Q241 -27 97 -100 L65 -50 Q204 20 261 142 Q284 193 298 263 L57 263 L57 316 L307 316 Q315 382 317 466 L317 567 L98 567 L98 620 L605 620 Q667 717 710 825 L768 805 Q723 701 667 620 L905 620 L905 567 L701 567 L701 316 L944 316 L944 263 L701 263 L701 -93 L647 -93 L647 263 Z" /><glyph glyph-name="uni2F34" unicode="&#x2f34;&#x5e7f;" d="M515 831 Q549 766 573 704 L942 704 L942 651 L194 651 L194 418 Q190 91 89 -107 L44 -66 Q136 108 140 418 L140 704 L516 704 Q489 767 456 821 L515 831 Z" /><glyph glyph-name="uni5E93" unicode="&#x5e93;" d="M524 823 Q553 778 578 721 L942 721 L942 667 L194 667 L194 430 Q190 101 92 -99 L47 -58 Q135 117 140 430 L140 721 L520 721 Q495 771 465 813 L524 823 ZM529 618 Q519 584 498 527 L899 527 L899 478 L478 478 Q432 370 380 294 L592 294 L592 422 L646 422 L646 294 L876 294 L876 245 L646 245 L646 113 L951 113 L951 63 L646 63 L646 -99 L592 -99 L592 63 L223 63 L223 113 L592 113 L592 245 L322 245 L311 290 Q375 369 422 478 L260 478 L260 527 L442 527 Q464 587 477 629 L529 618 Z" /><glyph glyph-name="uni5E94" unicode="&#x5e94;" d="M226 2 L646 2 Q742 218 814 539 L867 524 Q802 226 704 2 L927 2 L927 -51 L226 -51 L226 2 ZM322 491 Q385 322 431 122 L380 108 Q338 297 275 475 L322 491 ZM516 561 Q569 398 610 180 L559 167 Q523 364 469 545 L516 561 ZM515 823 Q545 775 572 715 L942 715 L942 662 L194 662 L194 428 Q190 100 89 -98 L44 -57 Q135 117 140 428 L140 715 L515 715 Q487 770 456 813 L515 823 Z" /><glyph glyph-name="uni5EA6" unicode="&#x5ea6;" d="M263 264 L844 264 L844 223 Q754 111 624 35 Q763 -27 953 -54 L929 -101 Q719 -65 573 8 Q421 -66 221 -100 L197 -52 Q379 -25 519 38 Q394 113 320 217 L263 217 L263 264 ZM377 217 Q453 125 569 62 Q691 125 775 217 L377 217 ZM201 550 L377 550 L377 640 L430 640 L430 550 L718 550 L718 640 L771 640 L771 550 L927 550 L927 498 L771 498 L771 342 L377 342 L377 498 L201 498 L201 550 ZM430 498 L430 389 L718 389 L718 498 L430 498 ZM546 819 Q563 785 583 730 L930 730 L930 678 L194 678 L194 403 Q188 94 86 -95 L45 -58 Q136 108 140 403 L140 730 L530 730 Q510 775 490 809 L546 819 Z" /><glyph glyph-name="uni5EB7" unicode="&#x5eb7;" d="M832 280 L586 280 L586 222 Q633 171 688 126 Q773 179 835 247 L873 212 Q812 150 727 98 Q826 29 949 -19 L922 -67 Q725 17 586 162 L586 -25 Q586 -93 520 -93 L406 -93 L395 -43 Q471 -47 502 -47 Q533 -47 533 -13 L533 131 Q400 29 219 -49 L198 -1 Q391 76 533 185 L533 280 L277 280 L277 326 L533 326 L533 417 L188 417 Q180 96 82 -95 L42 -59 Q131 116 134 425 L134 739 L521 739 Q502 778 479 812 L536 822 Q556 786 575 739 L926 739 L926 690 L586 690 L586 602 L832 602 L832 463 L938 463 L938 417 L832 417 L832 280 ZM188 463 L533 463 L533 556 L283 556 L283 602 L533 602 L533 690 L188 690 L188 463 ZM586 556 L586 463 L781 463 L781 556 L586 556 ZM781 417 L586 417 L586 326 L781 326 L781 417 ZM274 227 Q353 194 413 151 L387 111 Q315 162 247 188 L274 227 Z" /><glyph glyph-name="uni5EFA" unicode="&#x5efa;" d="M866 412 L652 412 L652 320 L893 320 L893 273 L652 273 L652 174 L921 174 L921 127 L652 127 L652 15 L598 15 L598 127 L365 127 L365 174 L598 174 L598 273 L395 273 L395 320 L598 320 L598 412 L416 412 L416 460 L598 460 L598 553 L367 553 L367 599 L598 599 L598 693 L416 693 L416 740 L598 740 L598 816 L652 816 L652 740 L866 740 L866 599 L939 599 L939 553 L866 553 L866 412 ZM652 693 L652 599 L814 599 L814 693 L652 693 ZM652 553 L652 460 L814 460 L814 553 L652 553 ZM619 -24 Q723 -24 951 -20 L941 -72 L643 -72 Q377 -72 262 7 Q235 28 221 45 Q170 -29 97 -86 L62 -41 Q139 14 186 88 Q127 171 89 306 L134 323 Q169 206 212 134 Q269 249 278 409 L91 409 L91 451 Q179 565 260 705 L84 705 L84 757 L321 757 L321 712 Q241 567 162 459 L329 459 L329 425 Q323 226 246 86 Q271 57 304 37 Q408 -21 619 -24 Z" /><glyph glyph-name="uni5F00" unicode="&#x5f00;" d="M115 750 L887 750 L887 697 L715 697 L715 413 L940 413 L940 360 L715 360 L715 -90 L661 -90 L661 360 L354 360 Q342 203 297 99 Q240 -25 110 -95 L79 -49 Q203 20 255 140 Q289 230 300 360 L61 360 L61 413 L303 413 L304 457 L304 697 L115 697 L115 750 ZM358 697 L358 435 L357 413 L661 413 L661 697 L358 697 Z" /><glyph glyph-name="uni5F08" unicode="&#x5f08;" d="M495 825 Q512 789 533 722 L927 722 L927 670 L660 670 L660 439 Q660 351 575 351 L482 351 L471 402 Q531 398 557 398 Q606 398 606 452 L606 670 L417 670 L417 598 Q414 413 246 326 L205 361 Q361 436 364 598 L364 670 L73 670 L73 722 L478 722 Q459 776 439 816 L495 825 ZM54 211 L326 211 L327 313 L380 313 L379 211 L647 211 L647 316 L701 316 L701 211 L946 211 L946 159 L701 159 L701 -96 L647 -96 L647 159 L375 159 Q346 -33 139 -98 L111 -52 Q299 -1 322 159 L54 159 L54 211 ZM275 572 Q198 481 81 409 L49 452 Q158 518 236 607 L275 572 ZM756 601 Q882 513 958 434 L920 395 Q843 478 720 566 L756 601 Z" /><glyph glyph-name="uni5F0F" unicode="&#x5f0f;" d="M66 630 L564 630 Q559 704 559 813 L615 813 Q615 703 620 630 L934 630 L934 576 L623 576 Q641 308 706 132 Q770 -32 825 -35 Q862 -27 895 145 L944 120 Q899 -93 828 -94 Q704 -88 614 237 Q579 379 567 576 L66 576 L66 630 ZM83 395 L501 395 L501 343 L319 343 L319 62 Q418 80 541 111 L541 57 Q327 5 77 -30 L64 22 Q166 34 265 52 L265 343 L83 343 L83 395 ZM765 806 Q821 741 863 673 L817 650 Q771 723 720 784 L765 806 Z" /><glyph glyph-name="uni5F15" unicode="&#x5f15;" d="M783 815 L837 815 L837 -99 L783 -99 L783 815 ZM177 497 L138 315 L532 315 Q532 72 512 -3 Q488 -88 332 -91 Q302 -91 238 -87 L225 -36 Q278 -41 321 -41 Q439 -41 460 17 Q477 79 477 264 L80 264 L132 547 L467 547 L467 720 L101 720 L101 770 L521 770 L521 497 L177 497 Z" /><glyph glyph-name="uni5F3A" unicode="&#x5f3a;" d="M424 436 L640 436 L640 532 L461 532 L461 770 L874 770 L874 532 L694 532 L694 436 L908 436 L908 177 L694 177 L694 6 Q765 15 848 27 Q828 78 803 130 L853 144 Q911 18 942 -81 L893 -99 Q881 -62 866 -20 Q652 -53 409 -77 L396 -25 Q519 -15 640 -1 L640 177 L424 177 L424 436 ZM859 225 L859 389 L694 389 L694 225 L859 225 ZM640 225 L640 389 L474 389 L474 225 L640 225 ZM150 496 L128 318 L345 318 Q345 73 330 -2 Q310 -87 184 -90 Q162 -90 110 -86 L97 -36 Q149 -40 174 -40 Q263 -40 278 18 Q293 80 293 270 L73 270 L102 546 L283 546 L283 718 L81 718 L81 769 L334 769 L334 496 L150 496 ZM823 578 L823 723 L511 723 L511 578 L823 578 Z" /><glyph glyph-name="uni5F53" unicode="&#x5f53;" d="M126 483 L474 483 L474 805 L530 805 L530 483 L869 483 L869 -91 L815 -91 L815 -48 L117 -48 L117 5 L815 5 L815 197 L172 197 L172 248 L815 248 L815 430 L126 430 L126 483 ZM874 740 Q822 630 743 533 L694 559 Q777 664 824 763 L874 740 ZM184 752 Q272 643 316 565 L270 533 Q224 617 138 724 L184 752 Z" /><glyph glyph-name="uni5F62" unicode="&#x5f62;" d="M64 770 L559 770 L559 719 L454 719 L454 412 L574 412 L574 359 L454 359 L454 -91 L399 -91 L399 359 L228 359 Q216 49 85 -97 L44 -61 Q165 75 174 359 L46 359 L46 412 L175 412 L175 719 L64 719 L64 770 ZM229 719 L229 412 L399 412 L399 719 L229 719 ZM897 772 Q776 642 591 556 L567 606 Q742 683 861 811 L897 772 ZM939 498 Q817 358 633 269 L609 319 Q786 400 903 538 L939 498 ZM965 220 Q814 32 581 -90 L557 -40 Q783 74 929 261 L965 220 Z" /><glyph glyph-name="uni5F90" unicode="&#x5f90;" d="M502 -87 L490 -36 Q537 -39 580 -39 Q617 -39 617 2 L617 297 L356 297 L356 349 L617 349 L617 487 L475 487 L475 538 L812 538 L812 487 L670 487 L670 349 L919 349 L919 297 L670 297 L670 -12 Q670 -87 599 -87 L502 -87 ZM662 814 Q765 645 964 532 L933 488 Q749 592 639 762 Q520 587 354 479 L323 523 Q502 638 615 814 L662 814 ZM309 519 Q277 453 239 400 L239 -94 L186 -94 L186 335 Q129 274 62 224 L46 276 Q195 392 262 541 L309 519 ZM798 224 Q885 93 928 2 L883 -30 Q835 76 756 197 L798 224 ZM508 198 Q454 64 381 -37 L337 -5 Q411 92 461 220 L508 198 ZM309 796 Q229 623 62 496 L45 549 Q194 668 260 818 L309 796 Z" /><glyph glyph-name="uni5F97" unicode="&#x5f97;" d="M186 338 Q129 281 60 233 L44 284 Q210 406 284 561 L331 539 Q290 458 239 396 L239 -97 L186 -97 L186 338 ZM325 794 Q240 632 59 511 L42 564 Q207 675 279 816 L325 794 ZM407 777 L869 777 L869 468 L407 468 L407 777 ZM817 514 L817 602 L459 602 L459 514 L817 514 ZM459 645 L817 645 L817 732 L459 732 L459 645 ZM358 387 L933 387 L933 338 L805 338 L805 238 L954 238 L954 189 L805 189 L805 -17 Q805 -91 727 -91 L615 -91 L604 -40 Q676 -44 708 -44 Q752 -44 752 -4 L752 189 L324 189 L324 238 L752 238 L752 338 L358 338 L358 387 ZM453 149 Q539 68 589 0 L547 -28 Q492 46 413 120 L453 149 Z" /><glyph glyph-name="uni5FAE" unicode="&#x5fae;" d="M744 600 L726 525 Q752 360 799 227 Q852 388 855 600 L744 600 ZM776 167 Q731 286 701 440 Q672 356 638 294 L607 332 Q698 513 729 820 L778 811 Q767 724 754 651 L946 651 L946 600 L903 600 Q897 341 825 160 Q882 26 963 -46 L932 -92 Q855 -18 801 106 Q743 -11 652 -93 L623 -48 Q719 36 776 167 ZM497 12 Q512 21 515 37 L515 239 L393 239 L393 195 Q390 3 296 -91 L256 -56 Q341 32 342 195 L342 289 L564 289 L564 53 Q604 87 661 142 L672 96 Q598 18 519 -34 L497 12 ZM438 814 L485 814 L485 583 L569 583 L569 762 L615 762 L615 535 L304 535 L304 762 L350 762 L350 583 L438 583 L438 814 ZM257 788 Q193 627 53 508 L37 561 Q158 673 211 809 L257 788 ZM263 521 Q238 458 208 407 L208 -101 L157 -101 L157 331 Q115 276 56 222 L40 274 Q164 395 216 542 L263 521 ZM301 432 L608 432 L608 382 L301 382 L301 432 Z" /><glyph glyph-name="uni2F3C" unicode="&#x2f3c;&#x5fc3;" d="M401 -65 Q306 -65 306 25 L306 605 L361 605 L361 37 Q361 -11 417 -11 L615 -11 Q656 -11 673 18 Q695 57 702 238 L753 221 Q744 22 712 -27 Q685 -65 626 -65 L401 -65 ZM214 483 Q171 234 91 51 L44 81 Q123 264 161 494 L214 483 ZM784 528 Q888 333 962 121 L912 99 Q833 327 731 510 L784 528 ZM420 807 Q562 666 640 558 L594 527 Q515 641 375 779 L420 807 Z" /><glyph glyph-name="uni5FC6" unicode="&#x5fc6;" d="M406 745 L873 745 L873 699 Q664 466 593 373 Q503 264 467 179 Q442 119 442 74 Q442 38 464 15 Q491 -9 565 -9 L780 -9 Q844 -7 871 32 Q896 77 896 223 L948 208 Q948 42 913 -10 Q877 -60 795 -60 L555 -60 Q463 -60 426 -26 Q388 13 388 74 Q388 126 414 187 Q452 280 546 396 Q629 504 796 693 L406 693 L406 745 ZM136 620 Q131 470 93 340 L47 353 Q87 484 91 624 L136 620 ZM336 647 Q383 543 420 409 L375 397 Q342 520 293 633 L336 647 ZM207 812 L260 812 L260 -94 L207 -94 L207 812 Z" /><glyph glyph-name="uni5FF5" unicode="&#x5ff5;" d="M459 658 Q531 610 580 561 L544 525 Q497 575 425 624 L459 658 ZM524 806 Q666 662 940 566 L909 522 Q652 613 500 757 Q331 609 93 517 L62 562 Q315 657 476 806 L524 806 ZM394 -81 Q304 -81 304 7 L304 193 L359 193 L359 18 Q359 -31 410 -31 L606 -31 Q653 -31 674 -15 Q700 7 709 109 L759 93 Q747 -30 712 -58 Q681 -81 616 -81 L394 -81 ZM253 234 Q200 67 103 -52 L57 -22 Q154 96 200 245 L253 234 ZM529 227 Q576 162 611 88 L561 65 Q526 147 480 211 L529 227 ZM764 264 Q880 121 938 19 L892 -13 Q833 96 722 238 L764 264 ZM238 499 L767 499 L767 454 Q670 307 393 235 L373 282 Q604 332 703 450 L238 450 L238 499 Z" /><glyph glyph-name="uni6001" unicode="&#x6001;" d="M528 817 Q520 755 507 704 L900 704 L900 651 L568 651 Q643 474 952 375 L923 328 Q589 445 514 651 L490 651 Q458 563 400 496 Q395 490 384 479 Q449 434 536 353 L499 315 Q421 391 347 447 Q250 374 65 325 L43 376 Q259 430 356 531 Q402 581 432 651 L90 651 L90 704 L450 704 Q466 759 474 823 L528 817 ZM205 221 Q169 67 103 -47 L56 -18 Q122 93 152 233 L205 221 ZM514 268 Q565 191 606 97 L556 74 Q514 175 465 252 L514 268 ZM811 248 Q887 130 939 6 L889 -17 Q832 119 758 231 L811 248 ZM392 -76 Q299 -76 299 12 L299 235 L353 235 L353 23 Q353 -23 409 -23 L626 -23 Q662 -23 676 -6 Q697 18 703 131 L754 114 Q745 -19 715 -51 Q690 -76 637 -76 L392 -76 Z" /><glyph glyph-name="uni6027" unicode="&#x6027;" d="M125 620 Q121 470 89 335 L44 347 Q76 477 81 624 L125 620 ZM315 642 Q349 566 378 466 L334 455 Q310 545 274 629 L315 642 ZM192 812 L246 812 L246 -94 L192 -94 L192 812 ZM475 565 Q449 456 393 356 L352 392 Q440 552 449 755 L499 749 Q496 677 486 618 L648 618 L648 811 L703 811 L703 618 L928 618 L928 565 L703 565 L703 308 L910 308 L910 255 L703 255 L703 -13 L954 -13 L954 -66 L355 -66 L355 -13 L648 -13 L648 255 L413 255 L413 308 L648 308 L648 565 L475 565 Z" /><glyph glyph-name="uni603B" unicode="&#x603b;" d="M192 633 L573 633 Q639 725 684 824 L735 806 Q681 699 631 633 L808 633 L808 323 L192 323 L192 633 ZM753 375 L753 581 L247 581 L247 375 L753 375 ZM300 821 Q354 757 409 670 L364 646 Q311 733 253 798 L300 821 ZM202 220 Q162 60 93 -52 L46 -23 Q117 87 150 230 L202 220 ZM510 273 Q570 190 611 102 L561 80 Q518 177 461 257 L510 273 ZM825 249 Q898 128 947 1 L898 -22 Q841 121 773 232 L825 249 ZM388 -85 Q301 -85 301 6 L301 220 L356 220 L356 18 Q356 -33 405 -33 L631 -33 Q669 -33 684 -15 Q705 9 711 123 L762 106 Q753 -28 723 -60 Q696 -85 641 -85 L388 -85 Z" /><glyph glyph-name="uni60C5" unicode="&#x60c5;" d="M494 196 L494 112 L828 112 L828 196 L494 196 ZM828 237 L828 325 L494 325 L494 237 L828 237 ZM494 71 L494 -95 L442 -95 L442 369 L879 369 L879 7 Q879 -91 801 -91 L726 -91 L713 -45 L785 -47 Q828 -47 828 18 L828 71 L494 71 ZM635 821 L690 821 L690 745 L928 745 L928 701 L690 701 L690 618 L895 618 L895 575 L690 575 L690 492 L956 492 L956 448 L363 448 L363 461 L333 454 Q302 543 253 631 L290 643 Q328 581 363 492 L635 492 L635 575 L427 575 L427 618 L635 618 L635 701 L392 701 L392 745 L635 745 L635 821 ZM131 621 Q125 474 75 341 L34 352 Q83 479 89 624 L131 621 ZM180 811 L234 811 L234 -93 L180 -93 L180 811 Z" /><glyph glyph-name="uni60F3" unicode="&#x60f3;" d="M503 770 L869 770 L869 289 L503 289 L503 770 ZM816 337 L816 436 L556 436 L556 337 L816 337 ZM556 482 L816 482 L816 576 L556 576 L556 482 ZM556 622 L816 622 L816 720 L556 720 L556 622 ZM289 268 L235 268 L235 561 Q168 426 59 315 L39 367 Q163 481 232 635 L62 635 L62 687 L235 687 L235 802 L289 802 L289 687 L428 687 L428 635 L289 635 L289 580 Q368 522 453 444 L422 399 Q344 483 289 532 L289 268 ZM212 195 Q174 55 100 -53 L53 -23 Q127 82 159 207 L212 195 ZM382 -76 Q296 -76 296 14 L296 221 L350 221 L350 25 Q350 -23 399 -23 L618 -23 Q659 -23 674 -8 Q696 15 703 116 L754 99 Q745 -24 713 -53 Q687 -76 628 -76 L382 -76 ZM486 238 Q563 157 602 100 L558 69 Q520 128 443 211 L486 238 ZM799 231 Q899 105 954 5 L909 -27 Q851 80 755 204 L799 231 Z" /><glyph glyph-name="uni610F" unicode="&#x610f;" d="M281 701 L115 701 L115 749 L470 749 Q456 784 435 818 L493 828 Q510 796 527 749 L885 749 L885 701 L717 701 L672 608 L933 608 L933 560 L67 560 L67 608 L319 608 L281 701 ZM374 608 L616 608 L661 701 L337 701 L374 608 ZM189 486 L811 486 L811 203 L189 203 L189 486 ZM757 247 L757 324 L243 324 L243 247 L757 247 ZM243 366 L757 366 L757 443 L243 443 L243 366 ZM202 139 Q167 21 102 -68 L55 -38 Q118 47 148 150 L202 139 ZM392 -82 Q302 -82 302 3 L302 138 L356 138 L356 15 Q356 -33 408 -33 L625 -33 Q661 -33 675 -19 Q696 -1 702 82 L753 65 Q744 -38 714 -62 Q689 -82 636 -82 L392 -82 ZM501 173 Q568 104 603 55 L558 23 Q520 77 456 144 L501 173 ZM816 155 Q907 48 949 -23 L905 -55 Q858 25 772 127 L816 155 Z" /><glyph glyph-name="uni6210" unicode="&#x6210;" d="M736 814 Q811 757 862 700 L826 665 Q779 719 701 781 L736 814 ZM871 491 Q810 289 712 151 Q735 96 765 52 Q819 -23 854 -23 Q887 -22 911 138 L960 112 Q927 -83 864 -83 Q802 -83 731 7 Q700 46 675 103 Q566 -28 420 -93 L389 -47 Q544 22 651 159 Q628 218 612 281 Q581 410 570 604 L208 604 L208 422 L453 422 Q451 183 435 108 Q418 41 348 38 Q311 38 260 41 L243 91 Q321 87 342 87 Q380 90 389 139 Q399 206 399 370 L208 370 L208 324 Q204 61 94 -98 L53 -61 Q151 77 155 324 L155 655 L568 655 Q565 733 565 817 L619 817 Q619 755 623 655 L940 655 L940 604 L625 604 Q636 407 665 294 Q676 252 689 212 Q772 337 822 512 L871 491 Z" /><glyph glyph-name="uni6237" unicode="&#x6237;" d="M811 633 L219 633 L219 417 L811 417 L811 633 ZM219 364 Q213 94 76 -102 L35 -65 Q165 110 166 382 L166 687 L496 687 Q469 756 436 810 L493 820 Q524 760 550 687 L866 687 L866 364 L219 364 Z" /><glyph glyph-name="uni6240" unicode="&#x6240;" d="M435 238 L172 238 Q154 46 76 -95 L38 -57 Q123 101 129 316 L129 726 Q304 747 413 813 L448 772 Q340 709 177 685 L177 554 L435 554 L435 238 ZM177 500 L177 303 L176 289 L384 289 L384 500 L177 500 ZM582 447 L582 290 Q579 34 513 -97 L464 -72 Q530 57 533 290 L533 735 Q740 742 887 806 L914 758 Q766 698 582 689 L582 500 L952 500 L952 447 L833 447 L833 -98 L780 -98 L780 447 L582 447 Z" /><glyph glyph-name="uni624D" unicode="&#x624d;" d="M430 -89 L418 -37 Q522 -41 567 -41 Q615 -41 615 14 L615 572 L569 572 Q425 254 71 53 L43 99 Q376 283 516 572 L59 572 L59 625 L615 625 L615 813 L668 813 L668 625 L927 625 L927 572 L668 572 L668 0 Q668 -89 586 -89 L430 -89 Z" /><glyph glyph-name="uni6253" unicode="&#x6253;" d="M426 359 Q351 325 273 296 L273 -12 Q273 -88 196 -88 L90 -88 L78 -36 Q148 -40 177 -40 Q219 -40 219 1 L219 277 Q130 248 52 227 L39 279 Q137 301 219 328 L219 572 L54 572 L54 625 L219 625 L219 812 L273 812 L273 625 L411 625 L411 572 L273 572 L273 347 Q361 381 426 412 L426 359 ZM446 731 L944 731 L944 677 L774 677 L774 -2 Q774 -88 692 -88 L530 -88 L518 -35 Q626 -39 673 -39 Q720 -39 720 12 L720 677 L446 677 L446 731 Z" /><glyph glyph-name="uni6267" unicode="&#x6267;" d="M866 -93 Q804 -92 774 -10 Q745 68 745 321 L745 585 L585 585 L585 467 Q584 382 573 307 Q653 248 713 191 L682 144 Q628 197 563 248 Q515 26 370 -98 L329 -62 Q474 58 516 283 Q447 332 382 366 L412 410 Q474 376 524 341 Q531 411 532 467 L532 585 L397 585 L397 639 L532 639 L532 813 L585 813 L585 639 L798 639 L798 321 Q798 97 816 34 Q828 -29 860 -29 Q880 -29 894 30 Q904 71 917 161 L962 139 Q944 3 918 -48 Q894 -93 866 -93 ZM67 -88 L55 -36 Q115 -40 142 -40 Q191 -40 191 6 L191 273 Q131 251 51 227 L38 279 Q108 295 191 325 L191 564 L56 564 L56 617 L191 617 L191 811 L245 811 L245 617 L346 617 L346 564 L245 564 L245 346 Q317 378 353 396 L353 342 Q301 317 245 294 L245 -8 Q245 -88 161 -88 L67 -88 Z" /><glyph glyph-name="uni6269" unicode="&#x6269;" d="M380 358 Q320 326 255 298 L255 -1 Q255 -89 175 -89 L86 -89 L74 -37 Q130 -41 156 -41 Q202 -41 202 13 L202 275 Q132 248 51 223 L38 277 Q123 298 202 328 L202 572 L57 572 L57 625 L202 625 L202 811 L255 811 L255 625 L374 625 L374 572 L255 572 L255 350 Q315 377 380 412 L380 358 ZM684 819 Q717 753 744 669 L953 669 L953 615 L497 615 L497 387 Q490 87 348 -97 L306 -59 Q436 101 442 387 L442 669 L690 669 Q664 743 629 809 L684 819 Z" /><glyph glyph-name="uni627F" unicode="&#x627f;" d="M209 775 L784 775 L784 724 Q668 648 538 582 L538 506 L667 506 L667 455 L538 455 L538 344 L689 344 L689 292 L538 292 L538 183 L732 183 L732 131 L538 131 L538 -22 Q538 -98 469 -98 L354 -98 L341 -46 Q407 -48 450 -48 Q485 -48 485 -4 L485 131 L284 131 L284 183 L485 183 L485 292 L320 292 L320 344 L485 344 L485 455 L343 455 L343 506 L485 506 L485 609 Q638 683 702 724 L209 724 L209 775 ZM954 538 Q918 472 882 430 Q845 387 796 351 Q837 145 955 -2 L917 -40 Q727 201 724 574 L775 574 Q775 484 787 403 Q820 430 845 461 Q878 502 910 565 L954 538 ZM60 535 L284 535 L284 488 Q266 149 77 -40 L42 3 Q212 177 236 483 L60 483 L60 535 Z" /><glyph glyph-name="uni6280" unicode="&#x6280;" d="M74 -86 L63 -36 Q102 -39 138 -39 Q183 -39 183 9 L183 268 Q119 241 51 220 L37 273 Q114 295 183 321 L183 572 L56 572 L56 625 L183 625 L183 813 L237 813 L237 625 L348 625 L348 572 L237 572 L237 344 Q293 370 352 404 L352 351 Q302 322 237 292 L237 -4 Q237 -86 157 -86 L74 -86 ZM390 663 L635 663 L635 812 L689 812 L689 663 L934 663 L934 612 L689 612 L689 433 L894 433 L894 384 Q837 211 712 92 Q812 10 964 -54 L936 -98 Q778 -28 675 60 Q554 -40 383 -100 L357 -54 Q524 3 637 94 Q507 220 462 381 L408 381 L408 433 L635 433 L635 612 L390 612 L390 663 ZM513 381 Q555 238 673 126 Q787 234 841 381 L513 381 Z" /><glyph glyph-name="uni628A" unicode="&#x628a;" d="M613 704 L439 704 L439 403 L613 403 L613 704 ZM664 403 L842 403 L842 704 L664 704 L664 403 ZM334 346 Q291 322 238 297 L238 -22 Q238 -93 165 -93 L78 -93 L66 -41 Q122 -45 146 -45 Q184 -45 184 -9 L184 273 Q127 249 63 228 L50 280 Q121 300 184 325 L184 572 L61 572 L61 625 L184 625 L184 811 L238 811 L238 625 L334 625 L334 572 L238 572 L238 349 Q288 373 334 400 L334 346 ZM894 757 L894 352 L439 352 L439 21 Q439 -20 490 -22 L815 -22 Q861 -20 879 16 Q893 46 901 158 L952 142 Q944 39 928 -6 Q903 -71 829 -73 L472 -73 Q386 -73 386 4 L386 757 L894 757 Z" /><glyph glyph-name="uni6295" unicode="&#x6295;" d="M76 -86 L64 -34 Q118 -38 141 -38 Q187 -38 187 12 L187 275 Q117 246 53 225 L39 279 Q117 301 187 330 L187 572 L59 572 L59 625 L187 625 L187 813 L241 813 L241 625 L362 625 L362 572 L241 572 L241 353 Q301 383 358 416 L358 362 Q296 326 241 300 L241 -2 Q241 -86 160 -86 L76 -86 ZM399 381 L869 381 L869 330 Q819 182 707 79 Q810 4 964 -53 L935 -99 Q778 -37 669 46 Q552 -46 377 -100 L348 -55 Q514 -3 626 82 Q506 190 464 327 L399 327 L399 381 ZM514 327 Q555 206 664 113 Q768 208 815 327 L514 327 ZM483 770 L801 770 L801 549 Q801 511 843 511 L933 511 L933 460 L832 460 Q748 460 748 540 L748 718 L537 718 L537 651 Q537 513 400 436 L363 478 Q483 537 483 645 L483 770 Z" /><glyph glyph-name="uni62A4" unicode="&#x62a4;" d="M67 -88 L55 -36 Q119 -40 148 -40 Q191 -40 191 6 L191 267 Q122 242 57 225 L43 278 Q125 298 191 321 L191 564 L57 564 L57 617 L191 617 L191 811 L245 811 L245 617 L361 617 L361 564 L245 564 L245 341 Q304 364 366 395 L366 340 Q298 308 245 287 L245 -8 Q245 -88 167 -88 L67 -88 ZM871 634 L480 634 L480 428 L871 428 L871 634 ZM480 375 Q479 100 354 -98 L313 -61 Q425 108 427 376 L427 687 L652 687 Q631 753 604 808 L661 818 Q686 759 706 687 L923 687 L923 375 L480 375 Z" /><glyph glyph-name="uni62A5" unicode="&#x62a5;" d="M385 350 Q322 318 263 294 L263 -13 Q263 -94 184 -94 L92 -94 L80 -42 Q140 -46 164 -46 Q210 -46 210 1 L210 273 Q139 246 59 222 L45 275 Q138 298 210 325 L210 573 L59 573 L59 624 L210 624 L210 811 L263 811 L263 624 L382 624 L382 573 L263 573 L263 346 Q326 373 385 404 L385 350 ZM501 361 L501 -98 L449 -98 L449 769 L873 769 Q873 612 856 558 Q840 504 748 504 L678 504 L663 551 L723 551 Q757 551 779 556 Q796 562 806 581 Q820 614 821 719 L501 719 L501 411 L882 411 L882 364 Q850 199 770 86 Q844 12 955 -52 L919 -94 Q812 -29 739 46 Q663 -43 556 -97 L529 -50 Q633 3 702 86 Q595 211 572 361 L501 361 ZM620 361 Q641 234 732 126 Q801 225 831 361 L620 361 Z" /><glyph glyph-name="uni62C5" unicode="&#x62c5;" d="M460 741 L878 741 L878 149 L460 149 L460 741 ZM827 198 L827 418 L511 418 L511 198 L827 198 ZM511 468 L827 468 L827 692 L511 692 L511 468 ZM357 4 L955 4 L955 -48 L357 -48 L357 4 ZM400 355 Q332 321 260 291 L260 4 Q260 -82 180 -82 L85 -82 L73 -31 Q118 -34 161 -34 Q207 -34 207 18 L207 270 Q122 239 56 220 L43 272 Q133 295 207 321 L207 574 L63 574 L63 626 L207 626 L207 812 L260 812 L260 626 L391 626 L391 574 L260 574 L260 342 Q334 373 400 408 L400 355 Z" /><glyph glyph-name="uni62C9" unicode="&#x62c9;" d="M406 647 L647 647 Q622 741 594 807 L649 817 Q672 753 699 647 L930 647 L930 596 L406 596 L406 647 ZM380 0 L690 0 Q764 215 817 520 L869 507 Q820 219 746 0 L953 0 L953 -53 L380 -53 L380 0 ZM508 510 Q556 320 595 75 L545 61 Q511 283 459 494 L508 510 ZM380 358 Q315 323 255 296 L255 -3 Q255 -89 176 -89 L86 -89 L74 -37 Q132 -41 157 -41 Q202 -41 202 11 L202 273 Q137 247 55 221 L42 276 Q123 297 202 327 L202 572 L57 572 L57 625 L202 625 L202 811 L255 811 L255 625 L374 625 L374 572 L255 572 L255 349 Q323 381 380 412 L380 358 Z" /><glyph glyph-name="uni62D3" unicode="&#x62d3;" d="M73 -88 L61 -36 Q127 -40 155 -40 Q207 -40 207 12 L207 269 Q143 247 58 223 L45 275 Q133 296 207 321 L207 564 L61 564 L61 617 L207 617 L207 810 L260 810 L260 617 L389 617 L389 564 L260 564 L260 340 Q320 363 389 396 L389 342 Q326 314 260 288 L260 -2 Q260 -88 175 -88 L73 -88 ZM379 752 L938 752 L938 698 L633 698 Q612 544 558 419 L892 419 L892 -99 L839 -99 L839 -48 L552 -48 L552 -99 L499 -99 L499 308 Q435 209 349 135 L323 185 Q538 370 580 698 L379 698 L379 752 ZM839 4 L839 367 L552 367 L552 4 L839 4 Z" /><glyph glyph-name="uni62DB" unicode="&#x62db;" d="M897 308 L897 -96 L843 -96 L843 -51 L496 -51 L496 -96 L442 -96 L442 308 L897 308 ZM496 1 L843 1 L843 256 L496 256 L496 1 ZM74 -86 L62 -34 Q122 -38 148 -38 Q190 -38 190 6 L190 277 Q113 247 52 227 L37 281 Q110 301 190 331 L190 572 L55 572 L55 625 L190 625 L190 813 L244 813 L244 625 L369 625 L369 572 L244 572 L244 353 Q299 378 361 412 L361 358 Q291 321 244 300 L244 -8 Q244 -86 167 -86 L74 -86 ZM417 716 L417 766 L910 766 Q907 489 878 435 Q848 381 775 381 Q757 381 695 383 L681 432 L762 429 Q823 431 838 477 Q853 522 856 716 L652 716 Q626 582 582 505 Q530 419 429 354 L395 396 Q488 456 534 527 Q577 598 598 716 L417 716 Z" /><glyph glyph-name="uni62DF" unicode="&#x62df;" d="M76 -83 L64 -32 Q106 -35 144 -35 Q184 -35 184 4 L184 268 Q121 245 63 227 L51 279 Q127 299 184 320 L184 573 L56 573 L56 624 L184 624 L184 813 L238 813 L238 624 L348 624 L348 573 L238 573 L238 342 Q289 365 352 398 L352 344 Q297 316 238 290 L238 -9 Q238 -83 162 -83 L76 -83 ZM858 800 Q858 519 813 324 Q800 275 786 236 Q895 70 953 -51 L910 -82 Q855 39 764 181 Q689 18 544 -95 L510 -54 Q695 91 758 319 Q805 511 806 800 L858 800 ZM379 106 Q407 118 407 141 L407 758 L459 758 L459 134 Q540 165 612 204 L627 156 Q519 99 396 57 L379 106 ZM580 690 Q655 571 708 438 L662 418 Q604 562 533 674 L580 690 Z" /><glyph glyph-name="uni62E9" unicode="&#x62e9;" d="M417 771 L884 771 L884 724 Q837 604 712 519 Q814 468 960 447 L941 399 Q772 425 663 489 Q557 431 409 393 L382 439 Q520 473 615 521 Q510 599 465 721 L417 721 L417 771 ZM516 721 Q560 616 662 548 Q776 619 828 721 L516 721 ZM75 -88 L63 -36 Q119 -40 142 -40 Q187 -40 187 5 L187 267 Q117 243 57 225 L43 278 Q118 296 187 320 L187 564 L57 564 L57 617 L187 617 L187 811 L241 811 L241 617 L361 617 L361 564 L241 564 L241 341 Q297 365 363 398 L363 343 Q304 314 241 288 L241 -8 Q241 -88 161 -88 L75 -88 ZM433 309 L639 309 L639 405 L691 405 L691 309 L896 309 L896 260 L691 260 L691 130 L946 130 L946 78 L691 78 L691 -90 L639 -90 L639 78 L381 78 L381 130 L639 130 L639 260 L433 260 L433 309 Z" /><glyph glyph-name="uni6301" unicode="&#x6301;" d="M75 -88 L63 -36 Q119 -40 144 -40 Q187 -40 187 6 L187 270 Q128 250 54 228 L40 281 Q119 300 187 324 L187 564 L57 564 L57 616 L187 616 L187 811 L241 811 L241 616 L351 616 L351 564 L241 564 L241 344 Q308 372 359 398 L359 343 Q294 312 241 291 L241 -8 Q241 -88 163 -88 L75 -88 ZM637 814 L691 814 L691 703 L894 703 L894 652 L691 652 L691 515 L938 515 L938 463 L395 463 L395 515 L637 515 L637 652 L433 652 L433 703 L637 703 L637 814 ZM389 329 L755 329 L755 413 L810 413 L810 329 L952 329 L952 278 L810 278 L810 -8 Q810 -90 729 -90 L593 -90 L581 -37 Q671 -41 710 -41 Q755 -41 755 6 L755 278 L389 278 L389 329 ZM475 224 Q569 128 615 61 L573 31 Q521 108 432 198 L475 224 Z" /><glyph glyph-name="uni6316" unicode="&#x6316;" d="M608 591 Q546 462 445 392 L405 427 Q507 493 561 609 L608 591 ZM725 614 Q824 504 874 425 L832 395 Q775 487 684 588 L725 614 ZM78 -86 L66 -35 Q105 -38 141 -38 Q184 -38 184 2 L184 272 Q131 249 60 225 L46 279 Q114 298 184 326 L184 572 L58 572 L58 625 L184 625 L184 813 L238 813 L238 625 L336 625 L336 572 L238 572 L238 349 Q299 377 351 409 L351 355 Q293 322 238 296 L238 -12 Q238 -86 160 -86 L78 -86 ZM654 823 Q673 778 694 712 L914 712 L914 545 L864 545 L864 662 L442 662 L442 545 L390 545 L390 712 L641 712 Q620 772 598 813 L654 823 ZM413 339 L876 339 L876 292 Q574 147 490 60 Q462 29 462 6 Q462 -33 518 -33 L791 -33 Q841 -33 863 -13 Q883 6 897 116 L948 100 Q930 -26 901 -52 Q865 -82 793 -82 L517 -82 Q405 -82 405 1 Q405 47 453 95 Q549 185 776 288 L413 288 L413 339 Z" /><glyph glyph-name="uni636E" unicode="&#x636e;" d="M79 -88 L68 -37 Q120 -41 145 -41 Q186 -41 186 6 L186 272 Q127 250 59 229 L45 282 Q121 301 186 325 L186 564 L61 564 L61 617 L186 617 L186 811 L240 811 L240 617 L342 617 L342 564 L240 564 L240 346 Q291 369 339 394 L339 341 Q287 313 240 294 L240 -7 Q240 -88 164 -88 L79 -88 ZM453 358 Q435 99 334 -97 L292 -60 Q402 143 404 466 L404 769 L922 769 L922 540 L729 540 L729 409 L949 409 L949 358 L729 358 L729 222 L902 222 L902 -97 L852 -97 L852 -45 L553 -45 L553 -97 L503 -97 L503 222 L675 222 L675 358 L453 358 ZM675 540 L457 540 L456 409 L675 409 L675 540 ZM553 5 L852 5 L852 172 L553 172 L553 5 ZM869 718 L457 718 L457 589 L869 589 L869 718 Z" /><glyph glyph-name="uni6392" unicode="&#x6392;" d="M529 813 L580 813 L580 -97 L529 -97 L529 128 L323 128 L323 178 L529 178 L529 367 L379 367 L379 417 L529 417 L529 599 L365 599 L365 649 L529 649 L529 813 ZM62 -88 L51 -36 Q111 -40 137 -40 Q181 -40 181 6 L181 260 Q110 232 62 216 L48 270 Q116 289 181 314 L181 564 L68 564 L68 617 L181 617 L181 811 L235 811 L235 617 L330 617 L330 564 L235 564 L235 337 Q293 365 340 392 L340 337 Q285 306 235 284 L235 -7 Q235 -88 156 -88 L62 -88 ZM717 813 L769 813 L769 649 L947 649 L947 599 L769 599 L769 417 L928 417 L928 367 L769 367 L769 178 L954 178 L954 128 L769 128 L769 -97 L717 -97 L717 813 Z" /><glyph glyph-name="uni6398" unicode="&#x6398;" d="M71 -88 L60 -37 Q120 -41 145 -41 Q182 -41 182 30 L182 268 Q120 243 61 224 L48 275 Q113 294 182 319 L182 564 L59 564 L59 617 L182 617 L182 810 L236 810 L236 617 L339 617 L339 564 L236 564 L236 342 Q304 375 343 398 L343 344 Q288 314 236 291 L236 16 Q236 -88 164 -88 L71 -88 ZM848 279 L848 422 L898 422 L898 232 L732 232 L732 13 L870 13 L870 160 L920 160 L920 -87 L870 -87 L870 -37 L545 -37 L545 -87 L494 -87 L494 160 L545 160 L545 13 L680 13 L680 232 L517 232 L517 422 L567 422 L567 279 L680 279 L680 472 L732 472 L732 279 L848 279 ZM863 718 L449 718 L449 581 L863 581 L863 718 ZM449 532 L449 439 Q448 129 327 -97 L286 -60 Q396 134 397 439 L397 769 L915 769 L915 532 L449 532 Z" /><glyph glyph-name="uni63A5" unicode="&#x63a5;" d="M521 645 Q562 573 596 491 L703 491 Q747 572 777 656 L828 638 Q797 554 759 491 L933 491 L933 440 L380 440 L380 491 L543 491 Q508 568 476 623 L521 645 ZM652 820 Q666 786 687 720 L915 720 L915 670 L404 670 L404 720 L633 720 Q618 770 597 810 L652 820 ZM75 -88 L63 -36 Q119 -40 144 -40 Q187 -40 187 9 L187 273 Q124 247 51 225 L37 278 Q115 299 187 326 L187 564 L57 564 L57 617 L187 617 L187 811 L241 811 L241 617 L332 617 L332 564 L241 564 L241 349 Q305 381 337 398 L337 343 Q284 315 241 296 L241 -5 Q241 -88 163 -88 L75 -88 ZM636 397 Q617 349 597 308 L950 308 L950 256 L834 256 Q813 136 734 54 Q842 3 944 -57 L914 -100 Q810 -36 695 18 Q599 -57 378 -102 L357 -53 Q545 -17 641 44 Q553 85 437 132 Q478 192 514 256 L367 256 L367 308 L541 308 Q564 355 583 403 L636 397 ZM570 256 Q544 210 503 153 Q599 118 684 77 Q761 147 784 256 L570 256 Z" /><glyph glyph-name="uni63A7" unicode="&#x63a7;" d="M626 229 L386 229 L386 280 L918 280 L918 229 L680 229 L680 -8 L956 -8 L956 -60 L345 -60 L345 -8 L626 -8 L626 229 ZM75 -88 L63 -36 Q119 -40 144 -40 Q187 -40 187 9 L187 273 Q121 247 57 228 L43 282 Q118 300 187 327 L187 564 L57 564 L57 617 L187 617 L187 813 L241 813 L241 617 L332 617 L332 564 L241 564 L241 349 Q280 366 336 395 L336 340 Q292 317 241 295 L241 -5 Q241 -88 163 -88 L75 -88 ZM635 826 Q664 765 688 699 L927 699 L927 521 L875 521 L875 650 L430 650 L430 521 L379 521 L379 699 L634 699 Q610 765 580 816 L635 826 ZM609 560 Q536 408 422 331 L383 365 Q500 444 561 579 L609 560 ZM736 581 Q833 483 907 363 L860 338 Q780 467 690 560 L736 581 Z" /><glyph glyph-name="uni63A8" unicode="&#x63a8;" d="M501 377 L501 224 L697 224 L697 377 L501 377 ZM501 172 L501 5 L697 5 L697 172 L501 172 ZM501 -47 L501 -95 L448 -95 L448 516 Q408 452 358 390 L340 447 Q466 616 517 812 L571 802 Q547 715 511 634 L933 634 L933 582 L750 582 L750 429 L913 429 L913 377 L750 377 L750 224 L913 224 L913 172 L750 172 L750 5 L944 5 L944 -47 L501 -47 ZM697 582 L501 582 L501 429 L697 429 L697 582 ZM347 342 Q287 313 246 296 L246 -8 Q246 -81 168 -81 L75 -81 L63 -28 Q123 -32 149 -32 Q193 -32 193 6 L193 275 Q127 251 58 230 L44 284 Q116 301 193 328 L193 574 L57 574 L57 627 L193 627 L193 817 L246 817 L246 627 L354 627 L354 574 L246 574 L246 349 Q300 373 347 397 L347 342 ZM704 814 Q739 731 759 657 L712 640 Q684 728 651 800 L704 814 Z" /><glyph glyph-name="uni63CF" unicode="&#x63cf;" d="M908 471 L908 -95 L856 -95 L856 -51 L477 -51 L477 -95 L425 -95 L425 471 L908 471 ZM477 -1 L641 -1 L641 183 L477 183 L477 -1 ZM693 -1 L856 -1 L856 183 L693 183 L693 -1 ZM477 232 L641 232 L641 420 L477 420 L477 232 ZM693 420 L693 232 L856 232 L856 420 L693 420 ZM74 -84 L62 -32 Q109 -35 150 -35 Q188 -35 188 6 L188 277 Q108 246 50 228 L36 282 Q116 304 188 330 L188 575 L55 575 L55 628 L188 628 L188 816 L242 816 L242 628 L346 628 L346 575 L242 575 L242 353 Q308 384 362 414 L362 359 Q311 331 242 300 L242 -8 Q242 -84 169 -84 L74 -84 ZM518 812 L570 812 L570 693 L760 693 L760 812 L812 812 L812 693 L949 693 L949 642 L812 642 L812 523 L760 523 L760 642 L570 642 L570 524 L518 524 L518 642 L381 642 L381 693 L518 693 L518 812 Z" /><glyph glyph-name="uni63D0" unicode="&#x63d0;" d="M75 -88 L63 -36 Q123 -40 149 -40 Q187 -40 187 -8 L187 270 Q126 245 61 225 L47 279 Q117 296 187 323 L187 564 L59 564 L59 617 L187 617 L187 811 L241 811 L241 617 L349 617 L349 564 L241 564 L241 346 Q292 370 336 394 L336 339 Q265 304 241 293 L241 -21 Q241 -88 168 -88 L75 -88 ZM434 777 L862 777 L862 440 L434 440 L434 777 ZM808 486 L808 585 L487 585 L487 486 L808 486 ZM487 629 L808 629 L808 731 L487 731 L487 629 ZM361 358 L930 358 L930 308 L674 308 L674 179 L891 179 L891 130 L674 130 L674 -18 Q744 -28 826 -28 Q885 -28 955 -24 L940 -78 Q896 -78 830 -76 Q632 -76 561 -38 Q502 -5 453 92 Q417 -11 345 -96 L305 -60 Q424 80 435 258 L484 252 Q481 199 469 149 Q520 37 587 5 Q604 -2 621 -7 L621 308 L361 308 L361 358 Z" /><glyph glyph-name="uni63E1" unicode="&#x63e1;" d="M74 -88 L62 -37 Q104 -40 144 -40 Q183 -40 183 3 L183 268 Q120 244 54 223 L40 277 Q119 298 183 323 L183 564 L58 564 L58 617 L183 617 L183 811 L237 811 L237 617 L340 617 L340 564 L237 564 L237 346 Q303 378 335 396 L335 339 Q290 315 237 291 L237 -11 Q237 -88 163 -88 L74 -88 ZM451 424 L451 407 Q449 115 346 -93 L305 -56 Q399 125 400 407 L400 773 L902 773 L902 570 L451 570 L451 472 L919 472 L919 424 L669 424 Q618 329 565 276 Q728 288 825 300 Q801 342 777 378 L819 399 Q876 312 923 216 L879 194 Q868 218 847 260 L721 247 L721 135 L897 135 L897 88 L721 88 L721 -26 L943 -26 L943 -75 L448 -75 L448 -26 L670 -26 L670 88 L490 88 L490 135 L670 135 L670 242 L498 230 L490 275 Q546 298 615 424 L451 424 ZM851 724 L451 724 L451 617 L851 617 L851 724 Z" /><glyph glyph-name="uni642D" unicode="&#x642d;" d="M72 -85 L61 -33 Q117 -37 141 -37 Q192 -37 192 17 L192 279 Q116 248 55 230 L42 282 Q124 304 192 331 L192 572 L57 572 L57 625 L192 625 L192 814 L246 814 L246 625 L346 625 L346 572 L246 572 L246 354 Q292 375 347 406 L347 353 Q285 320 246 303 L246 4 Q246 -85 160 -85 L72 -85 ZM358 725 L491 725 L491 808 L544 808 L544 725 L725 725 L725 808 L779 808 L779 725 L921 725 L921 674 L779 674 L779 589 L725 589 L725 674 L544 674 L544 586 L491 586 L491 674 L358 674 L358 725 ZM487 363 Q423 305 344 260 L317 302 Q508 413 613 589 L660 589 Q749 436 963 319 L934 275 Q855 319 793 368 L793 327 L487 327 L487 363 ZM786 374 Q692 451 637 542 Q575 445 498 374 L786 374 ZM843 228 L843 -96 L792 -96 L792 -45 L485 -45 L485 -96 L432 -96 L432 228 L843 228 ZM485 4 L792 4 L792 178 L485 178 L485 4 Z" /><glyph glyph-name="uni64B0" unicode="&#x64b0;" d="M502 412 L553 412 L553 331 L733 331 L733 412 L785 412 L785 331 L916 331 L916 282 L785 282 L785 161 L953 161 L953 111 L337 111 L337 161 L502 161 L502 282 L381 282 L381 331 L502 331 L502 412 ZM553 161 L733 161 L733 282 L553 282 L553 161 ZM739 75 Q853 21 949 -54 L920 -98 Q816 -11 712 35 L739 75 ZM71 -96 L60 -45 Q106 -49 127 -49 Q167 -49 167 2 L167 269 Q102 242 50 225 L36 279 Q105 297 167 324 L167 573 L56 573 L56 624 L167 624 L167 811 L220 811 L220 624 L315 624 L315 573 L220 573 L220 347 Q271 371 322 401 L322 347 Q271 319 220 293 L220 -11 Q220 -96 145 -96 L71 -96 ZM598 785 L598 600 L417 600 L417 525 Q417 487 447 487 L526 487 Q548 489 557 503 Q564 516 568 559 L611 546 Q605 495 595 476 Q580 446 537 445 L433 445 Q372 445 372 512 L372 785 L598 785 ZM417 643 L552 643 L552 743 L417 743 L417 643 ZM902 785 L902 600 L719 600 L719 528 Q719 487 750 487 L857 487 Q877 488 886 504 Q893 521 897 566 L940 552 Q934 502 925 478 Q910 447 868 445 L736 445 Q674 445 674 515 L674 785 L902 785 ZM719 643 L857 643 L857 743 L719 743 L719 643 ZM584 43 Q496 -39 373 -101 L340 -58 Q461 -2 546 77 L584 43 Z" /><glyph glyph-name="uni64CE" unicode="&#x64ce;" d="M639 685 L631 669 Q654 581 731 516 Q794 584 815 685 L639 685 ZM603 618 Q577 575 543 536 L514 574 Q600 677 630 823 L681 816 Q671 771 657 732 L923 732 L923 685 L864 685 Q840 564 771 487 Q848 438 952 404 L927 361 Q809 400 736 453 Q665 395 561 368 L540 413 Q635 437 697 485 Q631 545 603 618 ZM837 311 Q707 292 538 281 L538 201 L854 201 L854 159 L538 159 L538 86 L934 86 L934 40 L538 40 L538 -27 Q538 -103 461 -103 L341 -103 L330 -55 Q410 -59 444 -59 Q485 -59 485 -15 L485 40 L67 40 L67 86 L485 86 L485 159 L138 159 L138 201 L485 201 L485 278 Q307 271 155 271 L141 313 Q545 314 811 354 L837 311 ZM199 819 L246 819 L246 771 L368 771 L368 820 L415 820 L415 771 L539 771 L539 728 L415 728 L415 674 L368 674 L368 728 L246 728 L246 673 L199 673 L199 728 L68 728 L68 771 L199 771 L199 819 ZM128 545 L366 545 L366 403 L128 403 L128 545 ZM322 440 L322 509 L172 509 L172 440 L322 440 ZM192 685 Q183 656 176 636 L499 636 Q496 443 488 414 Q481 382 457 370 Q433 358 362 358 L324 358 L311 400 L375 399 Q416 399 429 408 Q441 420 445 443 Q448 469 451 596 L157 596 Q126 538 76 499 L46 535 Q119 593 146 693 L192 685 Z" /><glyph glyph-name="uni2F40" unicode="&#x2f40;&#x652f;" d="M469 815 L525 815 L525 678 L926 678 L926 624 L525 624 L525 455 L796 455 L796 407 Q710 232 543 110 Q626 59 721 21 Q834 -21 950 -50 L920 -98 Q795 -66 676 -16 Q580 25 497 78 Q329 -31 83 -98 L52 -51 Q292 10 452 109 Q374 169 314 244 Q256 317 234 404 L151 404 L151 455 L469 455 L469 624 L74 624 L74 678 L469 678 L469 815 ZM498 139 Q653 249 735 404 L286 404 Q312 316 374 248 Q425 190 498 139 Z" /><glyph glyph-name="uni653E" unicode="&#x653e;" d="M54 658 L262 658 Q228 744 191 806 L246 816 Q283 745 315 658 L467 658 L467 605 L218 605 L218 512 Q218 488 216 440 L410 440 Q410 86 396 2 Q381 -84 280 -84 Q260 -84 212 -81 L199 -33 Q241 -36 271 -36 Q333 -36 345 18 Q358 84 359 389 L213 389 Q194 68 79 -95 L37 -59 Q164 119 167 512 L167 605 L54 605 L54 658 ZM608 607 Q595 568 578 525 Q626 342 706 209 Q797 375 803 607 L608 607 ZM677 161 Q599 290 548 462 Q514 401 486 364 L452 404 Q564 561 604 826 L658 816 Q641 721 623 658 L933 658 L933 607 L855 607 Q848 343 738 160 Q832 23 964 -52 L932 -98 Q801 -23 708 114 Q617 -13 476 -97 L446 -50 Q591 34 677 161 Z" /><glyph glyph-name="uni6548" unicode="&#x6548;" d="M240 570 Q177 432 91 331 L47 362 Q133 460 192 593 L240 570 ZM456 415 Q384 505 316 565 L351 598 Q411 550 492 451 L456 415 ZM176 345 Q245 288 301 234 Q339 305 365 393 L413 372 Q385 276 342 194 Q417 119 466 61 L429 20 Q379 80 314 146 Q221 -4 72 -88 L39 -40 Q183 40 274 186 Q207 251 140 305 L176 345 ZM275 823 Q301 773 324 703 L514 703 L514 650 L56 650 L56 703 L271 703 Q246 766 220 813 L275 823 ZM641 593 Q628 548 617 516 Q656 350 719 229 Q801 386 805 593 L641 593 ZM689 177 Q627 295 587 442 Q554 373 523 327 L489 369 Q594 537 633 821 L686 811 Q675 733 655 647 L947 647 L947 593 L857 593 Q849 349 749 175 Q837 29 962 -48 L929 -95 Q806 -16 718 126 Q624 -9 469 -99 L438 -50 Q598 37 689 177 Z" /><glyph glyph-name="uni6559" unicode="&#x6559;" d="M930 -95 Q813 14 739 139 Q651 -1 503 -95 L472 -46 Q625 45 710 190 Q640 318 603 473 Q571 407 531 351 L497 391 Q605 548 644 816 L697 806 Q685 723 667 655 L934 655 L934 604 L864 604 Q856 361 767 188 Q847 50 962 -49 L930 -95 ZM653 604 L631 539 Q669 372 737 242 Q808 397 813 604 L653 604 ZM104 714 L243 714 L243 810 L294 810 L294 714 L406 714 L406 664 L294 664 L294 546 L364 546 Q444 649 503 767 L547 745 Q488 633 425 546 L513 546 L513 495 L386 495 Q340 440 292 392 L470 392 L470 352 Q423 294 348 228 L348 167 Q446 183 533 205 L533 154 Q450 134 348 118 L348 -12 Q348 -87 274 -87 L171 -87 L157 -38 Q224 -43 254 -43 Q296 -43 296 3 L296 111 Q205 99 67 86 L59 139 Q188 147 296 160 L296 240 Q356 286 405 342 L237 342 Q161 278 72 227 L38 266 Q103 304 155 342 L107 342 L107 392 L217 392 Q276 443 322 495 L57 495 L57 546 L243 546 L243 664 L104 664 L104 714 Z" /><glyph glyph-name="uni6570" unicode="&#x6570;" d="M652 603 Q642 563 636 544 Q676 360 743 223 Q810 388 813 603 L652 603 ZM717 168 Q653 290 610 459 Q581 381 544 316 L510 358 Q601 528 634 818 L688 808 Q678 730 664 656 L936 656 L936 603 L865 603 Q859 344 774 165 Q854 26 965 -49 L934 -95 Q825 -18 747 115 Q671 -15 556 -97 L526 -51 Q647 35 717 168 ZM243 350 L295 344 L271 282 L485 282 L485 236 Q449 131 365 56 Q439 25 515 -18 L485 -61 Q415 -20 322 21 Q221 -52 71 -95 L44 -49 Q176 -13 267 46 Q203 74 122 104 Q164 172 194 233 L67 233 L67 282 L217 282 L243 350 ZM312 78 Q393 145 433 233 L249 233 Q224 180 189 126 Q252 105 312 78 ZM136 790 Q174 732 201 665 L158 646 Q128 715 90 775 L136 790 ZM495 778 Q466 710 417 645 L376 666 Q424 736 450 799 L495 778 ZM70 618 L268 618 L268 813 L319 813 L319 618 L508 618 L508 569 L319 569 L319 557 Q412 506 491 451 L462 408 Q380 475 319 516 L319 372 L268 372 L268 569 L265 569 Q217 448 80 359 L52 404 Q179 476 224 569 L70 569 L70 618 Z" /><glyph glyph-name="uni6574" unicode="&#x6574;" d="M95 655 L258 655 L258 720 L55 720 L55 764 L258 764 L258 815 L308 815 L308 764 L500 764 L500 720 L308 720 L308 655 L472 655 L472 490 L308 490 L308 467 Q402 425 491 373 L464 332 Q373 395 308 431 L308 321 L258 321 L258 445 Q164 363 67 314 L43 357 Q151 399 258 488 L258 490 L95 490 L95 655 ZM426 529 L426 615 L308 615 L308 529 L426 529 ZM258 529 L258 615 L140 615 L140 529 L258 529 ZM630 680 Q619 656 604 627 Q649 538 726 474 L737 485 Q799 558 817 680 L630 680 ZM688 442 Q621 500 576 581 Q552 545 525 515 L493 556 Q588 664 622 819 L672 813 Q662 770 648 728 L934 728 L934 680 L866 680 Q845 538 776 454 L766 444 Q845 391 945 361 L916 317 Q806 353 728 410 Q655 357 535 322 L516 367 Q623 397 688 442 ZM466 230 L107 230 L107 278 L895 278 L895 230 L520 230 L520 128 L839 128 L839 80 L520 80 L520 -22 L942 -22 L942 -72 L58 -72 L58 -22 L223 -22 L223 175 L275 175 L275 -22 L466 -22 L466 230 Z" /><glyph glyph-name="uni2F42" unicode="&#x2f42;&#x6587;" d="M69 639 L491 639 Q451 725 388 800 L442 820 Q501 745 549 639 L931 639 L931 585 L772 585 Q700 339 547 177 Q713 34 955 -55 L925 -101 Q676 -9 509 138 Q338 -26 76 -101 L48 -53 Q307 19 472 172 Q292 347 224 585 L69 585 L69 639 ZM277 585 Q344 368 510 210 Q653 363 717 585 L277 585 Z" /><glyph glyph-name="uni65B0" unicode="&#x65b0;" d="M922 754 Q786 696 623 687 L623 491 L964 491 L964 440 L847 440 L847 -102 L794 -102 L794 440 L623 440 L623 308 Q616 54 510 -97 L471 -56 Q564 75 570 308 L570 732 Q748 736 896 803 L922 754 ZM63 723 L267 723 Q237 781 208 818 L263 828 Q290 788 319 723 L509 723 L509 671 L63 671 L63 723 ZM54 496 L175 496 Q149 566 116 618 L164 637 Q197 577 224 496 L345 496 Q380 564 405 640 L454 623 Q428 552 394 496 L516 496 L516 445 L317 445 L317 317 L498 317 L498 267 L317 267 L317 -22 Q317 -102 239 -102 L184 -102 L172 -51 Q206 -55 221 -55 Q263 -55 263 -9 L263 267 L68 267 L68 317 L263 317 L263 445 L54 445 L54 496 ZM197 195 Q157 44 81 -70 L36 -41 Q111 67 147 205 L197 195 ZM414 213 Q464 112 491 31 L445 13 Q414 107 368 201 L414 213 Z" /><glyph glyph-name="uni2F45" unicode="&#x2f45;&#x65b9;" d="M71 662 L507 662 Q479 731 431 798 L483 817 Q527 751 562 662 L939 662 L939 609 L408 609 L397 413 L814 413 Q811 133 795 49 Q770 -85 651 -90 Q603 -90 535 -87 L519 -37 Q619 -41 645 -41 Q732 -37 750 81 Q759 153 759 361 L391 361 Q373 237 319 133 Q246 10 114 -99 L74 -61 Q234 75 289 191 Q339 305 348 452 Q353 560 354 609 L71 609 L71 662 Z" /><glyph glyph-name="uni65C5" unicode="&#x65c5;" d="M547 643 Q498 553 436 492 L396 526 Q506 634 563 821 L613 801 Q594 745 572 695 L923 695 L923 643 L547 643 ZM943 328 Q878 258 778 210 Q840 57 959 -48 L925 -93 Q707 96 667 460 Q611 449 560 442 L560 -19 Q659 5 736 31 L745 -21 Q636 -55 502 -86 L490 -36 Q507 -28 507 -10 L507 485 Q692 504 860 568 L889 523 Q801 490 714 470 Q726 357 760 257 Q849 302 907 368 L943 328 ZM62 666 L422 666 L422 614 L204 614 L204 465 L401 465 Q401 92 385 -1 Q370 -91 254 -91 Q241 -91 214 -88 L201 -40 Q227 -43 246 -43 Q319 -43 334 15 Q348 80 350 414 L203 414 Q194 70 82 -97 L40 -60 Q150 101 152 461 L152 614 L62 614 L62 666 ZM223 822 Q262 743 281 690 L232 672 Q208 741 172 807 L223 822 Z" /><glyph glyph-name="uni65D7" unicode="&#x65d7;" d="M514 611 L565 611 L565 539 L799 539 L799 615 L850 615 L850 539 L930 539 L930 492 L850 492 L850 137 L948 137 L948 87 L406 87 L406 137 L514 137 L514 492 L430 492 L430 539 L514 539 L514 611 ZM565 137 L799 137 L799 227 L565 227 L565 137 ZM799 492 L565 492 L565 399 L799 399 L799 492 ZM565 268 L799 268 L799 356 L565 356 L565 268 ZM768 64 Q876 5 952 -66 L920 -105 Q849 -35 738 27 L768 64 ZM635 34 Q555 -43 435 -104 L402 -61 Q517 -8 598 67 L635 34 ZM57 667 L373 667 L373 615 L192 615 L192 484 L191 464 L359 464 Q359 93 343 0 Q329 -91 225 -91 Q213 -91 184 -88 L171 -43 Q198 -46 217 -46 Q282 -46 294 12 Q307 84 308 414 L190 414 Q177 70 77 -100 L37 -64 Q138 112 140 503 L140 615 L57 615 L57 667 ZM209 818 Q243 751 261 691 L214 674 Q189 743 157 804 L209 818 ZM492 675 Q458 619 410 569 L376 608 Q459 691 508 822 L557 810 Q542 769 521 727 L928 727 L928 675 L492 675 Z" /><glyph glyph-name="uni2F46" unicode="&#x2f46;&#x65e0;" d="M138 754 L846 754 L846 700 L486 700 L486 628 Q485 533 472 442 L930 442 L930 389 L613 389 L613 18 Q613 -31 662 -31 L800 -31 Q843 -31 861 -11 Q884 12 892 132 L943 115 Q933 -22 899 -56 Q871 -82 811 -82 L646 -82 Q559 -82 559 7 L559 389 L464 389 Q441 261 388 162 Q297 0 88 -93 L56 -45 Q262 46 349 205 Q386 283 408 389 L69 389 L69 442 L417 442 Q430 533 431 628 L431 700 L138 700 L138 754 Z" /><glyph glyph-name="uni2F47" unicode="&#x2f47;&#x65e5;" d="M809 771 L809 -93 L755 -93 L755 -12 L265 -12 L265 -94 L211 -94 L211 771 L809 771 ZM265 41 L755 41 L755 359 L265 359 L265 41 ZM265 412 L755 412 L755 718 L265 718 L265 412 Z" /><glyph glyph-name="uni660E" unicode="&#x660e;" d="M377 750 L377 77 L149 77 L149 -6 L95 -6 L95 750 L377 750 ZM149 130 L324 130 L324 392 L149 392 L149 130 ZM149 445 L324 445 L324 698 L149 698 L149 445 ZM552 480 L552 304 L551 291 L838 291 L838 480 L552 480 ZM838 531 L838 725 L552 725 L552 531 L838 531 ZM548 239 Q530 33 435 -100 L392 -61 Q494 86 497 313 L497 778 L893 778 L893 -6 Q893 -88 811 -88 L678 -88 L663 -36 Q757 -38 793 -38 Q838 -38 838 13 L838 239 L548 239 Z" /><glyph glyph-name="uni662F" unicode="&#x662f;" d="M205 777 L805 777 L805 440 L205 440 L205 777 ZM751 488 L751 585 L259 585 L259 488 L751 488 ZM259 630 L751 630 L751 730 L259 730 L259 630 ZM485 306 L61 306 L61 355 L942 355 L942 306 L538 306 L538 176 L834 176 L834 126 L538 126 L538 -26 Q618 -34 721 -34 Q819 -34 935 -30 L920 -83 L725 -82 Q478 -80 392 -42 Q312 -6 249 101 Q190 -18 98 -93 L62 -50 Q202 66 252 262 L304 253 Q290 198 269 146 Q334 32 417 -1 Q447 -11 485 -18 L485 306 Z" /><glyph glyph-name="uni666E" unicode="&#x666e;" d="M377 650 L100 650 L100 701 L324 701 Q296 764 267 807 L324 817 Q352 769 380 701 L602 701 Q645 761 673 822 L726 803 Q694 742 661 701 L900 701 L900 650 L622 650 L622 437 L938 437 L938 385 L62 385 L62 437 L377 437 L377 650 ZM569 650 L430 650 L430 437 L569 437 L569 650 ZM846 595 Q813 527 758 459 L714 482 Q768 547 802 616 L846 595 ZM215 613 Q257 545 285 478 L239 458 Q204 543 168 598 L215 613 ZM797 299 L797 -96 L744 -96 L744 -47 L254 -47 L254 -96 L201 -96 L201 299 L797 299 ZM254 -1 L744 -1 L744 101 L254 101 L254 -1 ZM254 146 L744 146 L744 251 L254 251 L254 146 Z" /><glyph glyph-name="uni666F" unicode="&#x666f;" d="M193 332 L814 332 L814 139 L538 139 L538 -21 Q538 -94 469 -94 L352 -94 L340 -44 Q418 -48 451 -48 Q484 -48 484 -8 L484 139 L193 139 L193 332 ZM760 183 L760 287 L246 287 L246 183 L760 183 ZM178 782 L823 782 L823 510 L508 510 L537 442 L937 442 L937 395 L63 395 L63 442 L480 442 Q461 485 446 510 L178 510 L178 782 ZM769 555 L769 627 L232 627 L232 555 L769 555 ZM232 668 L769 668 L769 738 L232 738 L232 668 ZM674 93 Q818 49 950 -34 L930 -83 Q798 1 651 50 L674 93 ZM338 61 Q238 -27 80 -84 L50 -39 Q217 17 303 97 L338 61 Z" /><glyph glyph-name="uni667A" unicode="&#x667a;" d="M182 687 Q147 629 101 586 L67 626 Q143 696 188 821 L238 810 Q220 764 207 735 L504 735 L504 687 L348 687 Q345 625 336 574 L531 574 L531 524 L325 524 L314 487 Q425 430 510 366 L471 327 Q405 384 297 447 Q238 337 84 265 L48 309 Q205 379 256 486 L270 524 L59 524 L59 574 L283 574 Q294 628 295 687 L182 687 ZM581 745 L896 745 L896 388 L581 388 L581 745 ZM842 437 L842 696 L634 696 L634 437 L842 437 ZM825 305 L825 -100 L770 -100 L770 -50 L257 -50 L257 -100 L203 -100 L203 305 L825 305 ZM257 -1 L770 -1 L770 101 L257 101 L257 -1 ZM257 149 L770 149 L770 255 L257 255 L257 149 Z" /><glyph glyph-name="uni66F4" unicode="&#x66f4;" d="M77 771 L924 771 L924 719 L528 719 L528 620 L840 620 L840 234 L517 234 Q499 128 453 63 Q665 -31 961 -43 L946 -95 Q639 -81 418 23 Q315 -67 72 -96 L48 -47 Q271 -26 367 49 Q273 100 194 168 L237 198 Q312 133 404 86 Q447 146 463 234 L163 234 L163 620 L474 620 L474 719 L77 719 L77 771 ZM787 283 L787 405 L528 405 L528 361 Q526 309 524 283 L787 283 ZM469 283 Q473 335 474 361 L474 405 L217 405 L217 283 L469 283 ZM217 452 L474 452 L474 571 L217 571 L217 452 ZM528 571 L528 452 L787 452 L787 571 L528 571 Z" /><glyph glyph-name="uni6700" unicode="&#x6700;" d="M62 421 L940 421 L940 375 L486 375 L486 44 L549 54 L549 10 L486 0 L486 -99 L434 -99 L434 -6 Q301 -22 74 -35 L67 13 L163 17 L163 375 L62 375 L62 421 ZM214 20 Q336 28 434 38 L434 117 L214 117 L214 20 ZM214 159 L434 159 L434 246 L214 246 L214 159 ZM214 288 L434 288 L434 375 L214 375 L214 288 ZM196 774 L811 774 L811 498 L196 498 L196 774 ZM758 540 L758 617 L247 617 L247 540 L758 540 ZM247 657 L758 657 L758 732 L247 732 L247 657 ZM547 250 L547 297 L882 297 L882 253 Q850 132 772 45 Q843 -9 940 -52 L912 -96 Q808 -47 738 11 Q665 -54 565 -97 L537 -55 Q633 -13 700 45 Q608 138 579 250 L547 250 ZM734 78 Q801 154 831 250 L627 250 Q657 152 734 78 Z" /><glyph glyph-name="uni2F49" unicode="&#x2f49;&#x6708;" d="M303 474 L303 277 L750 277 L750 474 L303 474 ZM750 525 L750 718 L303 718 L303 525 L750 525 ZM300 226 Q285 30 186 -98 L144 -60 Q247 74 250 285 L250 770 L804 770 L804 -11 Q804 -88 729 -88 L598 -88 L584 -36 Q676 -38 711 -38 Q750 -38 750 9 L750 226 L300 226 Z" /><glyph glyph-name="uni6709" unicode="&#x6709;" d="M340 465 L340 341 L756 341 L756 465 L340 465 ZM756 292 L340 292 L340 170 L756 170 L756 292 ZM756 121 L340 121 L340 -96 L289 -96 L289 447 Q198 330 79 235 L45 280 Q244 438 349 645 L71 645 L71 697 L374 697 Q399 753 420 820 L475 814 Q458 757 434 697 L940 697 L940 645 L411 645 Q377 576 336 513 L808 513 L808 -27 Q808 -92 732 -94 L620 -94 L607 -45 Q685 -47 715 -47 Q756 -47 756 -11 L756 121 Z" /><glyph glyph-name="uni670D" unicode="&#x670d;" d="M174 483 L174 301 L352 301 L352 483 L174 483 ZM352 532 L352 716 L174 716 L174 532 L352 532 ZM173 250 Q166 39 105 -99 L63 -62 Q124 80 125 294 L125 767 L403 767 L403 -11 Q403 -95 325 -95 L245 -95 L232 -47 Q288 -49 309 -49 Q352 -49 352 7 L352 250 L173 250 ZM549 349 L549 -98 L498 -98 L498 767 L892 767 Q892 590 874 531 Q858 471 762 471 L685 471 L670 518 L737 518 Q776 518 795 524 Q814 530 824 554 Q837 595 838 717 L549 717 L549 398 L892 398 L892 352 Q860 189 786 79 Q858 7 958 -49 L932 -94 Q826 -33 756 38 Q689 -44 594 -95 L566 -52 Q659 1 720 76 Q618 196 582 349 L549 349 ZM629 349 Q662 220 750 117 Q814 216 843 349 L629 349 Z" /><glyph glyph-name="uni671F" unicode="&#x671f;" d="M134 813 L186 813 L186 695 L399 695 L399 811 L451 811 L451 695 L518 695 L518 644 L451 644 L451 202 L523 202 L523 152 L55 152 L55 202 L134 202 L134 644 L65 644 L65 695 L134 695 L134 813 ZM186 202 L399 202 L399 317 L186 317 L186 202 ZM399 644 L186 644 L186 528 L399 528 L399 644 ZM186 366 L399 366 L399 479 L186 479 L186 366 ZM362 114 Q433 26 475 -50 L430 -81 Q391 -7 320 87 L362 114 ZM230 95 Q172 -13 93 -93 L50 -63 Q128 12 185 117 L230 95 ZM645 480 L645 299 L644 282 L852 282 L852 480 L645 480 ZM852 530 L852 722 L645 722 L645 530 L852 530 ZM640 232 Q620 33 519 -97 L477 -60 Q587 86 590 313 L590 773 L907 773 L907 -2 Q907 -88 826 -88 L718 -88 L704 -36 Q780 -38 808 -38 Q852 -38 852 17 L852 232 L640 232 Z" /><glyph glyph-name="uni672C" unicode="&#x672c;" d="M74 625 L473 625 L473 812 L527 812 L527 625 L925 625 L925 572 L584 572 Q688 323 955 129 L919 82 Q644 301 540 572 L527 572 L527 166 L749 166 L749 113 L527 113 L527 -98 L473 -98 L473 113 L259 113 L259 166 L473 166 L473 572 L459 572 Q349 266 71 70 L40 119 Q305 295 416 572 L74 572 L74 625 Z" /><glyph glyph-name="uni672F" unicode="&#x672f;" d="M78 571 L473 571 L473 817 L527 817 L527 571 L923 571 L923 520 L588 520 Q689 257 952 54 L916 9 Q641 236 537 520 L527 520 L527 -96 L473 -96 L473 520 L463 520 Q352 202 74 1 L44 48 Q302 230 413 520 L78 520 L78 571 ZM687 815 Q782 717 830 647 L787 617 Q736 693 644 788 L687 815 Z" /><glyph glyph-name="uni673A" unicode="&#x673a;" d="M61 613 L216 613 L216 814 L270 814 L270 613 L400 613 L400 560 L270 560 L270 502 Q340 431 415 334 L384 286 Q320 388 270 452 L270 -93 L216 -93 L216 447 Q160 281 66 151 L42 208 Q164 362 214 560 L61 560 L61 613 ZM362 -60 Q428 38 455 148 Q475 246 475 390 L475 767 L783 767 L783 13 Q783 -22 812 -22 L847 -22 Q867 -22 881 -15 Q895 -7 901 19 Q907 54 907 188 L958 173 Q958 77 951 14 Q945 -40 920 -59 Q898 -73 851 -73 L812 -73 Q728 -73 728 10 L728 715 L529 715 L529 390 Q529 227 503 120 Q476 5 406 -99 L362 -60 Z" /><glyph glyph-name="uni676D" unicode="&#x676d;" d="M399 677 L625 677 Q596 757 566 808 L623 818 Q655 753 682 677 L908 677 L908 624 L399 624 L399 677 ZM355 -62 Q426 18 455 104 Q482 185 482 330 L482 500 L787 500 L787 -1 Q787 -36 818 -36 L846 -36 Q861 -36 877 -32 Q888 -28 893 -21 Q906 -8 906 125 L954 111 Q954 32 947 -22 Q941 -57 919 -73 Q899 -84 853 -84 L817 -84 Q736 -84 736 -6 L736 449 L533 449 L533 330 Q533 186 504 91 Q476 -4 395 -97 L355 -62 ZM193 812 L246 812 L246 617 L364 617 L364 565 L246 565 L246 486 Q320 402 396 297 L365 251 Q293 367 246 429 L246 -97 L193 -97 L193 429 Q145 274 66 149 L43 206 Q150 364 193 563 L193 565 L69 565 L69 617 L193 617 L193 812 Z" /><glyph glyph-name="uni6784" unicode="&#x6784;" d="M586 810 Q575 736 554 663 L909 663 Q909 155 892 34 Q875 -88 758 -88 Q727 -88 650 -85 L638 -37 Q701 -40 749 -40 Q826 -40 841 42 Q855 135 857 612 L538 612 Q497 493 435 402 L400 447 Q498 597 533 816 L586 810 ZM435 167 Q477 191 585 495 L634 477 Q557 264 511 184 Q638 210 699 225 Q682 274 650 349 L697 364 Q748 247 787 112 L740 90 Q727 140 713 183 Q596 152 446 123 L435 167 ZM264 -94 L211 -94 L211 448 Q156 277 62 145 L39 203 Q159 359 207 560 L60 560 L60 613 L211 613 L211 814 L264 814 L264 613 L393 613 L393 560 L264 560 L264 489 Q336 413 411 318 L380 273 Q320 364 264 431 L264 -94 Z" /><glyph glyph-name="uni6790" unicode="&#x6790;" d="M267 -95 L213 -95 L213 444 Q158 273 67 144 L43 202 Q163 360 211 560 L62 560 L62 613 L213 613 L213 815 L267 815 L267 613 L409 613 L409 560 L267 560 L267 502 Q338 428 417 324 L387 280 Q318 382 267 445 L267 -95 ZM917 760 Q743 695 530 686 L530 489 L943 489 L943 436 L787 436 L787 -96 L732 -96 L732 436 L530 436 L530 416 Q521 99 380 -90 L341 -49 Q468 120 478 416 L478 732 Q708 738 890 809 L917 760 Z" /><glyph glyph-name="uni679C" unicode="&#x679c;" d="M173 770 L822 770 L822 397 L527 397 L527 291 L929 291 L929 240 L583 240 Q688 94 951 -20 L913 -66 Q643 72 538 240 L527 240 L527 -98 L473 -98 L473 240 L462 240 Q350 54 79 -66 L49 -17 Q307 83 418 240 L71 240 L71 291 L473 291 L473 397 L173 397 L173 770 ZM767 444 L767 558 L527 558 L527 444 L767 444 ZM473 444 L473 558 L227 558 L227 444 L473 444 ZM227 606 L473 606 L473 721 L227 721 L227 606 ZM527 721 L527 606 L767 606 L767 721 L527 721 Z" /><glyph glyph-name="uni67B6" unicode="&#x67b6;" d="M577 733 L886 733 L886 404 L577 404 L577 733 ZM835 454 L835 683 L629 683 L629 454 L835 454 ZM232 811 L285 811 L285 727 L284 717 L478 717 Q476 467 448 418 Q418 370 347 370 Q318 370 277 373 L263 422 L335 418 Q392 420 407 460 Q421 496 424 667 L280 667 Q255 456 92 351 L52 387 Q203 480 227 667 L66 667 L66 717 L231 717 L232 811 ZM70 270 L473 270 L473 358 L527 358 L527 270 L931 270 L931 219 L584 219 Q690 86 941 -16 L904 -62 Q642 63 537 219 L527 219 L527 -96 L473 -96 L473 219 L463 219 Q350 45 87 -66 L57 -16 Q307 76 416 219 L70 219 L70 270 Z" /><glyph glyph-name="uni67E0" unicode="&#x67e0;" d="M249 -94 L196 -94 L196 437 Q146 271 63 144 L39 202 Q150 360 195 560 L59 560 L59 613 L196 613 L196 814 L249 814 L249 613 L358 613 L358 560 L249 560 L249 493 Q316 409 380 307 L349 261 Q286 377 249 434 L249 -94 ZM938 690 L938 496 L887 496 L887 639 L467 639 L467 496 L416 496 L416 690 L657 690 Q633 759 603 812 L659 822 Q689 756 711 690 L938 690 ZM507 -90 L495 -38 Q583 -42 621 -42 Q669 -42 669 10 L669 368 L400 368 L400 422 L955 422 L955 368 L723 368 L723 -4 Q723 -90 640 -90 L507 -90 Z" /><glyph glyph-name="uni6807" unicode="&#x6807;" d="M200 812 L253 812 L253 617 L376 617 L376 564 L253 564 L253 480 Q326 404 403 304 L372 258 Q308 355 253 422 L253 -97 L200 -97 L200 443 Q150 280 64 152 L40 209 Q152 368 198 564 L71 564 L71 617 L200 617 L200 812 ZM545 350 Q495 139 403 -13 L355 17 Q451 172 495 360 L545 350 ZM838 365 Q904 193 952 1 L902 -22 Q853 179 790 348 L838 365 ZM522 -87 L511 -36 Q577 -40 606 -40 Q649 -40 649 6 L649 452 L399 452 L399 505 L955 505 L955 452 L703 452 L703 -7 Q703 -87 624 -87 L522 -87 ZM451 750 L903 750 L903 697 L451 697 L451 750 Z" /><glyph glyph-name="uni6863" unicode="&#x6863;" d="M414 461 L643 461 L643 815 L698 815 L698 461 L906 461 L906 -98 L852 -98 L852 -51 L394 -51 L394 2 L852 2 L852 181 L438 181 L438 233 L852 233 L852 409 L414 409 L414 461 ZM936 741 Q895 631 824 523 L778 547 Q846 655 887 764 L936 741 ZM454 757 Q507 666 557 548 L510 525 Q463 637 406 733 L454 757 ZM256 -94 L203 -94 L203 446 Q152 283 63 154 L39 212 Q153 365 201 560 L60 560 L60 613 L203 613 L203 814 L256 814 L256 613 L383 613 L383 560 L256 560 L256 496 Q327 418 400 319 L369 274 Q302 378 256 437 L256 -94 Z" /><glyph glyph-name="uni68B3" unicode="&#x68b3;" d="M255 -94 L204 -94 L204 454 Q152 280 59 143 L35 201 Q151 359 199 560 L59 560 L59 613 L204 613 L204 814 L255 814 L255 613 L372 613 L372 560 L255 560 L255 497 Q327 417 412 300 L383 257 Q310 371 255 440 L255 -94 ZM652 823 Q681 762 698 710 L921 710 L921 658 L623 658 Q549 517 491 456 Q651 473 798 505 Q762 556 735 591 L775 617 Q874 491 927 397 L885 367 Q863 408 829 460 Q642 424 422 403 L411 448 L422 452 Q478 491 567 658 L399 658 L399 710 L647 710 Q624 768 598 813 L652 823 ZM616 348 L665 348 L665 -77 L616 -77 L616 348 ZM521 349 Q515 156 482 66 Q446 -30 362 -96 L328 -55 Q401 4 435 88 Q465 171 471 349 L521 349 ZM839 -86 Q768 -86 768 -12 L768 348 L818 348 L818 -5 Q818 -37 840 -38 L877 -38 Q902 -37 908 -4 Q914 37 914 135 L959 118 Q959 -20 944 -53 Q929 -83 880 -86 L839 -86 Z" /><glyph glyph-name="uni6A21" unicode="&#x6a21;" d="M420 569 L882 569 L882 265 L674 265 Q672 214 664 175 L951 175 L951 125 L684 125 Q770 12 955 -57 L920 -99 Q729 -19 643 104 L633 82 Q578 -28 385 -99 L351 -56 Q522 3 582 95 Q591 110 597 125 L346 125 L346 175 L613 175 Q624 217 625 265 L420 265 L420 569 ZM831 309 L831 395 L470 395 L470 309 L831 309 ZM470 438 L831 438 L831 525 L470 525 L470 438 ZM355 725 L509 725 L509 814 L561 814 L561 725 L731 725 L731 814 L783 814 L783 725 L943 725 L943 675 L783 675 L783 599 L731 599 L731 675 L561 675 L561 599 L509 599 L509 675 L355 675 L355 725 ZM244 -94 L192 -94 L192 440 Q144 280 60 152 L37 210 Q146 362 191 561 L60 561 L60 612 L192 612 L192 814 L244 814 L244 612 L348 612 L348 561 L244 561 L244 488 Q296 421 366 312 L337 268 Q281 371 244 429 L244 -94 Z" /><glyph glyph-name="uni6A2A" unicode="&#x6a2a;" d="M532 816 L583 816 L583 719 L753 719 L753 816 L804 816 L804 719 L925 719 L925 671 L804 671 L804 561 L943 561 L943 513 L695 513 L695 424 L897 424 L897 84 L443 84 L443 424 L641 424 L641 513 L392 513 L392 561 L532 561 L532 671 L413 671 L413 719 L532 719 L532 816 ZM753 671 L583 671 L583 561 L753 561 L753 671 ZM846 131 L846 232 L695 232 L695 131 L846 131 ZM641 131 L641 232 L495 232 L495 131 L641 131 ZM495 277 L641 277 L641 377 L495 377 L495 277 ZM695 377 L695 277 L846 277 L846 377 L695 377 ZM754 55 Q872 9 965 -55 L936 -99 Q833 -25 727 15 L754 55 ZM608 17 Q517 -54 383 -98 L360 -49 Q488 -10 575 54 L608 17 ZM255 -94 L202 -94 L202 444 Q151 286 64 158 L40 216 Q152 364 201 560 L60 560 L60 613 L202 613 L202 814 L255 814 L255 613 L360 613 L360 560 L255 560 L255 497 Q326 418 396 322 L366 278 Q300 380 255 440 L255 -94 Z" /><glyph glyph-name="uni6A61" unicode="&#x6a61;" d="M418 573 Q409 567 403 561 L372 599 Q495 689 565 825 L615 814 Q600 785 577 747 L803 747 L803 710 Q760 649 724 612 L905 612 L905 406 L636 406 L627 394 Q683 327 715 242 Q811 289 879 358 L912 319 Q871 279 814 243 Q853 101 956 -8 L922 -50 Q819 73 777 222 Q745 206 729 199 Q748 132 751 55 Q751 -26 726 -60 Q703 -86 643 -95 L590 -96 L573 -48 L636 -47 Q667 -44 684 -25 Q702 -4 702 55 Q700 99 695 131 Q582 12 389 -65 L363 -20 Q572 58 684 183 Q673 225 659 255 Q562 155 399 92 L373 137 Q546 199 640 296 Q623 327 599 359 Q521 274 392 239 L371 284 Q504 318 577 406 L418 406 L418 573 ZM663 612 Q705 652 742 703 L546 703 Q506 652 463 612 L663 612 ZM854 450 L854 568 L697 568 Q686 506 660 450 L854 450 ZM607 450 Q637 503 649 568 L468 568 L468 450 L607 450 ZM245 -90 L194 -90 L194 441 Q148 292 68 170 L45 226 Q149 375 192 563 L69 563 L69 614 L194 614 L194 814 L245 814 L245 614 L356 614 L356 563 L245 563 L245 496 Q312 421 373 336 L346 294 Q277 400 245 442 L245 -90 Z" /><glyph glyph-name="uni6AAC" unicode="&#x6aac;" d="M239 -94 L187 -94 L187 433 Q139 273 56 143 L34 196 Q143 357 186 561 L56 561 L56 612 L187 612 L187 814 L239 814 L239 612 L347 612 L347 561 L239 561 L239 462 Q301 383 364 283 L335 240 Q280 344 239 405 L239 -94 ZM921 617 L921 455 L871 455 L871 574 L439 574 L439 455 L388 455 L388 617 L522 617 L522 695 L365 695 L365 741 L522 741 L522 815 L574 815 L574 741 L738 741 L738 813 L789 813 L789 741 L944 741 L944 695 L789 695 L789 617 L921 617 ZM738 617 L738 695 L574 695 L574 617 L738 617 ZM503 504 L808 504 L808 463 L503 463 L503 504 ZM372 392 L937 392 L937 347 L646 347 Q634 335 630 330 Q691 278 715 191 Q802 226 881 297 L914 265 Q864 219 804 186 Q861 38 967 -39 L934 -76 Q823 8 769 169 L723 150 Q729 114 729 72 Q729 -42 695 -70 Q664 -90 607 -93 L557 -94 L542 -50 L601 -50 Q636 -49 657 -32 Q680 -11 680 72 L679 96 Q542 -15 363 -75 L336 -35 Q533 25 675 141 Q668 182 654 214 Q547 120 376 62 L352 104 Q538 162 636 249 Q619 277 594 299 Q515 238 391 197 L366 238 Q521 282 594 347 L372 347 L372 392 Z" /><glyph glyph-name="uni6B21" unicode="&#x6b21;" d="M499 604 Q451 470 373 383 L328 416 Q458 561 494 819 L548 810 Q537 730 516 657 L907 657 L907 621 Q874 487 821 356 L765 373 Q818 479 847 604 L499 604 ZM104 785 Q225 640 283 540 L238 508 Q173 618 57 756 L104 785 ZM288 350 Q206 118 113 -74 L57 -50 Q160 152 238 370 L288 350 ZM651 524 Q651 431 640 346 Q732 94 957 -52 L918 -97 Q719 44 623 254 Q609 201 606 193 Q543 14 333 -99 L296 -54 Q485 45 548 198 Q595 326 597 524 L651 524 Z" /><glyph glyph-name="uni6B63" unicode="&#x6b63;" d="M502 704 L116 704 L116 757 L902 757 L902 704 L555 704 L555 394 L852 394 L852 341 L555 341 L555 3 L944 3 L944 -50 L57 -50 L57 3 L220 3 L220 494 L274 494 L274 3 L502 3 L502 704 Z" /><glyph glyph-name="uni6BCF" unicode="&#x6bcf;" d="M257 673 Q183 553 91 468 L55 510 Q192 633 271 820 L325 808 Q305 761 286 726 L915 726 L915 673 L257 673 ZM417 260 Q527 220 617 160 L591 120 Q495 185 392 223 L417 260 ZM174 49 Q197 168 210 292 L43 292 L43 344 L215 344 Q226 466 229 576 L837 576 L830 344 L959 344 L959 292 L828 292 L818 100 L933 100 L933 49 L814 49 Q810 8 806 -7 Q793 -53 755 -77 Q717 -97 645 -97 L533 -97 L517 -47 Q605 -49 638 -49 Q675 -49 707 -41 Q739 -31 754 8 Q759 22 761 49 L174 49 ZM765 100 L775 292 L264 292 Q252 187 237 100 L765 100 ZM777 344 L783 525 L280 525 Q277 452 269 344 L777 344 ZM426 495 Q533 455 623 395 L597 356 Q500 421 401 458 L426 495 Z" /><glyph glyph-name="uni2F50" unicode="&#x2f50;&#x6bd4;" d="M191 455 L191 -12 Q317 16 462 64 L476 13 Q311 -39 132 -79 L115 -28 Q136 -16 136 4 L136 792 L191 792 L191 509 L455 509 L455 455 L191 455 ZM624 -70 Q538 -70 538 29 L538 802 L591 802 L591 473 Q741 515 892 596 L923 552 Q749 463 591 421 L591 39 Q591 -16 639 -16 L793 -16 Q826 -16 847 0 Q877 30 884 181 L935 164 Q923 -2 890 -39 Q862 -68 806 -70 L624 -70 Z" /><glyph glyph-name="uni2EA0" unicode="&#x2ea0;&#x6c11;" d="M212 284 L212 -17 Q352 10 488 58 L500 6 Q354 -42 152 -82 L139 -32 Q158 -22 158 -4 L158 771 L863 771 L863 494 L572 494 Q578 406 593 336 L926 336 L926 284 L605 284 Q619 233 636 192 Q687 75 746 19 Q801 -30 846 -30 Q866 -30 881 -1 Q897 30 909 138 L957 112 Q939 -15 914 -50 Q889 -87 857 -87 Q789 -86 716 -19 Q642 52 589 178 Q570 221 554 284 L212 284 ZM212 494 L212 336 L542 336 Q526 409 518 494 L212 494 ZM809 719 L212 719 L212 546 L809 546 L809 719 Z" /><glyph glyph-name="uni6C42" unicode="&#x6c42;" d="M74 625 L480 625 L480 818 L534 818 L534 625 L924 625 L924 572 L534 572 L534 515 Q576 412 641 322 Q756 405 833 512 L874 475 Q788 366 670 284 Q782 140 954 27 L917 -16 Q659 160 534 421 L534 -6 Q534 -91 452 -91 L319 -91 L307 -39 Q395 -43 433 -43 Q480 -43 480 8 L480 313 Q318 107 95 -29 L66 20 Q301 151 480 381 L480 572 L74 572 L74 625 ZM160 492 Q263 400 335 306 L298 269 Q230 360 122 455 L160 492 ZM663 810 Q750 745 818 671 L781 633 Q726 700 627 777 L663 810 Z" /><glyph glyph-name="uni6C47" unicode="&#x6c47;" d="M446 -9 L940 -9 L940 -64 L391 -64 L391 768 L931 768 L931 714 L446 714 L446 -9 ZM115 796 Q234 715 314 636 L275 597 Q199 676 76 758 L115 796 ZM97 548 Q208 473 282 399 L243 361 Q172 434 59 510 L97 548 ZM280 238 Q214 69 126 -93 L71 -69 Q162 89 231 258 L280 238 Z" /><glyph glyph-name="uni6C5F" unicode="&#x6c5f;" d="M616 693 L359 693 L359 745 L919 745 L919 693 L669 693 L669 -6 L953 -6 L953 -58 L310 -58 L310 -6 L616 -6 L616 693 ZM115 795 Q228 719 303 645 L265 607 Q197 678 76 758 L115 795 ZM87 558 Q201 479 275 402 L237 365 Q170 438 49 522 L87 558 ZM286 276 Q210 82 118 -86 L67 -64 Q169 116 239 295 L286 276 Z" /><glyph glyph-name="uni6CA1" unicode="&#x6ca1;" d="M117 797 Q220 723 293 646 L255 608 Q190 679 78 759 L117 797 ZM89 557 Q186 483 255 407 L217 368 Q158 438 50 519 L89 557 ZM277 268 Q211 86 123 -86 L70 -63 Q163 111 228 288 L277 268 ZM348 323 L348 375 L867 375 L867 326 Q804 177 669 72 Q792 -10 963 -54 L936 -102 Q747 -50 625 40 Q499 -44 323 -98 L296 -49 Q466 0 582 74 Q461 178 409 323 L348 323 ZM626 104 Q751 196 807 323 L461 323 Q517 194 626 104 ZM447 771 L788 771 L788 548 Q788 513 830 513 L943 513 L943 461 L819 461 Q734 461 734 539 L734 720 L500 720 L500 668 Q500 508 344 419 L307 460 Q447 532 447 663 L447 771 Z" /><glyph glyph-name="uni6CB3" unicode="&#x6cb3;" d="M111 789 Q213 716 287 639 L249 600 Q184 671 72 751 L111 789 ZM93 544 Q193 470 257 399 L218 361 Q160 428 54 506 L93 544 ZM269 261 Q204 72 120 -98 L66 -74 Q155 97 220 281 L269 261 ZM317 750 L953 750 L953 697 L871 697 L871 -6 Q871 -94 782 -94 L625 -94 L614 -42 Q718 -46 763 -46 Q817 -46 817 8 L817 697 L317 697 L317 750 ZM365 527 L668 527 L668 173 L365 173 L365 527 ZM617 223 L617 477 L416 477 L416 223 L617 223 Z" /><glyph glyph-name="uni6CB9" unicode="&#x6cb9;" d="M908 630 L908 -93 L856 -93 L856 -29 L409 -29 L409 -92 L357 -92 L357 630 L606 630 L606 812 L660 812 L660 630 L908 630 ZM409 23 L606 23 L606 283 L409 283 L409 23 ZM660 283 L660 23 L856 23 L856 283 L660 283 ZM409 333 L606 333 L606 578 L409 578 L409 333 ZM660 578 L660 333 L856 333 L856 578 L660 578 ZM125 799 Q233 723 305 646 L266 607 Q200 681 87 762 L125 799 ZM100 558 Q207 482 278 406 L239 368 Q172 441 61 521 L100 558 ZM276 276 Q209 86 127 -86 L77 -64 Q167 117 228 295 L276 276 Z" /><glyph glyph-name="uni6CD5" unicode="&#x6cd5;" d="M592 816 L646 816 L646 647 L911 647 L911 594 L646 594 L646 391 L937 391 L937 337 L607 337 Q501 85 425 -8 Q623 11 827 54 Q784 145 732 229 L785 246 Q875 97 945 -78 L894 -101 Q870 -40 849 6 Q627 -36 354 -64 L342 -16 L354 -12 Q429 52 550 337 L299 337 L299 391 L592 391 L592 594 L347 594 L347 647 L592 647 L592 816 ZM121 797 Q217 723 287 645 L249 606 Q188 677 82 759 L121 797 ZM96 562 Q186 485 250 406 L212 368 Q157 439 57 525 L96 562 ZM275 268 Q207 72 130 -91 L77 -67 Q161 100 226 288 L275 268 Z" /><glyph glyph-name="uni6CE8" unicode="&#x6ce8;" d="M120 803 Q225 726 301 645 L262 606 Q198 679 81 765 L120 803 ZM96 562 Q201 483 268 409 L229 370 Q167 443 57 525 L96 562 ZM288 268 Q216 68 136 -91 L83 -67 Q174 107 239 288 L288 268 ZM346 638 L933 638 L933 585 L667 585 L667 326 L906 326 L906 274 L667 274 L667 -10 L953 -10 L953 -63 L320 -63 L320 -10 L614 -10 L614 274 L374 274 L374 326 L614 326 L614 585 L346 585 L346 638 ZM603 820 Q646 735 669 666 L621 649 Q594 730 552 805 L603 820 Z" /><glyph glyph-name="uni6D3B" unicode="&#x6d3b;" d="M312 519 L604 519 L604 693 Q487 681 351 681 L333 730 Q665 732 875 805 L903 759 Q803 722 659 700 L659 519 L954 519 L954 466 L659 466 L659 291 L887 291 L887 -97 L833 -97 L833 -41 L433 -41 L433 -100 L379 -100 L379 291 L604 291 L604 466 L312 466 L312 519 ZM433 11 L833 11 L833 240 L433 240 L433 11 ZM118 797 Q220 733 295 664 L258 627 Q191 692 80 762 L118 797 ZM97 559 Q200 485 272 409 L234 371 Q172 441 58 522 L97 559 ZM283 280 Q211 78 131 -86 L78 -63 Q169 116 234 299 L283 280 Z" /><glyph glyph-name="uni6D3E" unicode="&#x6d3e;" d="M700 522 Q640 510 580 501 L580 -11 Q660 12 747 46 L756 -1 Q660 -36 516 -77 L505 -31 Q528 -25 528 -10 L528 542 Q717 563 881 627 L908 582 Q833 555 748 533 Q750 407 776 301 Q859 351 914 406 L944 367 Q886 311 789 253 Q841 81 959 -49 L918 -89 Q710 152 700 522 ZM879 771 Q696 698 417 671 L417 356 Q411 89 304 -97 L265 -57 Q362 116 368 356 L368 717 Q660 739 842 812 L879 771 ZM119 794 Q221 718 286 646 L249 609 Q182 682 80 757 L119 794 ZM96 560 Q189 487 256 411 L218 373 Q159 444 57 522 L96 560 ZM277 265 Q211 86 123 -87 L72 -65 Q162 104 229 284 L277 265 Z" /><glyph glyph-name="uni6D41" unicode="&#x6d41;" d="M339 453 Q353 460 350 458 Q410 496 506 656 L318 656 L318 706 L606 706 Q585 763 556 817 L611 827 Q637 775 660 706 L927 706 L927 656 L562 656 Q485 519 425 457 Q634 470 800 489 Q767 536 726 587 L769 615 Q868 494 923 399 L878 368 Q862 397 831 444 Q631 422 351 406 L339 453 ZM121 798 Q214 734 282 666 L243 627 Q179 695 82 760 L121 798 ZM97 561 Q190 490 261 410 L222 371 Q163 442 58 524 L97 561 ZM263 280 Q206 89 132 -86 L83 -64 Q158 109 216 299 L263 280 ZM562 352 L617 352 L617 -77 L562 -77 L562 352 ZM452 352 Q446 158 413 66 Q378 -28 292 -97 L258 -54 Q333 6 364 89 Q393 170 399 352 L452 352 ZM811 -88 Q735 -88 735 -16 L735 351 L787 351 L787 -8 Q787 -36 811 -38 L862 -38 Q892 -36 898 -7 Q904 29 904 113 L952 95 Q952 -29 935 -58 Q919 -85 864 -88 L811 -88 Z" /><glyph glyph-name="uni6D59" unicode="&#x6d59;" d="M107 804 Q197 727 267 641 L229 603 Q169 681 68 767 L107 804 ZM84 564 Q173 489 238 407 L201 370 Q147 441 46 528 L84 564 ZM235 277 Q178 77 114 -92 L63 -69 Q133 104 187 296 L235 277 ZM548 341 Q503 314 442 284 L442 -5 Q442 -89 367 -89 L286 -89 L275 -41 Q327 -45 350 -45 Q390 -45 390 8 L390 260 Q335 236 279 218 L267 270 Q326 287 390 314 L390 574 L275 574 L275 622 L390 622 L390 811 L442 811 L442 622 L540 622 L540 574 L442 574 L442 337 Q497 365 548 396 L548 341 ZM933 748 Q807 700 656 691 L656 483 L957 483 L957 434 L852 434 L852 -102 L800 -102 L800 434 L656 434 L656 355 Q648 72 542 -96 L505 -57 Q597 92 605 355 L605 734 Q772 739 907 794 L933 748 Z" /><glyph glyph-name="uni6D77" unicode="&#x6d77;&#xfa45;" d="M427 679 Q370 584 302 519 L267 561 Q372 662 436 821 L489 808 Q475 774 454 730 L928 730 L928 679 L427 679 ZM255 348 L366 348 Q378 464 381 583 L876 583 L867 348 L957 348 L957 297 L865 297 L855 100 L941 100 L941 51 L851 51 Q845 6 842 -5 Q827 -52 785 -76 Q743 -96 664 -96 L582 -96 L566 -47 Q632 -49 656 -49 Q699 -49 737 -41 Q774 -29 791 9 Q795 21 799 51 L322 51 Q346 171 361 297 L255 297 L255 348 ZM412 297 Q400 191 382 100 L803 100 Q806 142 814 297 L412 297 ZM816 348 L823 535 L429 535 Q424 434 417 348 L816 348 ZM569 506 Q647 454 697 404 L662 369 Q614 418 534 473 L569 506 ZM561 269 Q634 215 686 157 L651 122 Q605 175 526 236 L561 269 ZM107 794 Q203 730 264 671 L225 633 Q170 690 68 756 L107 794 ZM92 550 Q185 487 248 424 L210 385 Q150 447 54 513 L92 550 ZM255 246 Q194 77 113 -84 L62 -62 Q142 89 208 264 L255 246 Z" /><glyph glyph-name="uni6DD8" unicode="&#x6dd8;" d="M93 808 Q204 730 272 659 L234 622 Q168 693 54 772 L93 808 ZM86 561 Q197 479 267 402 L229 365 Q158 444 48 525 L86 561 ZM278 281 Q205 86 115 -84 L66 -63 Q161 114 231 300 L278 281 ZM449 479 Q419 435 387 400 L346 426 Q427 512 466 618 L514 608 Q497 563 477 526 L774 526 L774 479 L601 479 L601 361 L801 361 L801 314 L601 314 L601 109 L714 109 L714 246 L762 246 L762 62 L377 62 L377 243 L425 243 L425 109 L550 109 L550 314 L326 314 L326 361 L550 361 L550 479 L449 479 ZM478 825 Q463 771 442 719 L912 719 Q912 170 894 44 Q876 -87 751 -87 Q711 -87 615 -84 L602 -36 Q683 -39 742 -39 Q827 -39 842 50 Q861 158 862 667 L417 667 Q365 568 277 485 L245 527 Q379 649 426 831 L478 825 Z" /><glyph glyph-name="uni6E2F" unicode="&#x6e2f;" d="M350 701 L474 701 L474 812 L528 812 L528 701 L713 701 L713 812 L766 812 L766 701 L899 701 L899 650 L766 650 L766 517 L930 517 L930 465 L756 465 Q819 348 960 282 L938 236 Q772 322 705 465 L530 465 Q504 401 454 342 L790 342 L790 127 L483 127 L483 15 Q483 -28 529 -28 L802 -28 Q837 -28 853 -3 Q865 19 871 95 L922 78 Q915 3 901 -30 Q879 -78 816 -79 L512 -79 Q430 -79 430 -2 L430 316 Q376 260 298 213 L269 259 Q425 349 479 465 L311 465 L311 517 L474 517 L474 650 L350 650 L350 701 ZM528 517 L713 517 L713 650 L528 650 L528 517 ZM483 175 L738 175 L738 295 L483 295 L483 175 ZM110 797 Q220 717 296 633 L257 595 Q186 675 72 760 L110 797 ZM93 550 Q194 474 265 392 L227 354 Q165 428 54 513 L93 550 ZM253 240 Q195 64 122 -95 L68 -71 Q148 95 205 259 L253 240 Z" /><glyph glyph-name="uni6E90" unicode="&#x6e90;" d="M109 791 Q218 714 289 637 L252 600 Q186 674 72 756 L109 791 ZM91 546 Q193 472 259 398 L222 361 Q161 432 54 511 L91 546 ZM274 262 Q199 64 116 -94 L65 -72 Q160 102 227 280 L274 262 ZM482 613 L630 613 Q653 668 661 720 L399 720 L399 406 Q393 91 286 -96 L245 -60 Q342 108 347 406 L347 769 L938 769 L938 720 L712 720 Q699 658 680 613 L883 613 L883 273 L711 273 L711 -23 Q711 -95 641 -95 L557 -95 L546 -45 Q598 -49 623 -49 Q660 -49 660 -11 L660 273 L482 273 L482 613 ZM834 318 L834 421 L531 421 L531 318 L834 318 ZM531 464 L834 464 L834 569 L531 569 L531 464 ZM564 184 Q525 51 451 -46 L407 -18 Q480 76 514 194 L564 184 ZM837 198 Q901 94 949 -25 L903 -45 Q854 79 791 183 L837 198 Z" /><glyph glyph-name="uni6EF4" unicode="&#x6ef4;" d="M113 801 Q220 726 285 659 L247 621 Q185 686 74 763 L113 801 ZM89 559 Q197 484 268 410 L229 372 Q162 444 51 522 L89 559 ZM279 273 Q203 71 116 -99 L62 -75 Q161 107 230 293 L279 273 ZM612 489 L411 489 L411 -97 L362 -97 L362 536 L498 536 Q473 593 436 643 L486 662 Q520 613 551 536 L702 536 Q741 599 770 669 L822 651 Q791 584 757 536 L906 536 L906 -5 Q906 -95 812 -95 L715 -95 L701 -47 L796 -49 Q857 -49 857 6 L857 489 L660 489 L660 374 L790 374 L790 329 L660 329 L660 233 L760 233 L760 17 L510 17 L510 233 L612 233 L612 329 L480 329 L480 374 L612 374 L612 489 ZM715 60 L715 191 L555 191 L555 60 L715 60 ZM623 825 Q647 779 664 734 L941 734 L941 685 L320 685 L320 734 L609 734 Q590 779 567 815 L623 825 Z" /><glyph glyph-name="uni6FC0" unicode="&#x6fc0;" d="M290 724 L387 724 Q405 769 414 817 L466 810 Q457 766 440 724 L577 724 L577 420 L430 420 L464 324 L609 324 L609 278 L403 278 Q402 266 390 188 L575 188 Q575 -3 551 -45 Q527 -84 468 -87 L404 -87 L392 -41 L454 -41 Q497 -38 509 -7 Q519 24 522 142 L380 142 Q368 94 356 58 Q322 -27 251 -97 L218 -55 Q279 7 310 80 Q337 155 352 278 L248 278 L248 324 L413 324 L380 420 L290 420 L290 724 ZM529 463 L529 549 L338 549 L338 463 L529 463 ZM338 591 L529 591 L529 682 L338 682 L338 591 ZM704 575 L681 513 Q718 333 773 210 Q831 364 836 575 L704 575 ZM749 152 Q688 279 651 447 Q626 401 605 373 L573 412 Q673 563 707 815 L758 805 Q742 702 720 627 L947 627 L947 575 L885 575 Q879 323 803 150 Q870 26 961 -42 L930 -88 Q840 -19 777 97 Q715 -17 620 -94 L591 -48 Q688 30 749 152 ZM90 792 Q181 723 244 653 L210 618 Q150 686 54 758 L90 792 ZM76 550 Q160 480 223 405 L186 369 Q135 434 40 515 L76 550 ZM230 239 Q172 65 102 -89 L54 -69 Q128 89 183 257 L230 239 Z" /><glyph glyph-name="uni7075" unicode="&#x7075;" d="M184 611 L765 611 L765 723 L158 723 L158 773 L819 773 L819 404 L132 404 L132 454 L765 454 L765 564 L184 564 L184 611 ZM315 294 Q265 183 194 100 L152 131 Q220 211 267 317 L315 294 ZM844 301 Q791 194 725 123 L682 154 Q747 224 796 324 L844 301 ZM535 362 Q535 295 524 237 Q607 29 956 -42 L933 -93 Q591 -18 504 171 Q420 -15 101 -96 L78 -46 Q400 30 463 218 Q480 271 481 362 L535 362 Z" /><glyph glyph-name="uni70B9" unicode="&#x70b9;" d="M457 816 L510 816 L510 711 L904 711 L904 660 L510 660 L510 516 L829 516 L829 209 L184 209 L184 516 L457 516 L457 816 ZM776 260 L776 465 L238 465 L238 260 L776 260 ZM227 135 Q169 2 94 -93 L50 -62 Q128 33 181 158 L227 135 ZM383 130 Q416 20 438 -88 L383 -101 Q364 24 332 119 L383 130 ZM593 139 Q639 32 673 -86 L619 -99 Q587 33 543 128 L593 139 ZM803 157 Q897 33 949 -66 L905 -97 Q853 1 759 129 L803 157 Z" /><glyph glyph-name="uni70ED" unicode="&#x70ed;" d="M892 159 Q851 159 819 201 Q762 282 762 491 L762 626 L614 626 L614 623 Q611 497 585 405 Q656 351 724 285 L693 238 Q630 303 567 352 Q517 225 419 148 L379 184 Q477 260 522 386 Q468 424 420 451 L449 495 Q498 466 538 438 Q558 520 560 623 L560 626 L438 626 L438 680 L560 680 L560 815 L614 815 L614 680 L815 680 L815 491 Q815 314 852 241 Q868 213 881 213 Q893 213 904 245 Q917 286 920 371 L963 350 Q955 224 934 187 Q914 159 892 159 ZM65 683 L213 683 L213 820 L267 820 L267 683 L396 683 L396 629 L267 629 L267 461 Q328 476 395 497 L395 445 L267 409 L267 239 Q267 161 190 161 L100 161 L88 213 Q146 209 171 209 Q213 209 213 252 L213 396 Q132 378 50 363 L37 414 Q129 429 213 447 L213 629 L65 629 L65 683 ZM231 99 Q173 -19 100 -103 L55 -71 Q130 11 184 122 L231 99 ZM378 99 Q410 16 436 -90 L382 -103 Q359 6 328 88 L378 99 ZM585 113 Q631 17 665 -88 L612 -101 Q581 14 535 102 L585 113 ZM784 132 Q870 23 921 -66 L876 -98 Q828 -10 739 104 L784 132 Z" /><glyph glyph-name="uni7167" unicode="&#x7167;" d="M105 771 L378 771 L378 184 L105 184 L105 771 ZM327 234 L327 454 L159 454 L159 234 L327 234 ZM159 505 L327 505 L327 721 L159 721 L159 505 ZM470 435 L880 435 L880 184 L470 184 L470 435 ZM827 233 L827 386 L523 386 L523 233 L827 233 ZM446 719 L446 771 L898 771 Q895 608 879 559 Q858 490 772 487 Q755 487 699 491 L683 538 Q747 534 767 534 Q823 537 833 589 Q843 629 843 719 L649 719 Q633 553 445 476 L416 521 Q582 582 597 719 L446 719 ZM210 118 Q178 -4 124 -103 L75 -84 Q125 1 161 131 L210 118 ZM383 117 Q410 22 431 -88 L378 -101 Q360 16 333 106 L383 117 ZM596 124 Q637 27 668 -86 L615 -99 Q586 22 546 113 L596 124 ZM803 140 Q890 20 935 -70 L892 -101 Q845 -5 760 113 L803 140 Z" /><glyph glyph-name="uni2F5A" unicode="&#x2f5a;&#x7247;" d="M258 268 Q225 41 110 -80 L69 -45 Q212 102 215 432 L215 802 L269 802 L269 564 L601 564 L601 815 L655 815 L655 564 L938 564 L938 510 L269 510 L269 432 Q268 387 264 321 L721 321 L721 -100 L668 -100 L668 268 L258 268 Z" /><glyph glyph-name="uni724C" unicode="&#x724c;" d="M287 804 L340 804 L340 531 L403 531 L403 480 L168 480 L168 422 Q168 368 165 320 L351 320 L351 -83 L298 -83 L298 269 L162 269 Q144 23 75 -106 L35 -70 Q114 84 115 422 L115 783 L168 783 L168 531 L287 531 L287 804 ZM460 718 L610 718 Q634 769 646 821 L700 814 Q688 765 665 718 L895 718 L895 315 L669 315 L655 287 Q608 210 504 165 L478 205 Q571 245 614 315 L460 315 L460 718 ZM845 362 L845 493 L703 493 Q700 419 685 362 L845 362 ZM633 362 Q650 415 653 493 L510 493 L510 362 L633 362 ZM510 541 L654 541 L654 670 L510 670 L510 541 ZM704 670 L704 541 L845 541 L845 670 L704 670 ZM402 152 L721 152 L721 268 L773 268 L773 152 L953 152 L953 101 L773 101 L773 -99 L721 -99 L721 101 L402 101 L402 152 Z" /><glyph glyph-name="uni7269" unicode="&#x7269;" d="M562 802 Q542 708 521 647 L915 647 Q915 164 901 44 Q885 -91 742 -91 Q722 -91 668 -88 L656 -39 Q703 -42 737 -42 Q835 -42 850 60 Q860 148 863 595 L778 595 Q745 338 685 191 Q616 35 481 -88 L447 -46 Q574 69 637 210 Q699 352 728 595 L636 595 Q576 265 405 115 L370 155 Q530 293 587 595 L502 595 Q462 498 409 431 L369 465 Q468 588 510 815 L562 802 ZM135 547 Q117 468 87 395 L40 408 Q104 566 113 744 L162 741 Q159 676 146 599 L230 599 L230 813 L284 813 L284 599 L376 599 L376 547 L284 547 L284 285 Q326 304 372 330 L372 279 Q322 252 284 234 L284 -97 L230 -97 L230 209 Q147 174 64 147 L51 200 Q144 224 230 260 L230 547 L135 547 Z" /><glyph glyph-name="uni7279" unicode="&#x7279;" d="M136 547 Q119 463 96 394 L46 409 Q98 565 106 741 L157 737 Q154 678 144 599 L248 599 L248 814 L301 814 L301 599 L394 599 L394 547 L301 547 L301 288 L405 330 L405 279 Q357 258 301 237 L301 -98 L248 -98 L248 218 Q157 188 62 164 L49 217 Q154 239 248 269 L248 547 L136 547 ZM659 814 L713 814 L713 703 L905 703 L905 652 L713 652 L713 519 L949 519 L949 467 L423 467 L423 519 L659 519 L659 652 L477 652 L477 703 L659 703 L659 814 ZM444 325 L768 325 L768 407 L822 407 L822 325 L940 325 L940 273 L822 273 L822 -8 Q822 -90 744 -90 L627 -90 L615 -38 Q691 -42 725 -42 Q768 -42 768 6 L768 273 L444 273 L444 325 ZM511 219 Q591 126 632 61 L589 30 Q543 105 468 192 L511 219 Z" /><glyph glyph-name="uni72D7" unicode="&#x72d7;" d="M440 475 L727 475 L727 144 L440 144 L440 475 ZM676 193 L676 426 L491 426 L491 193 L676 193 ZM571 810 Q555 745 532 689 L914 689 Q914 186 899 66 Q882 -89 738 -89 Q700 -89 610 -86 L597 -37 Q675 -40 732 -40 Q832 -40 847 84 Q857 172 860 637 L509 637 Q456 529 374 446 L341 489 Q469 622 516 816 L571 810 ZM375 763 Q316 669 260 611 Q269 593 285 557 Q328 435 332 215 Q332 -12 265 -61 Q228 -86 155 -86 L107 -85 L91 -34 Q118 -37 143 -37 Q206 -37 231 -20 Q280 20 280 218 Q279 296 272 370 Q193 251 80 171 L49 217 Q187 308 263 440 Q252 494 239 532 Q230 555 221 574 Q163 522 82 473 L52 520 Q133 562 196 622 Q153 694 87 752 L130 785 Q191 723 232 658 Q288 721 330 791 L375 763 Z" /><glyph glyph-name="uni72EC" unicode="&#x72ec;" d="M422 644 L631 644 L631 811 L686 811 L686 644 L898 644 L898 253 L686 253 L686 3 Q776 15 851 33 Q830 104 798 187 L842 202 Q894 82 937 -89 L887 -102 Q876 -53 865 -16 Q688 -56 389 -80 L381 -26 Q524 -18 632 -4 L632 253 L422 253 L422 644 ZM845 304 L845 593 L685 593 L685 304 L845 304 ZM633 304 L633 593 L474 593 L474 304 L633 304 ZM399 771 Q335 673 271 609 Q270 609 269 608 Q280 586 290 561 Q333 441 338 221 Q338 -14 279 -62 Q243 -87 178 -87 L116 -86 L100 -35 Q146 -39 166 -39 Q222 -39 243 -20 Q286 21 286 223 Q284 308 279 364 Q200 247 87 166 L55 213 Q192 305 270 436 Q259 498 245 536 Q236 559 229 572 Q169 524 89 476 L59 522 Q142 565 204 620 Q158 697 91 755 L135 788 Q202 721 242 655 Q304 718 353 799 L399 771 Z" /><glyph glyph-name="uni732B" unicode="&#x732b;" d="M919 471 L919 -95 L867 -95 L867 -43 L468 -43 L468 -95 L416 -95 L416 471 L919 471 ZM468 9 L642 9 L642 186 L468 186 L468 9 ZM694 9 L867 9 L867 186 L694 186 L694 9 ZM468 235 L642 235 L642 420 L468 420 L468 235 ZM694 420 L694 235 L867 235 L867 420 L694 420 ZM519 815 L571 815 L571 693 L761 693 L761 815 L813 815 L813 693 L951 693 L951 642 L813 642 L813 526 L761 526 L761 642 L571 642 L571 527 L519 527 L519 642 L381 642 L381 693 L519 693 L519 815 ZM374 772 Q312 670 254 609 Q270 577 276 562 Q319 443 323 230 Q323 -11 263 -61 Q229 -87 164 -87 L104 -86 L88 -35 Q132 -39 152 -39 Q206 -39 228 -20 Q270 22 270 232 Q269 304 264 361 Q188 246 79 166 L48 213 Q180 306 255 436 Q245 491 229 538 Q222 556 214 571 Q163 526 81 473 L51 520 Q129 562 189 619 Q146 689 77 752 L120 785 Q186 719 226 656 Q284 721 330 800 L374 772 Z" /><glyph glyph-name="uni73B0" unicode="&#x73b0;" d="M871 771 L871 224 L817 224 L817 719 L495 719 L495 224 L441 224 L441 771 L871 771 ZM751 -82 Q678 -82 678 -10 L678 228 L732 228 L732 2 Q732 -31 767 -31 L845 -31 Q875 -31 886 -15 Q902 5 908 107 L958 90 Q949 -31 925 -59 Q902 -82 855 -82 L751 -82 ZM626 641 L677 641 L677 393 Q674 193 600 75 Q528 -34 361 -98 L330 -52 Q493 8 560 113 Q623 221 626 393 L626 641 ZM66 438 L188 438 L188 690 L52 690 L52 741 L376 741 L376 690 L242 690 L242 438 L362 438 L362 386 L242 386 L242 136 Q310 159 378 187 L378 134 Q230 74 62 35 L49 87 Q119 102 188 120 L188 386 L66 386 L66 438 Z" /><glyph glyph-name="uni73E0" unicode="&#x73e0;" d="M67 438 L179 438 L179 693 L51 693 L51 744 L371 744 L371 693 L233 693 L233 438 L347 438 L347 386 L233 386 L233 125 Q307 146 377 170 L377 118 Q224 65 57 33 L44 84 Q94 93 179 112 L179 386 L67 386 L67 438 ZM491 595 Q463 526 431 471 L386 500 Q463 632 498 791 L549 780 Q532 712 510 647 L646 647 L646 816 L700 816 L700 647 L903 647 L903 595 L700 595 L700 416 L943 416 L943 365 L743 365 Q806 180 968 34 L933 -9 Q767 157 700 365 L700 -99 L646 -99 L646 365 L643 365 Q567 132 383 -16 L355 30 Q527 160 602 365 L388 365 L388 416 L646 416 L646 595 L491 595 Z" /><glyph glyph-name="uni7406" unicode="&#x7406;" d="M430 771 L901 771 L901 320 L693 320 L693 183 L921 183 L921 131 L693 131 L693 -13 L953 -13 L953 -66 L379 -66 L379 -13 L639 -13 L639 131 L409 131 L409 183 L639 183 L639 320 L430 320 L430 771 ZM848 369 L848 522 L693 522 L693 369 L848 369 ZM639 369 L639 522 L483 522 L483 369 L639 369 ZM483 570 L639 570 L639 722 L483 722 L483 570 ZM693 722 L693 570 L848 570 L848 722 L693 722 ZM68 438 L182 438 L182 692 L53 692 L53 744 L364 744 L364 692 L236 692 L236 438 L352 438 L352 386 L236 386 L236 141 Q301 164 366 192 L366 140 Q223 77 52 35 L39 86 Q104 99 182 123 L182 386 L68 386 L68 438 Z" /><glyph glyph-name="uni745C" unicode="&#x745c;" d="M498 -95 L486 -48 L530 -50 Q566 -50 566 -9 L566 103 L428 103 L428 -98 L380 -98 L380 441 L615 441 L615 -19 Q615 -95 546 -95 L498 -95 ZM428 146 L566 146 L566 246 L428 246 L428 146 ZM428 290 L566 290 L566 394 L428 394 L428 290 ZM69 438 L163 438 L163 690 L58 690 L58 741 L334 741 L334 690 L216 690 L216 438 L319 438 L319 386 L216 386 L216 130 Q280 150 338 173 L338 120 Q209 69 62 36 L48 89 Q121 104 163 115 L163 386 L69 386 L69 438 ZM476 585 L788 585 L788 537 L476 537 L476 585 ZM700 425 L744 425 L744 70 L700 70 L700 425 ZM726 -93 L715 -46 Q757 -49 797 -49 Q836 -49 836 -6 L836 463 L885 463 L885 -18 Q885 -93 814 -93 L726 -93 ZM654 804 Q805 633 958 536 L929 493 Q767 600 633 753 Q494 599 339 490 L310 533 Q477 646 612 804 L654 804 Z" /><glyph glyph-name="uni74E6" unicode="&#x74e6;" d="M416 395 Q520 271 576 178 L532 146 Q472 248 372 368 L416 395 ZM307 482 Q265 182 217 2 Q377 22 515 54 L524 2 Q417 -24 124 -62 L110 -12 Q153 -6 168 17 Q230 254 283 709 L74 709 L74 763 L926 763 L926 709 L336 709 Q324 604 314 533 L738 533 L703 8 Q703 -28 736 -28 L822 -28 Q850 -28 870 -5 Q894 23 900 192 L951 177 Q939 -10 905 -47 Q876 -78 825 -78 L723 -78 Q651 -78 651 -4 L682 482 L307 482 Z" /><glyph glyph-name="uni2F63" unicode="&#x2f63;&#x751f;" d="M233 568 Q171 426 81 336 L45 380 Q191 530 242 789 L297 778 Q280 696 253 620 L491 620 L491 807 L544 807 L544 620 L881 620 L881 568 L544 568 L544 317 L861 317 L861 264 L544 264 L544 -9 L945 -9 L945 -63 L69 -63 L69 -9 L491 -9 L491 264 L190 264 L190 317 L491 317 L491 568 L233 568 Z" /><glyph glyph-name="uni2F64" unicode="&#x2f64;&#x7528;" d="M203 477 L203 293 L202 285 L477 285 L477 477 L203 477 ZM199 234 Q184 40 86 -87 L46 -50 Q145 86 148 297 L148 771 L878 771 L878 23 Q878 -75 780 -75 L665 -75 L651 -22 Q711 -25 762 -25 Q824 -25 824 43 L824 234 L531 234 L531 -64 L477 -64 L477 234 L199 234 ZM824 285 L824 477 L531 477 L531 285 L824 285 ZM824 527 L824 718 L531 718 L531 527 L824 527 ZM477 718 L203 718 L203 527 L477 527 L477 718 Z" /><glyph glyph-name="uni752B" unicode="&#x752b;" d="M76 696 L473 696 L473 813 L527 813 L527 696 L773 696 Q721 745 652 788 L688 820 Q757 780 817 724 L793 696 L925 696 L925 645 L527 645 L527 524 L837 524 L837 -4 Q837 -87 756 -87 L663 -87 L648 -35 L738 -37 Q784 -37 784 8 L784 127 L527 127 L527 -89 L473 -89 L473 127 L220 127 L220 -93 L167 -93 L167 524 L473 524 L473 645 L76 645 L76 696 ZM473 473 L220 473 L220 347 L473 347 L473 473 ZM220 299 L220 175 L473 175 L473 299 L220 299 ZM784 175 L784 299 L527 299 L527 175 L784 175 ZM784 347 L784 473 L527 473 L527 347 L784 347 Z" /><glyph glyph-name="uni7537" unicode="&#x7537;" d="M515 336 Q509 294 500 255 L885 255 Q885 37 849 -25 Q811 -84 715 -84 Q664 -84 608 -82 L594 -29 Q666 -34 712 -34 Q803 -31 817 43 Q830 123 830 203 L485 203 Q454 116 396 51 Q300 -45 89 -99 L67 -49 Q266 -1 353 85 Q400 133 427 203 L99 203 L99 255 L444 255 Q453 290 460 336 L515 336 ZM163 774 L846 774 L846 377 L163 377 L163 774 ZM792 427 L792 550 L532 550 L532 427 L792 427 ZM532 598 L792 598 L792 724 L532 724 L532 598 ZM480 427 L480 550 L217 550 L217 427 L480 427 ZM217 598 L480 598 L480 724 L217 724 L217 598 Z" /><glyph glyph-name="uni753B" unicode="&#x753b;" d="M324 336 L324 186 L478 186 L478 336 L324 336 ZM527 186 L680 186 L680 336 L527 336 L527 186 ZM680 384 L680 532 L527 532 L527 384 L680 384 ZM478 532 L324 532 L324 384 L478 384 L478 532 ZM59 752 L941 752 L941 700 L59 700 L59 752 ZM843 515 L897 515 L897 -95 L843 -95 L843 -36 L159 -36 L159 -97 L105 -97 L105 510 L159 510 L159 16 L843 16 L843 515 ZM272 582 L733 582 L733 136 L272 136 L272 582 Z" /><glyph glyph-name="uni7565" unicode="&#x7565;" d="M879 270 L879 -93 L826 -93 L826 -45 L552 -45 L552 -93 L499 -93 L499 270 L879 270 ZM552 6 L826 6 L826 219 L552 219 L552 6 ZM134 38 L134 -14 L84 -14 L84 740 L404 740 L404 -14 L356 -14 L356 38 L134 38 ZM356 86 L356 366 L268 366 L268 86 L356 86 ZM356 414 L356 690 L268 690 L268 414 L356 414 ZM222 690 L134 690 L134 414 L222 414 L222 690 ZM134 366 L134 86 L222 86 L222 366 L134 366 ZM642 804 Q622 754 605 720 L884 720 L884 677 Q830 553 729 458 Q827 382 959 330 L936 283 Q792 346 694 426 Q587 338 440 277 L407 319 Q554 380 653 461 Q582 526 536 604 Q494 548 450 504 L415 546 Q526 654 589 816 L642 804 ZM688 492 Q772 572 822 668 L577 668 L564 646 Q612 561 688 492 Z" /><glyph glyph-name="uni7684" unicode="&#x7684;" d="M396 636 L396 -36 L344 -36 L344 25 L142 25 L142 -64 L90 -64 L90 636 L180 636 Q211 721 225 815 L280 808 Q264 716 232 636 L396 636 ZM142 75 L344 75 L344 312 L142 312 L142 75 ZM142 361 L344 361 L344 584 L142 584 L142 361 ZM566 410 Q681 283 740 190 L697 159 Q637 256 522 382 L566 410 ZM914 635 Q914 154 900 36 Q885 -84 761 -84 L663 -82 L650 -32 Q710 -35 755 -35 Q836 -35 848 54 Q859 136 862 581 L567 581 Q524 482 466 406 L434 448 Q542 598 581 816 L634 810 Q615 712 588 635 L914 635 Z" /><glyph glyph-name="uni76D1" unicode="&#x76d1;" d="M597 637 Q548 511 475 431 L441 473 Q550 603 589 823 L645 813 Q633 747 615 690 L924 690 L924 637 L597 637 ZM700 557 Q784 450 826 375 L782 343 Q736 427 656 530 L700 557 ZM332 819 L385 819 L385 327 L332 327 L332 819 ZM123 770 L176 770 L176 364 L123 364 L123 770 ZM837 267 L837 -12 L948 -12 L948 -61 L49 -61 L49 -12 L165 -12 L165 267 L837 267 ZM218 -12 L367 -12 L367 217 L218 217 L218 -12 ZM420 -12 L578 -12 L578 217 L420 217 L420 -12 ZM631 -12 L784 -12 L784 217 L631 217 L631 -12 Z" /><glyph glyph-name="uni76DF" unicode="&#x76df;" d="M130 775 L408 775 L408 350 L130 350 L130 775 ZM357 397 L357 542 L181 542 L181 397 L357 397 ZM181 590 L357 590 L357 727 L181 727 L181 590 ZM565 594 L565 502 L564 495 L805 495 L805 594 L565 594 ZM805 640 L805 742 L565 742 L565 640 L805 640 ZM560 449 Q542 334 465 259 L426 295 Q511 377 514 505 L514 790 L858 790 L858 346 Q858 272 776 272 L705 272 L692 321 Q728 318 760 318 Q805 318 805 365 L805 449 L560 449 ZM834 224 L834 -16 L949 -16 L949 -65 L50 -65 L50 -16 L166 -16 L166 224 L834 224 ZM219 -16 L369 -16 L369 174 L219 174 L219 -16 ZM421 -16 L575 -16 L575 174 L421 174 L421 -16 ZM627 -16 L781 -16 L781 174 L627 174 L627 -16 Z" /><glyph glyph-name="uni2F6C" unicode="&#x2f6c;&#x76ee;" d="M839 756 L839 -97 L786 -97 L786 -27 L214 -27 L214 -97 L161 -97 L161 756 L839 756 ZM214 26 L786 26 L786 218 L214 218 L214 26 ZM214 269 L786 269 L786 462 L214 462 L214 269 ZM214 513 L786 513 L786 703 L214 703 L214 513 Z" /><glyph glyph-name="uni76F8" unicode="&#x76f8;" d="M905 752 L905 -97 L851 -97 L851 -32 L502 -32 L502 -98 L450 -98 L450 752 L905 752 ZM502 19 L851 19 L851 217 L502 217 L502 19 ZM502 268 L851 268 L851 461 L502 461 L502 268 ZM502 512 L851 512 L851 701 L502 701 L502 512 ZM260 -97 L207 -97 L207 445 Q155 284 64 154 L43 207 Q159 363 205 561 L60 561 L60 612 L207 612 L207 814 L260 814 L260 612 L395 612 L395 561 L260 561 L260 502 Q334 421 402 331 L372 287 Q301 393 260 445 L260 -97 Z" /><glyph glyph-name="uni7763" unicode="&#x7763;" d="M247 815 L298 815 L298 761 L477 761 L477 717 L298 717 L298 643 L509 643 L509 595 L313 595 L313 377 L261 377 L261 595 L71 595 L71 643 L247 643 L247 815 ZM807 345 L807 -99 L754 -99 L754 -55 L255 -55 L255 -100 L202 -100 L202 345 L807 345 ZM255 -12 L754 -12 L754 63 L255 63 L255 -12 ZM255 104 L754 104 L754 183 L255 183 L255 104 ZM255 223 L754 223 L754 301 L255 301 L255 223 ZM417 555 Q459 489 489 411 L447 393 Q413 478 375 542 L417 555 ZM526 699 L526 747 L891 747 L891 702 Q851 584 762 501 Q835 449 943 410 L919 366 Q801 407 724 469 Q648 412 542 372 L518 417 Q619 454 685 503 Q601 587 575 699 L526 699 ZM722 533 Q800 605 836 699 L625 699 Q643 606 722 533 ZM204 548 Q169 443 103 364 L62 390 Q127 466 157 558 L204 548 Z" /><glyph glyph-name="uni77E5" unicode="&#x77e5;" d="M900 703 L900 -50 L846 -50 L846 18 L635 18 L635 -53 L582 -53 L582 703 L900 703 ZM635 69 L846 69 L846 652 L635 652 L635 69 ZM189 622 Q148 533 101 464 L54 493 Q153 637 201 819 L254 807 Q232 729 211 674 L514 674 L514 622 L360 622 Q359 507 346 403 L523 403 L523 352 L339 352 Q333 314 322 265 Q424 160 525 34 L493 -14 Q380 138 307 216 Q246 40 83 -76 L48 -32 Q210 84 264 265 Q272 297 283 352 L63 352 L63 403 L291 403 Q304 507 305 622 L189 622 Z" /><glyph glyph-name="uni7814" unicode="&#x7814;" d="M780 707 L608 707 L608 414 L780 414 L780 707 ZM780 361 L607 361 Q598 49 426 -99 L385 -63 Q547 72 554 361 L439 361 L439 414 L554 414 L554 707 L461 707 L461 759 L930 759 L930 707 L833 707 L833 414 L958 414 L958 361 L833 361 L833 -96 L780 -96 L780 361 ZM70 702 L70 754 L412 754 L412 702 L249 702 Q228 572 183 460 L372 460 L372 20 L200 20 L200 -62 L148 -62 L148 383 Q114 316 66 248 L37 294 Q159 469 198 702 L70 702 ZM200 69 L322 69 L322 410 L200 410 L200 69 Z" /><glyph glyph-name="uni7840" unicode="&#x7840;" d="M63 701 L63 753 L394 753 L394 701 L238 701 Q217 568 177 458 L367 458 L367 -66 L319 -66 L319 2 L198 2 L198 -76 L149 -76 L149 391 Q114 315 68 246 L39 292 Q152 468 187 701 L63 701 ZM198 50 L319 50 L319 410 L198 410 L198 50 ZM846 463 L846 729 L897 729 L897 413 L708 413 L708 23 L869 23 L869 314 L920 314 L920 -99 L869 -99 L869 -27 L498 -27 L498 -99 L447 -99 L447 314 L498 314 L498 23 L657 23 L657 413 L470 413 L470 729 L521 729 L521 463 L657 463 L657 812 L708 812 L708 463 L846 463 Z" /></font>
</defs>
</svg>
